<?xml version="1.0" standalone="no"?><!DOCTYPE svg PUBLIC "-//W3C//DTD SVG 1.1//EN" "http://www.w3.org/Graphics/SVG/1.1/DTD/svg11.dtd" ><svg xmlns="http://www.w3.org/2000/svg"><metadata></metadata><defs><font id="Noto Sans SC Regular:Version 0.00" horiz-adv-x="2048"><font-face font-family="Noto Sans SC Regular" font-weight="400" font-stretch="normal" units-per-em="2048" panose-1="2 11 5 4 2 2 2 2 2 4" ascent="2376" descent="-655" x-height="4" bbox="-90 -512 2187 1675" underline-thickness="118" underline-position="-366" unicode-range="U+0030-fab7" /><missing-glyph horiz-adv-x="2048" d="M510 1462 l139 0 l-20 -1083 l-99 0 l-20 1083 ZM580 205 q44 0 73 -29 q31 -28 31 -74 q0 -42 -31 -73 q-32 -29 -73 -29 q-46 0 -74 31 q-31 31 -31 71 q0 46 31 74 q26 29 74 29 Z" /><glyph glyph-name="zero" unicode="0" d="M205 694 q0 138 27.5 263 q27.5 125 82 230 q54.5 105 148 167.5 q93.5 62.5 213.5 62.5 q99 0 179.5 -41 q80.5 -41 134 -110.5 q53.5 -69.5 90.5 -163.5 q37 -94 53 -196 q16 -102 16 -212 q0 -111 -16 -215.5 q-16 -104.5 -53 -201.5 q-37 -97 -90.5 -168.5 q-53.5 -71.5 -134 -114.5 q-80.5 -43 -179.5 -43 q-99 0 -179.5 43 q-80.5 43 -133.5 114.5 q-53 71.5 -89.5 168 q-36.5 96.5 -52.5 201 q-16 104.5 -16 216.5 ZM362 911 q-20 -103 -20 -217 q0 -114 18.5 -219 q18.5 -105 56 -196.5 q37.5 -91.5 104.5 -146 q67 -54.5 155 -54.5 q72 0 130 36 q58 36 95.5 96 q37.5 60 63 141 q25.5 81 36.5 166 q11 85 11 177 q0 116 -19.5 219 q-19.5 103 -58.5 188 q-39 85 -105.5 135 q-66.5 50 -152.5 50 q-84 0 -150 -50.5 q-66 -50.5 -105 -136 q-39 -85.5 -59 -188.5 Z" /><glyph glyph-name="one" unicode="1" d="M508 106 l276 0 l0 1113 l-233 -199 l-68 96 l314 281 l125 0 l0 -1291 l247 0 l0 -126 l-661 0 l0 126 Z" /><glyph glyph-name="two" unicode="2" d="M283 104 q341 337 495 537 q189 244 189 393 q0 119 -74 189.5 q-74 70.5 -203 70.5 q-155 0 -342 -120 l-53 110 q92 64 199 100.5 q107 36.5 206 36.5 q180 0 292 -103 q112 -103 112 -278 q0 -107 -62 -233.5 q-62 -126.5 -161 -247.5 q-135 -164 -408 -446 l0 -7 l655 0 l0 -126 l-845 0 l0 124 Z" /><glyph glyph-name="three" unicode="3" d="M262 55 l47 123 q178 -94 336 -94 q141 0 237.5 85 q96.5 85 96.5 216 q0 129 -100 207 q-100 78 -238 78 l-72 0 l0 133 l66 0 q120 0 218.5 72.5 q98.5 72.5 98.5 183.5 q0 101 -76.5 166.5 q-76.5 65.5 -205.5 66.5 q-79 0 -166.5 -26 q-87.5 -26 -163.5 -76 l-45 110 q81 58 181.5 89.5 q100.5 31.5 193.5 31.5 q196 0 308 -98 q112 -98 112 -252 q0 -119 -63.5 -202.5 q-63.5 -83.5 -170.5 -125.5 l0 -4 q128 -41 195 -135 q67 -94 67 -215 q0 -197 -127 -315.5 q-127 -118.5 -342 -118.5 q-231 0 -387 100 Z" /><glyph glyph-name="four" unicode="4" d="M74 322 l717 1075 l127 0 l0 -1063 l288 0 l0 -129 l-288 0 l0 -256 l-132 0 l0 256 l-712 0 l0 117 ZM240 334 l546 0 l0 831 l-546 -831 Z" /><glyph glyph-name="five" unicode="5" d="M274 61 l56 129 q82 -49 174 -77.5 q92 -28.5 162 -28.5 q152 0 254 94 q102 94 102 242 q0 161 -97 246.5 q-97 85.5 -259 85.5 q-151 0 -322 -86 l-41 20 l25 711 l751 0 l-2 -129 l-616 0 l-17 -432 l5 -7 q136 52 245 52 q202 0 331.5 -122.5 q129.5 -122.5 129.5 -324.5 q0 -221 -131.5 -350 q-131.5 -129 -357.5 -129 q-205 0 -392 106 Z" /><glyph glyph-name="six" unicode="6" d="M389 446 q0 -91 38.5 -173 q38.5 -82 113.5 -135.5 q75 -53.5 170 -53.5 q102 0 176 51.5 q74 51.5 107.5 129.5 q33.5 78 33.5 171 q0 173 -82.5 270 q-82.5 97 -224.5 97 q-62 0 -120.5 -23 q-58.5 -23 -106 -66 q-47.5 -43 -76.5 -112.5 q-29 -69.5 -29 -155.5 ZM233 621 q0 188 44.5 346.5 q44.5 158.5 125.5 265.5 q67 90 166.5 139 q99.5 49 214.5 49 q120 0 271 -35 l-21 -129 q-125 35 -246 35 q-86 0 -164 -41 q-78 -41 -130 -116 q-50 -72 -83.5 -183.5 q-33.5 -111.5 -45.5 -238.5 l8 -4 q47 101 141.5 162 q94.5 61 218.5 61 q193 0 310.5 -132 q117.5 -132 117.5 -341 q0 -220 -121.5 -362 q-121.5 -142 -324.5 -142 q-228 0 -355 172 q-127 172 -127 494 Z" /><glyph glyph-name="seven" unicode="7" d="M291 1397 l874 0 l0 -125 q-70 -100 -149.5 -249.5 q-79.5 -149.5 -130.5 -274.5 q-152 -362 -240 -768 l-149 0 q118 493 286 854 q109 233 234 434 l-725 0 l0 129 Z" /><glyph glyph-name="eight" unicode="8" d="M238 350 q0 134 87.5 236 q87.5 102 211.5 143 l0 4 q-106 40 -176 125 q-70 85 -70 201 q0 87 35 158 q35 71 92.5 114.5 q57.5 43.5 128 66.5 q70.5 23 145.5 23 q54 0 108 -11.5 q54 -11.5 108 -38.5 q54 -27 95.5 -67.5 q41.5 -40.5 67 -103.5 q25.5 -63 25.5 -141 q0 -110 -70.5 -194.5 q-70.5 -84.5 -179.5 -131.5 l0 -4 q133 -44 218 -138.5 q85 -94.5 85 -236.5 q0 -122 -62.5 -214 q-62.5 -92 -165.5 -138.5 q-103 -46.5 -229 -46.5 q-88 0 -167.5 24 q-79.5 24 -144.5 70.5 q-65 46.5 -103.5 124 q-38.5 77.5 -38.5 176.5 ZM371 356 q0 -82 46 -145 q46 -63 118.5 -95 q72.5 -32 156.5 -32 q134 0 229 74.5 q95 74.5 95 199.5 q0 105 -96 192 q-96 87 -228 114 q-138 -28 -229.5 -113 q-91.5 -85 -91.5 -195 ZM424 1049 q0 -91 80 -165.5 q80 -74.5 188 -95.5 q110 22 190.5 98.5 q80.5 76.5 80.5 162.5 q0 61 -23 110 q-23 49 -62 78.5 q-39 29.5 -86.5 45 q-47.5 15.5 -99.5 15.5 q-46 0 -92 -15.5 q-46 -15.5 -86 -45 q-40 -29.5 -65 -78.5 q-25 -49 -25 -110 Z" /><glyph glyph-name="nine" unicode="9" d="M989 930 q0 91 -38 173 q-38 82 -113 135.5 q-75 53.5 -170 53.5 q-151 0 -234.5 -103.5 q-83.5 -103.5 -83.5 -248.5 q0 -173 82.5 -270 q82.5 -97 224.5 -97 q62 0 120.5 23 q58.5 23 106 66 q47.5 43 76.5 112.5 q29 69.5 29 155.5 ZM1143 758 q0 -189 -44 -349 q-44 -160 -124 -266 q-67 -90 -166.5 -139 q-99.5 -49 -214.5 -49 q-119 0 -270 35 l20 129 q125 -35 246 -35 q86 0 164.5 41.5 q78.5 41.5 130.5 116.5 q50 72 83.5 183.5 q33.5 111.5 45.5 238.5 l-8 4 q-47 -101 -142 -162.5 q-95 -61.5 -219 -61.5 q-193 0 -310.5 132.5 q-117.5 132.5 -117.5 341.5 q0 220 122 361.5 q122 141.5 325 141.5 q228 0 353.5 -170.5 q125.5 -170.5 125.5 -492.5 Z" /><glyph glyph-name="A" unicode="a" d="M82 -20 l506 1417 l135 0 l510 -1417 l-150 0 l-147 415 l-567 0 l-142 -415 l-145 0 ZM408 512 l493 0 l-248 719 l-245 -719 Z" /><glyph glyph-name="B" unicode="b" d="M348 1397 l428 0 q55 0 109 -11 q54 -11 109.5 -37.5 q55.5 -26.5 97 -67 q41.5 -40.5 68 -105 q26.5 -64.5 26.5 -144.5 q0 -123 -74 -205 q-74 -82 -180 -106 l0 -4 q138 -23 223.5 -109.5 q85.5 -86.5 85.5 -234.5 q0 -83 -27.5 -151 q-27.5 -68 -72 -112 q-44.5 -44 -103.5 -74 q-59 -30 -120 -43 q-61 -13 -123 -13 l-447 0 l0 1417 ZM485 643 l0 -534 l287 0 q56 0 111.5 15.5 q55.5 15.5 104.5 46.5 q49 31 79.5 84 q30.5 53 30.5 120 q0 76 -33 131 q-33 55 -90 83.5 q-57 28.5 -119 41 q-62 12.5 -135 12.5 l-236 0 ZM485 1266 l0 -492 l222 0 q46 0 90.5 7 q44.5 7 90 25.5 q45.5 18.5 79.5 46.5 q34 28 55.5 73 q21.5 45 21.5 102 q0 238 -294 238 l-265 0 Z" /><glyph glyph-name="C" unicode="c" d="M242 690 q-4 199 74 366 q78 167 223.5 266 q145.5 99 326.5 99 q216 0 383 -104 l-47 -127 q-82 52 -157.5 77 q-75.5 25 -176.5 25 q-109 0 -202.5 -50.5 q-93.5 -50.5 -155.5 -134.5 q-62 -84 -96.5 -192.5 q-34.5 -108.5 -34.5 -224.5 q0 -158 61.5 -296.5 q61.5 -138.5 176 -225 q114.5 -86.5 255.5 -86.5 q196 0 336 121 l56 -119 q-146 -129 -392 -129 q-149 0 -270 57.5 q-121 57.5 -199 157.5 q-78 100 -119.5 233 q-41.5 133 -41.5 287 Z" /><glyph glyph-name="D" unicode="d" d="M348 1397 l340 0 q168 0 303.5 -53 q135.5 -53 224 -146.5 q88.5 -93.5 136 -220 q47.5 -126.5 47.5 -275.5 q0 -228 -91 -392.5 q-91 -164.5 -253.5 -247 q-162.5 -82.5 -380.5 -82.5 l-326 0 l0 1417 ZM485 1266 l0 -1157 l193 0 q121 0 224 37 q103 37 183 108.5 q80 71.5 125 187.5 q45 116 45 265 q0 142 -47.5 252 q-47.5 110 -128.5 175.5 q-81 65.5 -180 98.5 q-99 33 -211 33 l-203 0 Z" /><glyph glyph-name="E" unicode="e" d="M348 1397 l850 0 l0 -131 l-713 0 l0 -494 l635 0 l0 -129 l-635 0 l0 -534 l721 0 l0 -129 l-858 0 l0 1417 Z" /><glyph glyph-name="F" unicode="f" d="M348 1397 l815 0 l0 -131 l-678 0 l0 -516 l619 2 l0 -131 l-619 0 l0 -641 l-137 0 l0 1417 Z" /><glyph glyph-name="G" unicode="g" d="M287 688 q0 208 82.5 375.5 q82.5 167.5 230 262.5 q147.5 95 332.5 95 q212 0 389 -94 l-31 -131 q-93 52 -170 74 q-77 22 -188 22 q-114 0 -209.5 -47.5 q-95.5 -47.5 -159.5 -130 q-64 -82.5 -99.5 -192.5 q-35.5 -110 -35.5 -234 q0 -171 60 -307.5 q60 -136.5 177 -217.5 q117 -81 273 -81 q74 0 153.5 15.5 q79.5 15.5 129.5 41.5 l0 434 l-324 0 l0 129 l457 0 l0 -645 q-191 -102 -416 -102 q-297 0 -474 201 q-177 201 -177 532 Z" /><glyph glyph-name="H" unicode="h" d="M348 1397 l139 0 l0 -619 l734 0 l0 619 l137 0 l0 -1417 l-137 0 l0 665 l-734 0 l0 -665 l-139 0 l0 1417 Z" /><glyph glyph-name="I" unicode="i" d="M348 1397 l137 0 l0 -1417 l-137 0 l0 1417 Z" /><glyph glyph-name="J" unicode="j" d="M41 10 l20 137 q39 -23 55 -31.5 q16 -8.5 61 -21 q45 -12.5 95 -12.5 q108 0 159.5 79 q51.5 79 51.5 218 l0 1018 l138 0 l0 -1041 q0 -85 -20 -156 q-20 -71 -60 -127 q-40 -56 -106.5 -87 q-66.5 -31 -153.5 -31 q-40 0 -72 3 q-32 3 -60 10.5 q-28 7.5 -39.5 11 q-11.5 3.5 -39 16.5 q-27.5 13 -29.5 14 Z" /><glyph glyph-name="K" unicode="k" d="M348 1397 l137 0 l0 -615 l537 615 l166 0 l-565 -645 l620 -772 l-174 0 l-584 737 l0 -737 l-137 0 l0 1417 Z" /><glyph glyph-name="L" unicode="l" d="M348 1397 l137 0 l0 -1288 l641 0 l0 -129 l-778 0 l0 1417 Z" /><glyph glyph-name="M" unicode="m" d="M348 1397 l232 0 l440 -1241 l420 1241 l229 0 l0 -1417 l-135 0 l0 1275 l-8 0 l-420 -1230 l-174 0 l-440 1230 l-9 0 l0 -1275 l-135 0 l0 1417 Z" /><glyph glyph-name="N" unicode="n" d="M348 1397 l150 0 l676 -1192 l8 0 l0 1192 l135 0 l0 -1417 l-162 0 l-661 1171 l-9 0 l0 -1171 l-137 0 l0 1417 Z" /><glyph glyph-name="O" unicode="o" d="M287 686 q0 212 73 378 q73 166 210.5 261.5 q137.5 95.5 318.5 95.5 q181 0 319 -94 q138 -94 211.5 -260.5 q73.5 -166.5 73.5 -380.5 q0 -328 -165 -529.5 q-165 -201.5 -439 -201.5 q-275 0 -438.5 201 q-163.5 201 -163.5 530 ZM428 686 q0 -168 52.5 -303.5 q52.5 -135.5 159 -218 q106.5 -82.5 249.5 -82.5 q145 0 251.5 83.5 q106.5 83.5 159 218.5 q52.5 135 52.5 302 q0 168 -51 303 q-51 135 -158 219 q-107 84 -254 84 q-108 0 -196.5 -48.5 q-88.5 -48.5 -145.5 -131.5 q-57 -83 -88 -192.5 q-31 -109.5 -31 -233.5 Z" /><glyph glyph-name="P" unicode="p" d="M348 1397 l410 0 q64 0 121.5 -11 q57.5 -11 116 -39.5 q58.5 -28.5 101 -73.5 q42.5 -45 69 -119.5 q26.5 -74.5 26.5 -170.5 q0 -104 -41.5 -187 q-41.5 -83 -108 -132 q-66.5 -49 -144 -75 q-77.5 -26 -155.5 -26 l-258 0 l0 -583 l-137 0 l0 1417 ZM485 1266 l0 -574 l254 0 q37 0 76 8 q39 8 82 29 q43 21 76 52.5 q33 31.5 54.5 83.5 q21.5 52 21.5 116 q0 74 -20.5 128 q-20.5 54 -51 83.5 q-30.5 29.5 -76 46.5 q-45.5 17 -85 22 q-39.5 5 -89.5 5 l-242 0 Z" /><glyph glyph-name="Q" unicode="q" d="M287 686 q0 163 46 301 q46 138 126 233 q80 95 191 148 q111 53 239 53 q269 0 436.5 -200.5 q167.5 -200.5 167.5 -534.5 q0 -220 -80 -386.5 q-80 -166.5 -219 -256.5 q137 -119 279 -207 l-109 -110 q-150 113 -299 258 q-89 -29 -176 -29 q-267 0 -434.5 197.5 q-167.5 197.5 -167.5 533.5 ZM430 686 q0 -176 58 -313.5 q58 -137.5 163 -214 q105 -76.5 238 -76.5 q138 0 244 79 q106 79 162.5 216 q56.5 137 56.5 309 q0 171 -54 307.5 q-54 136.5 -160 217.5 q-106 81 -249 81 q-139 0 -244.5 -81 q-105.5 -81 -160 -217.5 q-54.5 -136.5 -54.5 -307.5 Z" /><glyph glyph-name="R" unicode="r" d="M348 1397 l434 0 q59 0 113 -12 q54 -12 105 -39.5 q51 -27.5 88.5 -68.5 q37.5 -41 60 -104.5 q22.5 -63.5 22.5 -142.5 q0 -128 -74 -218 q-74 -90 -212 -128 l0 -2 q89 -24 140 -90 q51 -66 89 -172 l158 -440 l-154 0 l-137 385 q-43 125 -115 190.5 q-72 65.5 -184 65.5 l-197 0 l0 -641 l-137 0 l0 1417 ZM485 1268 l0 -518 l203 0 q63 0 121 15 q58 15 109.5 45 q51.5 30 82.5 84.5 q31 54.5 31 125.5 q0 248 -309 248 l-238 0 Z" /><glyph glyph-name="S" unicode="s" d="M225 139 l60 125 q82 -86 187.5 -134 q105.5 -48 215.5 -48 q133 0 215 67.5 q82 67.5 82 186.5 q0 57 -23.5 104 q-23.5 47 -68.5 82.5 q-45 35.5 -97.5 61 q-52.5 25.5 -123.5 49.5 q-56 19 -92.5 33 q-36.5 14 -85 36 q-48.5 22 -80 43 q-31.5 21 -66 51.5 q-34.5 30.5 -54 64 q-19.5 33.5 -32 78.5 q-12.5 45 -12.5 97 q0 93 35 167 q35 74 95.5 121 q60.5 47 139 72 q78.5 25 168.5 25 q112 0 217.5 -36.5 q105.5 -36.5 186.5 -100.5 l-56 -123 q-158 131 -346 131 q-138 0 -220.5 -68 q-82.5 -68 -82.5 -186 q0 -26 6.5 -49.5 q6.5 -23.5 14.5 -41.5 q8 -18 27 -37 q19 -19 32.5 -31.5 q13.5 -12.5 43.5 -28.5 q30 -16 47.5 -25 q17.5 -9 56.5 -24.5 q39 -15.5 58.5 -23 q19.5 -7.5 65.5 -23.5 q93 -34 156 -66 q63 -32 120.5 -80 q57.5 -48 86 -114.5 q28.5 -66.5 28.5 -153.5 q0 -183 -122 -284 q-122 -101 -320 -101 q-128 0 -254 48.5 q-126 48.5 -209 135.5 Z" /><glyph glyph-name="T" unicode="t" d="M41 1397 l989 0 l0 -131 l-428 0 l0 -1286 l-139 0 l0 1286 l-422 0 l0 131 Z" /><glyph glyph-name="U" unicode="u" d="M348 1397 l137 0 l0 -848 q0 -131 42.5 -236 q42.5 -105 127 -168 q84.5 -63 197.5 -63 q114 0 198.5 63.5 q84.5 63.5 125.5 168 q41 104.5 41 235.5 l0 848 l137 0 l0 -850 q0 -127 -30 -233 q-30 -106 -90 -187 q-60 -81 -157.5 -126.5 q-97.5 -45.5 -224.5 -45.5 q-128 0 -225.5 44 q-97.5 44 -157.5 123.5 q-60 79.5 -90.5 186.5 q-30.5 107 -30.5 238 l0 850 Z" /><glyph glyph-name="V" unicode="v" d="M82 1397 l147 0 l420 -1204 l8 0 l418 1204 l148 0 l-500 -1417 l-139 0 l-502 1417 Z" /><glyph glyph-name="W" unicode="w" d="M82 1397 l141 0 l330 -1241 l8 0 l322 1230 l164 0 l309 -1230 l6 0 l338 1241 l143 0 l-399 -1417 l-180 0 l-297 1200 l-4 0 l-320 -1200 l-176 0 l-385 1417 Z" /><glyph glyph-name="X" unicode="x" d="M82 -20 l436 725 l-412 692 l166 0 l332 -572 l348 572 l154 0 l-426 -690 l448 -727 l-172 0 l-360 598 l-360 -598 l-154 0 Z" /><glyph glyph-name="Y" unicode="y" d="M82 1397 l154 0 l387 -668 l403 668 l154 0 l-490 -803 l0 -614 l-137 0 l0 612 l-471 805 Z" /><glyph glyph-name="Z" unicode="z" d="M164 109 l710 1157 l-698 0 l0 131 l852 0 l0 -131 l-711 -1157 l732 0 l0 -129 l-885 0 l0 129 Z" /><glyph glyph-name="a" unicode="a" d="M184 266 q0 77 27.5 139 q27.5 62 71 101 q43.5 39 100.5 65 q57 26 113 36.5 q56 10.5 112 10.5 l215 0 l0 72 q0 123 -64 183.5 q-64 60.5 -177 60.5 q-166 0 -310 -84 l-8 133 q156 78 322 78 q192 0 281 -92.5 q89 -92.5 89 -292.5 l0 -696 l-133 0 l0 165 l-6 0 q-46 -86 -128 -138 q-82 -52 -197 -52 q-145 0 -226.5 92 q-81.5 92 -81.5 219 ZM319 281 q0 -95 61 -150 q61 -55 136 -55 q97 0 184 67 q87 67 123 156 l0 217 l-166 0 q-62 0 -116 -10 q-54 -10 -107 -34.5 q-53 -24.5 -84 -73 q-31 -48.5 -31 -117.5 Z" /><glyph glyph-name="b" unicode="b" d="M307 -20 l0 1521 l133 0 l0 -614 l4 -2 q139 176 318 176 q92 0 164.5 -44.5 q72.5 -44.5 118 -121 q45.5 -76.5 69 -174 q23.5 -97.5 23.5 -207.5 q0 -157 -45 -283 q-45 -126 -133 -201 q-88 -75 -205 -75 q-102 0 -176 47 q-74 47 -134 131 l-4 0 l0 -153 l-133 0 ZM440 748 l0 -457 q56 -95 132.5 -154 q76.5 -59 160.5 -59 q125 0 198 124 q73 124 73 310 q0 115 -28.5 209 q-28.5 94 -89.5 153.5 q-61 59.5 -145 59.5 q-83 0 -160.5 -49 q-77.5 -49 -140.5 -137 Z" /><glyph glyph-name="c" unicode="c" d="M221 508 q0 120 37 224 q37 104 100.5 176 q63.5 72 149.5 112.5 q86 40.5 182 40.5 q158 0 287 -70 l-33 -123 q-59 36 -115 51 q-56 15 -133 15 q-149 0 -244.5 -120.5 q-95.5 -120.5 -95.5 -305.5 q0 -118 40.5 -215.5 q40.5 -97.5 119.5 -157 q79 -59.5 182 -59.5 q145 0 246 69 l37 -118 q-64 -39 -131 -55.5 q-67 -16.5 -164 -16.5 q-141 0 -248 75 q-107 75 -162 200 q-55 125 -55 278 Z" /><glyph glyph-name="d" unicode="d" d="M213 516 q0 156 47.5 279.5 q47.5 123.5 136 194.5 q88.5 71 201.5 71 q184 0 307 -172 l4 2 l0 610 l133 0 l0 -1521 l-133 0 l0 149 l-6 4 q-57 -83 -126.5 -130.5 q-69.5 -47.5 -168.5 -47.5 q-178 0 -286.5 154.5 q-108.5 154.5 -108.5 406.5 ZM346 514 q0 -194 79.5 -316 q79.5 -122 203.5 -122 q82 0 156.5 60 q74.5 60 123.5 151 l0 463 q-50 81 -127.5 132.5 q-77.5 51.5 -163.5 51.5 q-120 0 -196 -117.5 q-76 -117.5 -76 -302.5 Z" /><glyph glyph-name="e" unicode="e" d="M213 526 q0 241 118 388 q118 147 304 147 q194 0 298.5 -138.5 q104.5 -138.5 108.5 -418.5 l-698 0 q1 -196 90.5 -312 q89.5 -116 237.5 -116 q153 0 286 110 l37 -118 q-134 -113 -327 -113 q-218 0 -336.5 153 q-118.5 153 -118.5 418 ZM350 621 l557 0 q-6 134 -75.5 223.5 q-69.5 89.5 -190.5 89.5 q-123 0 -201.5 -90 q-78.5 -90 -89.5 -223 Z" /><glyph glyph-name="f" unicode="f" d="M82 1032 l154 0 l0 209 q0 283 229 283 q73 0 153 -17 l-14 -114 q-54 10 -117 10 q-72 0 -94 -50 q-22 -50 -22 -163 l0 -158 l231 0 l0 -123 l-231 0 l0 -929 l-135 0 l0 929 l-154 0 l0 123 Z" /><glyph glyph-name="g" unicode="g" d="M213 508 q0 257 108.5 405 q108.5 148 270.5 148 q94 0 172 -41.5 q78 -41.5 129 -106.5 l4 0 l0 119 l133 0 l0 -932 q0 -95 -14 -179.5 q-14 -84.5 -48.5 -165.5 q-34.5 -81 -87.5 -139 q-53 -58 -137 -93 q-84 -35 -192 -35 q-85 0 -178.5 26.5 q-93.5 26.5 -155.5 59.5 l25 131 q85 -43 155.5 -67.5 q70.5 -24.5 149.5 -24.5 q95 0 165.5 43 q70.5 43 110.5 119 q40 76 58 170.5 q18 94.5 16 206.5 l-6 0 q-43 -71 -117.5 -121.5 q-74.5 -50.5 -171.5 -50.5 q-121 0 -211 74.5 q-90 74.5 -134 193 q-44 118.5 -44 260.5 ZM348 512 q0 -108 29.5 -199 q29.5 -91 93.5 -151 q64 -60 152 -60 q85 0 162 62 q77 62 112 143 l0 461 q-45 73 -120 119.5 q-75 46.5 -161 46.5 q-116 0 -192 -114 q-76 -114 -76 -308 Z" /><glyph glyph-name="h" unicode="h" d="M307 1501 l133 0 l0 -614 l4 0 q73 79 166.5 126.5 q93.5 47.5 180.5 47.5 q72 0 126 -22.5 q54 -22.5 85 -58 q31 -35.5 50 -88.5 q19 -53 25 -105 q6 -52 6 -117 l0 -690 l-133 0 l0 686 q0 130 -43 199 q-43 69 -147 69 q-79 0 -165.5 -50.5 q-86.5 -50.5 -154.5 -138.5 l0 -765 l-133 0 l0 1521 Z" /><glyph glyph-name="i" unicode="i" d="M362 1032 l136 0 l0 -1052 l-136 0 l0 1052 ZM328 1417 q0 45 30 77 q30 32 72 32 q42 0 72 -32 q30 -32 30 -77 q0 -44 -29.5 -75 q-29.5 -31 -72.5 -31 q-43 0 -72.5 31 q-29.5 31 -29.5 75 Z" /><glyph glyph-name="j" unicode="j" d="M-90 -492 l20 123 q56 -16 111 -16 q115 0 115 195 l0 1222 l133 0 l0 -1237 q0 -149 -56 -228 q-56 -79 -184 -79 q-81 0 -139 20 ZM149.5 1342 q-30.5 31 -30.5 75 q0 44 30.5 76.5 q30.5 32.5 73.5 32.5 q41 0 72 -32.5 q31 -32.5 31 -76.5 q0 -44 -30.5 -75 q-30.5 -31 -72.5 -31 q-43 0 -73.5 31 Z" /><glyph glyph-name="k" unicode="k" d="M287 1501 l133 0 l0 -895 l422 426 l166 0 l-455 -457 l496 -595 l-166 0 l-463 563 l0 -563 l-133 0 l0 1521 Z" /><glyph glyph-name="l" unicode="l" d="M348 1501 l133 0 l2 -1218 q0 -115 17.5 -163 q17.5 -48 58.5 -48 q55 0 82 10 l18 -111 q-53 -16 -124 -16 q-103 0 -145 74.5 q-42 74.5 -42 232.5 l0 1239 Z" /><glyph glyph-name="m" unicode="m" d="M307 1032 l133 0 l0 -158 l4 0 q67 83 148.5 135 q81.5 52 165.5 52 q95 0 160 -56 q65 -56 83 -147 q69 92 161.5 147.5 q92.5 55.5 183.5 55.5 q78 0 134 -27 q56 -27 87 -76.5 q31 -49.5 45 -109 q14 -59.5 14 -133.5 l0 -735 l-133 0 l0 712 q0 107 -45.5 174.5 q-45.5 67.5 -138.5 67.5 q-67 0 -140.5 -51.5 q-73.5 -51.5 -132.5 -139.5 l0 -763 l-133 0 l0 704 q0 109 -44 179.5 q-44 70.5 -136 70.5 q-71 0 -148 -55 q-77 -55 -135 -148 l0 -751 l-133 0 l0 1052 Z" /><glyph glyph-name="n" unicode="n" d="M307 1032 l133 0 l0 -149 l4 0 q67 77 155.5 127.5 q88.5 50.5 184.5 50.5 q308 0 308 -377 l0 -704 l-136 0 l0 700 q0 254 -206 254 q-82 0 -168 -53 q-86 -53 -142 -131 l0 -770 l-133 0 l0 1052 Z" /><glyph glyph-name="o" unicode="o" d="M213 512 q0 107 25.5 203 q25.5 96 75.5 174.5 q50 78.5 134 125 q84 46.5 191 46.5 q107 0 190 -46.5 q83 -46.5 132 -125.5 q49 -79 73.5 -174.5 q24.5 -95.5 24.5 -202.5 q0 -86 -15 -165.5 q-15 -79.5 -48 -151 q-33 -71.5 -81 -124.5 q-48 -53 -119 -84.5 q-71 -31.5 -157 -31.5 q-86 0 -158 31 q-72 31 -120.5 84.5 q-48.5 53.5 -82.5 125 q-34 71.5 -49.5 151 q-15.5 79.5 -15.5 165.5 ZM346 512 q0 -88 17.5 -164.5 q17.5 -76.5 52.5 -138 q35 -61.5 92 -96.5 q57 -35 131 -35 q74 0 130 34.5 q56 34.5 90 95.5 q34 61 50.5 137.5 q16.5 76.5 16.5 166.5 q0 119 -28.5 211.5 q-28.5 92.5 -94.5 151.5 q-66 59 -164 59 q-98 0 -165.5 -59 q-67.5 -59 -97.5 -151.5 q-30 -92.5 -30 -211.5 Z" /><glyph glyph-name="p" unicode="p" d="M307 1032 l133 0 l0 -143 l6 0 q136 168 316 168 q173 0 274 -149.5 q101 -149.5 101 -407.5 q0 -148 -45 -270.5 q-45 -122.5 -137 -199.5 q-92 -77 -216 -77 q-193 0 -295 164 l-4 0 l0 -604 l-133 0 l0 1519 ZM440 743 l0 -469 q51 -89 125.5 -143.5 q74.5 -54.5 153.5 -54.5 q88 0 154 59 q66 59 98.5 154.5 q32.5 95.5 32.5 212.5 q0 198 -73.5 315 q-73.5 117 -195.5 117 q-81 0 -157 -51 q-76 -51 -138 -140 Z" /><glyph glyph-name="q" unicode="q" d="M213 504 q0 251 106.5 402 q106.5 151 272.5 151 q95 0 175.5 -44 q80.5 -44 137.5 -114 l4 0 l0 133 l133 0 l0 -1519 l-133 0 l0 608 l-4 4 q-55 -75 -134.5 -123.5 q-79.5 -48.5 -166.5 -48.5 q-122 0 -211.5 74 q-89.5 74 -134.5 197.5 q-45 123.5 -45 279.5 ZM346 506 q0 -119 30 -215 q30 -96 94.5 -155.5 q64.5 -59.5 154.5 -59.5 q78 0 154 57 q76 57 130 146 l0 481 q-124 174 -295 174 q-121 0 -194.5 -114.5 q-73.5 -114.5 -73.5 -313.5 Z" /><glyph glyph-name="r" unicode="r" d="M307 1032 l133 0 l0 -158 l4 0 q34 87 96 137 q62 50 140 50 q38 0 125 -17 l-17 -122 q-75 14 -116 14 q-105 0 -168.5 -101 q-63.5 -101 -63.5 -247 l0 -608 l-133 0 l0 1052 Z" /><glyph glyph-name="s" unicode="s" d="M205 68 l43 122 q47 -34 82.5 -55 q35.5 -21 94 -39 q58.5 -18 120.5 -18 q94 0 151.5 45 q57.5 45 57.5 119 q0 72 -60.5 121.5 q-60.5 49.5 -185.5 91.5 q-69 24 -117.5 50 q-48.5 26 -88 63.5 q-39.5 37.5 -58.5 89.5 q-19 52 -19 120 q0 124 93.5 203.5 q93.5 79.5 226.5 79.5 q136 0 293 -74 l-23 -129 q-138 76 -280 76 q-74 0 -128.5 -41.5 q-54.5 -41.5 -54.5 -112.5 q0 -80 67.5 -128.5 q67.5 -48.5 221.5 -100.5 q111 -37 176.5 -113 q65.5 -76 65.5 -186 q0 -137 -99.5 -217 q-99.5 -80 -251.5 -80 q-164 0 -327 113 Z" /><glyph glyph-name="t" unicode="t" d="M82 1032 l160 0 l0 221 l133 58 l0 -279 l231 0 l0 -123 l-231 0 l0 -690 q0 -64 25 -102.5 q25 -38.5 67 -38.5 q63 0 137 18 l14 -119 q-82 -22 -167 -22 q-101 0 -155 63.5 q-54 63.5 -54 194.5 l0 696 l-160 0 l0 123 Z" /><glyph glyph-name="u" unicode="u" d="M307 1032 l133 0 l0 -706 q0 -119 51 -183.5 q51 -64.5 154 -64.5 q81 0 165.5 54.5 q84.5 54.5 141.5 135.5 l0 764 l133 0 l0 -1052 l-133 0 l0 147 l-4 0 q-65 -75 -154 -124.5 q-89 -49.5 -182 -49.5 q-305 0 -305 375 l0 704 Z" /><glyph glyph-name="v" unicode="v" d="M61 1032 l138 0 l307 -880 l291 880 l137 0 l-367 -1052 l-129 0 l-377 1052 Z" /><glyph glyph-name="w" unicode="w" d="M61 1032 l138 0 l217 -926 l4 0 l213 926 l180 0 l197 -928 l6 0 l213 928 l135 0 l-260 -1052 l-197 0 l-182 915 l-4 0 l-209 -915 l-190 0 l-261 1052 Z" /><glyph glyph-name="x" unicode="x" d="M61 -20 l355 540 l-328 512 l158 0 l250 -409 l252 409 l147 0 l-330 -510 l363 -542 l-158 0 l-283 436 l-278 -436 l-148 0 Z" /><glyph glyph-name="y" unicode="y" d="M61 1032 l142 0 l309 -876 l295 876 l137 0 l-467 -1327 q-41 -118 -92 -167.5 q-51 -49.5 -141 -49.5 q-76 0 -144 18 l17 121 q69 -16 110 -16 q49 0 79.5 28 q30.5 28 51.5 87 l88 254 l-385 1052 Z" /><glyph glyph-name="z" unicode="z" d="M123 96 l551 813 l-537 0 l0 123 l680 0 l0 -117 l-553 -813 l567 0 l0 -122 l-708 0 l0 116 Z" /><glyph glyph-name="cid27491" unicode="&#x4e00;" d="M336 870 l1649 0 l0 -118 l-1649 0 l0 118 Z" /><glyph glyph-name="cid27494" unicode="&#x4e03;" d="M324 922 l542 59 l0 655 l127 0 l0 -641 l932 105 l10 -125 l-942 -105 l0 -708 q0 -98 26.5 -130 q26.5 -32 119.5 -32 l118 0 q363 0 652 78 l28 -123 q-137 -38 -329 -58 q-192 -20 -365 -20 l-110 0 q-84 0 -136.5 15 q-52.5 15 -81.5 52 q-29 37 -39 87 q-10 50 -10 131 l0 694 l-534 -57 l-8 123 Z" /><glyph glyph-name="cid27498" unicode="&#x4e07;" d="M299 -98 q94 71 170 155 q76 84 127 165.5 q51 81.5 89 179 q38 97.5 59.5 179 q21.5 81.5 35.5 182.5 q14 101 19 173.5 q5 72.5 8 167.5 l6 258 l-481 0 l0 115 l1628 0 l0 -115 l-1018 0 l-8 -270 q-4 -100 -8 -150 l805 0 q-4 -222 -19.5 -478 q-15.5 -256 -28.5 -368 q-19 -149 -71 -199.5 q-52 -50.5 -189 -50.5 l-344 0 l-20 121 l338 0 q88 0 117.5 23 q29.5 23 41.5 114 q16 122 29.5 345.5 q13.5 223.5 13.5 377.5 l-681 0 q-12 -111 -31 -207.5 q-19 -96.5 -59 -210 q-40 -113.5 -96.5 -213 q-56.5 -99.5 -146.5 -204.5 q-90 -105 -206 -195 l-80 105 Z" /><glyph glyph-name="cid275" unicode="&#x4e09;" d="M315 66 l1661 0 l0 -115 l-1661 0 l0 115 ZM444 1423 l1409 0 l0 -118 l-1409 0 l0 118 ZM565 795 l1164 0 l0 -115 l-1164 0 l0 115 Z" /><glyph glyph-name="cid2750" unicode="&#x4e0a;" d="M1876 940 l-743 0 l0 -928 l854 0 l0 -116 l-1627 0 l0 116 l650 0 l0 1626 l123 0 l0 -581 l743 0 l0 -117 Z" /><glyph glyph-name="cid27502" unicode="&#x4e0b;" d="M332 1479 l1657 0 l0 -117 l-815 0 l0 -1565 l-132 0 l0 1565 l-710 0 l0 117 ZM1262 901 l86 92 q117 -103 285 -268 q168 -165 270 -279 l-101 -90 q-93 111 -256.5 274.5 q-163.5 163.5 -283.5 270.5 Z" /><glyph glyph-name="cid27506" unicode="&#x4e0d;&#xf967;" d="M319 1466 l1592 0 l0 -114 l-662 0 q-147 -329 -373 -574.5 q-226 -245.5 -557 -453.5 l-73 110 q630 391 864 918 l-791 0 l0 114 ZM1051 930 l127 0 l0 -1127 l-127 0 l0 1127 ZM1864 309 q-125 133 -285 286.5 q-160 153.5 -268 238.5 l80 96 q121 -92 280 -240 q159 -148 289 -287 l-96 -94 Z" /><glyph glyph-name="cid27507" unicode="&#x4e0e;" d="M1845 881 q-18 -461 -59 -805 q-8 -66 -24 -110 q-16 -44 -49 -77.5 q-33 -33.5 -88.5 -49 q-55.5 -15.5 -137.5 -15.5 l-324 0 l-18 119 l328 0 q83 0 127.5 28.5 q44.5 28.5 58.5 120.5 q32 201 51 674 l-1118 0 q68 590 92 872 l123 -8 q-5 -54 -29 -299 l1182 0 l0 -114 l-1192 0 l-37 -336 l1114 0 ZM332 436 l1179 0 l0 -117 l-1179 0 l0 117 Z" /><glyph glyph-name="cid27511" unicode="&#x4e13;" d="M1604 -221 q-399 193 -983 414 l47 108 q311 -115 501 -192 q214 184 371 399 l-889 0 l0 98 q76 169 119 283 l-446 0 l0 112 l489 0 q50 129 102 291 l-446 0 l0 111 l481 0 q45 138 72 250 l123 -19 q-20 -81 -66 -231 l725 0 l0 -111 l-762 0 q-48 -148 -98 -291 l1045 0 l0 -112 l-1086 0 q-48 -126 -104 -268 l909 0 l0 -107 q-60 -89 -181 -224.5 q-121 -135.5 -229 -234.5 q181 -75 365 -157 l-59 -119 Z" /><glyph glyph-name="cid27512" unicode="&#x4e14;" d="M1989 -125 l-1657 0 l0 119 l293 0 l0 1536 l1071 0 l0 -1536 l293 0 l0 -119 ZM752 418 l0 -424 l817 0 l0 424 l-817 0 ZM752 1413 l0 -397 l817 0 l0 397 l-817 0 ZM752 903 l0 -373 l817 0 l0 373 l-817 0 Z" /><glyph glyph-name="cid27514" unicode="&#x4e16;" d="M1997 1016 l-344 0 l0 -649 l-635 0 l0 649 l-361 0 l0 -985 l1266 0 l0 -119 l-1391 0 l0 1104 l-225 0 l0 117 l225 0 l0 446 l125 0 l0 -446 l361 0 l0 507 l121 0 l0 -507 l391 0 l0 507 l123 0 l0 -507 l344 0 l0 -117 ZM1139 483 l391 0 l0 533 l-391 0 l0 -533 Z" /><glyph glyph-name="cid27518" unicode="&#x4e1a;" d="M1985 -94 l-1670 0 l0 114 l584 0 l0 1598 l123 0 l0 -1598 l262 0 l0 1598 l123 0 l0 -1598 l578 0 l0 -114 ZM1939 1210 q-76 -252 -160 -460 q-84 -208 -198 -398 l-106 64 q118 195 198 389.5 q80 194.5 152 441.5 l114 -37 ZM700 352 q-166 459 -321 811 l113 51 q139 -320 321 -811 l-113 -51 Z" /><glyph glyph-name="cid2752" unicode="&#x4e1c;" d="M995 1376 l924 0 l0 -116 l-979 0 q-133 -282 -270 -490 l467 0 l0 346 l125 0 l0 -346 l602 0 l0 -117 l-602 0 l0 -557 q-1 -53 -4.5 -87 q-3.5 -34 -16.5 -70 q-13 -36 -36 -56 q-23 -20 -63 -33 q-40 -13 -98 -14 l-196 0 l-21 117 l199 0 q74 1 92.5 34.5 q18.5 33.5 18.5 139.5 l0 526 l-617 0 l0 119 q147 201 287 488 l-422 0 l0 116 l477 0 q59 127 111 262 l117 -39 q-69 -164 -95 -223 ZM328 27 q140 106 252 219 q112 113 213 258 l100 -80 q-109 -148 -234.5 -276.5 q-125.5 -128.5 -252.5 -215.5 l-78 95 ZM1442 422 l88 86 q252 -242 461 -485 l-97 -86 q-219 266 -452 485 Z" /><glyph glyph-name="cid2753" unicode="&#x4e24;" d="M449 1112 l436 0 l0 285 l-557 0 l0 112 l1657 0 l0 -112 l-553 0 l-5 -285 l439 0 l0 -1042 q0 -114 -45.5 -172 q-45.5 -58 -165.5 -58 l-248 0 l-16 113 l243 0 q70 0 91.5 29.5 q21.5 29.5 21.5 109.5 l0 909 l-322 0 q0 -34 -1 -79.5 q-1 -45.5 -1 -53.5 q-4 -56 -8 -88 q60 -84 157.5 -228.5 q97.5 -144.5 139.5 -217.5 l-100 -66 q-100 186 -221 367 q-37 -158 -109 -296.5 q-72 -138.5 -164 -238.5 l-88 74 q129 151 194 318.5 q65 167.5 83 377.5 l6 131 l-316 0 q-1 -23 -1.5 -53 q-0.5 -30 -1 -49.5 q-0.5 -19.5 -1.5 -30.5 l-4 -61 q138 -212 189 -324 l-101 -55 q-63 127 -116 221 q-71 -293 -267 -499 l-88 71 q133 156 193.5 300 q60.5 144 77.5 349 l6 131 l-316 0 l0 -1185 l-118 0 l0 1296 ZM1001 1397 q0 -34 -1 -131 q-1 -97 -1 -154 l316 0 l0 285 l-314 0 Z" /><glyph glyph-name="cid27530" unicode="&#x4e25;" d="M270 -139 q119 160 177.5 335.5 q58.5 175.5 58.5 393.5 l0 237 l403 0 l0 580 l-481 0 l0 111 l1473 0 l0 -111 l-502 0 l0 -580 l522 0 l0 -114 l-1290 0 l0 -158 q0 -213 -67 -412 q-67 -199 -189 -352 l-105 70 ZM1024 1407 l0 -580 l260 0 l0 580 l-260 0 ZM1837 1282 q-51 -100 -128 -209 q-77 -109 -150 -186 l-89 76 q156 167 267 378 l100 -59 ZM748 907 q-128 207 -250 361 l90 73 q133 -159 258 -368 l-98 -66 Z" /><glyph glyph-name="cid27534" unicode="&#x4e27;" d="M520 -63 q54 9 148 28 l0 725 l-312 0 l0 117 l752 0 l0 485 l-662 0 l0 117 l662 0 l0 231 l121 0 l0 -231 l665 0 l0 -117 l-665 0 l0 -485 l756 0 l0 -117 l-850 0 q106 -208 241 -354 q194 129 350 278 l84 -92 q-169 -151 -348 -270 q224 -199 559 -283 l-45 -123 q-120 36 -223 80.5 q-103 44.5 -185 93 q-82 48.5 -154 108.5 q-72 60 -127.5 119.5 q-55.5 59.5 -108.5 135 q-53 75.5 -94 146 q-41 70.5 -87 161.5 l-206 0 l0 -694 q226 58 401 137 l45 -115 q-142 -58 -329 -111.5 q-187 -53.5 -355 -84.5 l-33 115 ZM1382 913 q90 80 155.5 161 q65.5 81 123.5 177 l98 -67 q-122 -197 -289 -350 l-88 79 ZM848 848 q-135 186 -262 315 l88 80 q139 -145 272 -317 l-98 -78 Z" /><glyph glyph-name="cid27537" unicode="&#x4e2a;" d="M1915 733 q-283 172 -473 359.5 q-190 187.5 -330 420.5 q-142 -232 -335 -420.5 q-193 -188.5 -472 -357.5 l-72 109 q272 165 467.5 353.5 q195.5 188.5 352.5 447.5 l116 0 q161 -266 351 -452.5 q190 -186.5 462 -342.5 l-67 -117 ZM1047 950 l127 0 l0 -1155 l-127 0 l0 1155 Z" /><glyph glyph-name="cid2754" unicode="&#x4e2d;" d="M1184 1636 l125 0 l0 -391 l678 0 l0 -772 l-678 0 l0 -678 l-125 0 l0 678 l-680 0 l0 772 l680 0 l0 391 ZM627 1128 l0 -538 l557 0 l0 538 l-557 0 ZM1864 590 l0 538 l-555 0 l0 -538 l555 0 Z" /><glyph glyph-name="cid27543" unicode="&#x4e30;" d="M502 877 l581 0 l0 346 l-671 0 l0 116 l671 0 l0 295 l121 0 l0 -295 l676 0 l0 -116 l-676 0 l0 -346 l586 0 l0 -115 l-586 0 l0 -363 l781 0 l0 -116 l-781 0 l0 -488 l-121 0 l0 488 l-776 0 l0 116 l776 0 l0 363 l-581 0 l0 115 Z" /><glyph glyph-name="cid27546" unicode="&#x4e32;&#xf905;" d="M520 711 l672 0 l0 202 l-559 0 l0 502 l559 0 l0 227 l123 0 l0 -227 l547 0 l0 -502 l-547 0 l0 -202 l663 0 l0 -549 l-663 0 l0 -367 l-123 0 l0 367 l-672 0 l0 549 ZM643 596 l0 -320 l549 0 l0 320 l-549 0 ZM1858 276 l0 320 l-543 0 l0 -320 l543 0 ZM752 1300 l0 -272 l440 0 l0 272 l-440 0 ZM1745 1028 l0 272 l-430 0 l0 -272 l430 0 Z" /><glyph glyph-name="cid27548" unicode="&#x4e34;" d="M1102 741 l903 0 l0 -837 l-903 0 l0 837 ZM778 -182 l0 1808 l123 0 l0 -1808 l-123 0 ZM991 907 q125 176 211.5 352 q86.5 176 143.5 392 l114 -31 q-37 -130 -74 -225 l676 0 l0 -113 l-721 0 q-99 -227 -254 -442 l-96 67 ZM1223 14 l274 0 l0 617 l-274 0 l0 -617 ZM1884 631 l-270 0 l0 -617 l270 0 l0 617 ZM471 25 l0 1380 l119 0 l0 -1380 l-119 0 ZM1837 803 q-175 151 -430 336 l66 84 q277 -197 436 -334 l-72 -86 Z" /><glyph glyph-name="cid27554" unicode="&#x4e39;&#xf95e;" d="M1270 -61 l229 0 q35 0 57.5 1.5 q22.5 1.5 39 10.5 q16.5 9 24 16 q7.5 7 12 29 q4.5 22 5 38.5 q0.5 16.5 1.5 55.5 l0 533 l-796 0 q-18 -264 -91.5 -462.5 q-73.5 -198.5 -232.5 -373.5 l-96 84 q144 159 210.5 331.5 q66.5 172.5 84.5 420.5 l-287 0 l0 114 l293 0 q2 53 2 168 l0 633 l1036 0 l0 -801 l252 0 l0 -114 l-252 0 l0 -555 q-1 -69 -8.5 -108.5 q-7.5 -39.5 -32 -73.5 q-24.5 -34 -73 -48 q-48.5 -14 -127.5 -14 l-224 0 l-26 115 ZM848 895 q0 -28 -1 -81 q-1 -53 -1 -77 l792 0 l0 690 l-790 0 l0 -532 ZM1331 844 q-129 185 -317 385 l82 80 q195 -206 331 -391 l-96 -74 Z" /><glyph glyph-name="cid27557" unicode="&#x4e3a;" d="M340 -98 q322 209 487.5 478 q165.5 269 221.5 664 l-619 0 l0 119 l633 0 q22 225 22 471 l134 0 q-6 -256 -27 -471 l690 0 q-7 -303 -24 -628.5 q-17 -325.5 -31 -464.5 q-12 -130 -73 -184.5 q-61 -54.5 -189 -59.5 l-273 0 l-24 119 l248 0 q103 0 139.5 29 q36.5 29 48.5 124 q11 97 26 411 q15 314 19 535 l-571 0 q-59 -449 -231 -736.5 q-172 -287.5 -525 -514.5 l-82 109 ZM1505 303 q-154 218 -319 391 l86 80 q207 -218 330 -397 l-97 -74 ZM829 1235 q-114 155 -260 291 l80 78 q146 -125 273 -289 l-93 -80 Z" /><glyph glyph-name="cid27559" unicode="&#x4e3b;" d="M1985 -129 l-1612 0 l0 117 l747 0 l0 600 l-583 0 l0 117 l583 0 l0 471 l-671 0 l4 116 l1454 0 l-2 -116 l-664 0 l0 -471 l582 0 l0 -117 l-582 0 l0 -600 l744 0 l0 -117 ZM1174 1309 q-68 149 -175 288 l105 66 q100 -140 186 -293 l-116 -61 Z" /><glyph glyph-name="cid27560" unicode="&#x4e3d;" d="M438 -184 l0 1390 l609 0 l0 -1167 q-3 -123 -48 -167 q-45 -44 -157 -44 l-129 0 l-21 113 l129 0 q59 0 72 6 q31 13 34 84 q1 9 1 20 l0 1041 l-371 0 l0 -1276 l-119 0 ZM1247 -184 l0 1390 l623 0 l0 -1157 q3 -125 -37 -174 q-40 -49 -137 -49 l-152 0 l-24 115 l135 0 q62 0 81 20 q19 20 19 94 l0 1037 l-391 0 l0 -1276 l-117 0 ZM328 1516 l1661 0 l0 -115 l-1661 0 l0 115 ZM1587 377 q-11 41 -25 84.5 q-14 43.5 -34.5 99 q-20.5 55.5 -31 83 q-10.5 27.5 -38.5 97.5 q-28 70 -33 82 l107 45 q103 -250 166 -454 l-111 -37 ZM766 377 q-71 217 -172 444 l98 45 q115 -251 180 -448 l-106 -41 Z" /><glyph glyph-name="cid27563" unicode="&#x4e3e;" d="M246 573 q173 89 312.5 216.5 q139.5 127.5 227.5 263.5 l-469 0 l0 114 l1061 0 q129 188 248 457 l113 -53 q-149 -283 -228 -404 l402 0 l0 -114 l-463 0 q93 -146 219.5 -258 q126.5 -112 323.5 -226 l-74 -114 q-400 246 -602 598 l-399 0 q-189 -346 -609 -586 l-63 106 ZM1053 938 l121 0 l0 -276 l415 0 l0 -115 l-415 0 l0 -275 l720 0 l0 -114 l-720 0 l0 -375 l-121 0 l0 375 l-715 0 l0 114 l715 0 l0 275 l-414 0 l0 115 l414 0 l0 276 ZM958 1589 l107 56 q33 -54 89.5 -166.5 q56.5 -112.5 84.5 -180.5 l-115 -49 q-20 57 -74.5 168.5 q-54.5 111.5 -91.5 171.5 ZM494 1513 l98 68 q38 -50 98.5 -145 q60.5 -95 97.5 -164 l-110 -62 q-35 71 -89 161.5 q-54 90.5 -95 141.5 Z" /><glyph glyph-name="cid27572" unicode="&#x4e45;" d="M348 743 q196 214 312.5 417 q116.5 203 216.5 485 l118 -35 q-62 -177 -98 -256 l629 0 l-2 -109 q-118 -386 -258 -622 q120 -225 310.5 -413.5 q190.5 -188.5 422.5 -291.5 l-66 -117 q-223 113 -421 302.5 q-198 189.5 -318 406.5 q-142 -207 -352 -381.5 q-210 -174.5 -514 -323.5 l-62 117 q154 79 284.5 165 q130.5 86 231.5 171 q101 85 185 180.5 q84 95.5 145 186 q61 90.5 113 196.5 q52 106 88.5 203 q36.5 97 70.5 213 l-540 0 q-162 -335 -408 -584 l-88 90 Z" /><glyph glyph-name="cid27576" unicode="&#x4e48;" d="M1407 510 l104 74 q210 -284 488 -699 l-109 -73 l-125 190 q-323 -35 -685.5 -57 q-362.5 -22 -657.5 -23 l-4 125 l112 0 q285 285 499.5 562.5 q214.5 277.5 408.5 617.5 l112 -72 q-212 -361 -414.5 -628 q-202.5 -267 -422.5 -476 q566 14 973 68 q-53 77 -279 391 ZM410 643 q245 239 417 474 q172 235 312 517 l114 -61 q-285 -571 -753 -1024 l-90 94 Z" /><glyph glyph-name="cid27577" unicode="&#x4e49;" d="M520 1432 l119 38 q114 -352 225.5 -586 q111.5 -234 270.5 -413 q162 183 268.5 423.5 q106.5 240.5 198.5 588.5 l129 -37 q-105 -374 -221.5 -628.5 q-116.5 -254.5 -282.5 -442.5 q271 -256 758 -449 l-56 -121 q-498 202 -790 480 q-150 -144 -352 -260 q-202 -116 -478 -218 l-51 117 q510 191 789 455 q-169 190 -288.5 438 q-119.5 248 -238.5 615 ZM915 1575 l111 49 q170 -364 229 -520 l-118 -45 q-93 248 -222 516 Z" /><glyph glyph-name="cid27579" unicode="&#x4e4b;" d="M438 1194 l0 115 l615 0 l0 323 l123 0 l0 -323 l622 0 l0 -97 q-88 -174 -255.5 -363.5 q-167.5 -189.5 -366 -355.5 q-198.5 -166 -420.5 -311 q128 -101 282 -142.5 q154 -41.5 430 -41.5 l514 0 l-8 -119 l-506 0 q-145 0 -247 9 q-102 9 -206.5 35 q-104.5 26 -196.5 76.5 q-92 50.5 -187 129.5 q-19 16 -37 -2 l-260 -293 l-92 82 q65 69 174.5 188.5 q109.5 119.5 134.5 145.5 q46 46 104 14 q351 229 618.5 476.5 q267.5 247.5 375.5 453.5 l-1211 0 Z" /><glyph glyph-name="cid27581" unicode="&#x4e4e;" d="M1100 141 l0 443 l-781 0 l0 116 l781 0 l0 689 q-328 -23 -662 -33 l-6 121 q957 37 1376 106 l27 -117 q-237 -39 -610 -69 l0 -697 l760 0 l0 -116 l-760 0 l0 -461 q2 -77 -5.5 -126 q-7.5 -49 -31 -89.5 q-23.5 -40.5 -69 -60 q-45.5 -19.5 -118.5 -21.5 l-276 0 l-18 117 l274 0 q24 0 41.5 5 q17.5 5 29.5 10.5 q12 5.5 20.5 20.5 q8.5 15 13 25.5 q4.5 10.5 7.5 37.5 q3 27 4 43.5 q1 16.5 3 55.5 ZM1415 881 q182 163 322 393 l102 -70 q-149 -244 -334 -407 l-90 84 ZM774 803 q-165 229 -305 371 l98 79 q179 -196 314 -370 l-107 -80 Z" /><glyph glyph-name="cid27582" unicode="&#x4e4f;" d="M1487 -129 q-145 0 -248 9 q-103 9 -209 35 q-106 26 -199.5 76.5 q-93.5 50.5 -187.5 129.5 q-19 16 -37 -2 l-260 -293 l-92 82 q65 69 174.5 188.5 q109.5 119.5 134.5 145.5 q42 42 94 20 q297 138 536 297.5 q239 159.5 376 329.5 l-1100 0 l0 115 l582 0 l0 280 l118 0 l0 -280 l564 0 l0 -123 q-151 -191 -411.5 -379 q-260.5 -188 -557.5 -326 q130 -101 288 -143.5 q158 -42.5 435 -42.5 l493 0 l-8 -119 l-485 0 ZM1788 1589 l27 -112 q-260 -56 -670.5 -95 q-410.5 -39 -749.5 -47 l-10 119 q368 11 750.5 46.5 q382.5 35.5 652.5 88.5 Z" /><glyph glyph-name="cid27584" unicode="&#x4e50;" d="M1851 803 l0 -117 l-632 0 l0 -618 q3 -142 -49 -193 q-52 -51 -199 -49 l-183 0 l-18 121 l203 0 q77 3 100 33 q23 30 23 116 l0 590 l-672 0 l117 787 q295 9 626.5 37.5 q331.5 28.5 548.5 64.5 l27 -113 q-176 -35 -497 -63 q-321 -28 -595 -41 l-84 -555 l529 0 l0 405 l123 0 l0 -405 l632 0 ZM1403 481 l98 80 q320 -353 461 -563 l-107 -78 q-63 93 -152.5 205.5 q-89.5 112.5 -142.5 174.5 q-53 62 -157 181 ZM274 35 q153 133 254 245.5 q101 112.5 197 266.5 l109 -72 q-89 -148 -214 -289.5 q-125 -141.5 -262 -246.5 l-84 96 Z" /><glyph glyph-name="cid27589" unicode="&#x4e54;" d="M1726 1464 q-215 -28 -505 -49 q-51 -207 -121 -352 l821 0 l0 -115 l-563 0 q208 -314 639 -471 l-47 -110 q-242 95 -413 229 q-171 134 -314 352 l-183 0 q-107 -182 -275 -314.5 q-168 -132.5 -437 -252.5 l-58 113 q229 95 381 206 q152 111 248 248 l-567 0 l0 115 l637 0 q73 139 121 344 q-258 -17 -566 -23 l-6 109 q674 18 1190 82 l18 -111 ZM791 625 l118 0 l0 -203 q-10 -219 -118.5 -368.5 q-108.5 -149.5 -319.5 -262.5 l-70 98 q135 77 215.5 151 q80.5 74 126 174 q45.5 100 48.5 232 l0 179 ZM1348 -205 l0 830 l118 0 l0 -830 l-118 0 Z" /><glyph glyph-name="cid27592" unicode="&#x4e58;" d="M1178 1214 l714 0 l0 -114 l-714 0 l0 -551 q147 -168 354 -306 q207 -138 448 -233 l-47 -114 q-221 83 -415.5 212.5 q-194.5 129.5 -339.5 284.5 l0 -596 l-121 0 l0 596 q-256 -290 -746 -502 l-53 113 q252 103 461 242.5 q209 139.5 338 306.5 l0 547 l-711 0 l0 114 l711 0 l0 236 q-229 -14 -557 -18 l-6 114 q711 10 1222 78 l19 -115 q-251 -34 -557 -53 l0 -242 ZM1888 549 l27 -117 q-110 -37 -285 -37 l-57 0 q-115 3 -156 56.5 q-41 53.5 -41 164.5 l0 406 l119 0 l0 -240 q174 62 311 154 l54 -102 q-126 -87 -365 -172 l0 -35 q0 -64 16 -89.5 q16 -25.5 70 -25.5 l41 0 q144 0 266 37 ZM369 883 l358 0 l0 139 l113 0 l0 -621 l-113 0 l0 123 q-124 -42 -365 -100 l-30 119 q248 49 395 100 l0 127 l-358 0 l0 113 Z" /><glyph glyph-name="cid27600" unicode="&#x4e5f;" d="M1071 1649 l121 0 l0 -453 l610 135 l-35 -692 q-8 -117 -57 -179.5 q-49 -62.5 -166 -62.5 l-190 0 l-19 119 l185 0 q39 0 64 11 q25 11 36.5 35.5 q11.5 24.5 15.5 48 q4 23.5 6 63.5 l23 500 l-473 -103 l0 -854 l-121 0 l0 830 l-385 -84 l0 -828 q0 -74 38.5 -109.5 q38.5 -35.5 104.5 -35.5 l385 0 q183 0 404 19 q221 19 364 59 l27 -123 q-131 -36 -372.5 -55 q-241.5 -19 -436.5 -19 l-377 0 q-124 0 -192 66 q-68 66 -68 188 l0 811 l-254 -53 l-26 112 l280 62 l0 360 l123 0 l0 -334 l385 86 l0 480 Z" /><glyph glyph-name="cid27601" unicode="&#x4e60;" d="M471 1479 l1395 0 q-3 -361 -15 -767 q-12 -406 -26 -571 q-5 -51 -14 -89.5 q-9 -38.5 -31.5 -79 q-22.5 -40.5 -57 -66.5 q-34.5 -26 -91.5 -42.5 q-57 -16.5 -134 -17.5 l-289 0 l-20 117 l291 0 q63 -1 104.5 10.5 q41.5 11.5 65.5 38 q24 26.5 35 59 q11 32.5 18 83.5 q46 820 35 1210 l-1266 0 l0 115 ZM397 248 q597 212 1043 506 l67 -103 q-189 -135 -481 -276 q-292 -141 -590 -248 l-39 121 ZM1114 772 q-244 197 -469 342 l70 103 q155 -97 479 -338 l-80 -107 Z" /><glyph glyph-name="cid2761" unicode="&#x4e66;" d="M926 1645 l123 0 l0 -304 l571 0 l-25 -548 l295 0 q-16 -436 -32 -586 q-10 -117 -56.5 -163.5 q-46.5 -46.5 -150.5 -49.5 l-283 0 l-22 119 l247 0 q31 0 45 1 q14 1 35 6.5 q21 5.5 30.5 17 q9.5 11.5 18.5 34.5 q9 23 13 57 q6 58 11.5 171 q5.5 113 7.5 196 l3 84 l-708 0 l0 -891 l-123 0 l0 891 l-570 0 l0 113 l570 0 l0 436 l-471 0 l0 112 l471 0 l0 304 ZM1489 1229 l-440 0 l0 -436 l421 0 l19 436 ZM1913 1253 q-165 144 -412 297 l66 90 q181 -104 418 -292 l-72 -95 Z" /><glyph glyph-name="cid2762" unicode="&#x4e70;" d="M416 442 l0 115 l790 0 q50 142 56 336 l0 401 l124 0 l0 -401 q0 -184 -47 -336 l570 0 l0 -115 l-613 0 q-105 -232 -332.5 -384.5 q-227.5 -152.5 -578.5 -250.5 l-45 119 q328 92 524.5 218.5 q196.5 126.5 290.5 297.5 l-739 0 ZM1757 1407 l-1349 0 l0 115 l1486 0 l0 -119 q-28 -73 -86.5 -186 q-58.5 -113 -103.5 -189 l-113 62 q117 193 166 317 ZM1280 221 l66 107 q374 -231 632 -422 l-73 -107 q-356 258 -625 422 ZM920 672 q-231 143 -398 223 l51 98 q127 -63 406 -223 l-59 -98 ZM1030 967 q-193 119 -377 213 l54 98 q109 -51 383 -213 l-60 -98 Z" /><glyph glyph-name="cid27620" unicode="&#x4e71;" d="M1200 1036 l-395 0 l0 340 q206 31 350 64 l-25 110 q-132 -31 -383.5 -66 q-251.5 -35 -408.5 -46 l10 -113 q106 7 342 37 l0 -326 l-395 0 l0 -110 l395 0 l0 -324 l-303 0 l0 -700 l721 0 l0 700 l-303 0 l0 324 l395 0 l0 110 ZM1997 47 l24 -119 q-132 -47 -356 -53 l-90 0 q-73 -1 -118 11.5 q-45 12.5 -67.5 44.5 q-22.5 32 -30 71 q-7.5 39 -7.5 104 l0 1530 l116 0 l0 -1515 q0 -30 1 -45.5 q1 -15.5 7.5 -35 q6.5 -19.5 19 -28 q12.5 -8.5 36 -14 q23.5 -5.5 59.5 -4.5 l62 0 q169 0 344 53 ZM991 494 l0 -486 l-487 0 l0 486 l487 0 Z" /><glyph glyph-name="cid27624" unicode="&#x4e73;" d="M332 397 q149 11 432 41 l0 174 l297 191 l-637 0 l0 108 l817 0 l0 -125 l-354 -235 l0 -98 q287 38 411 61 l25 -117 q-181 -30 -436 -61 l0 -287 q0 -57 -8.5 -93.5 q-8.5 -36.5 -31 -63.5 q-22.5 -27 -63.5 -37.5 q-41 -10.5 -106 -8.5 l-156 0 l-20 115 l155 0 q75 1 91 16.5 q16 15.5 16 79.5 l0 262 q-240 -26 -422 -40 l-10 118 ZM2038 47 l24 -119 q-140 -49 -342 -55 l-71 0 q-121 -1 -168 49 q-47 50 -47 170 l0 1530 l120 0 l0 -1516 q0 -63 22 -87.5 q22 -24.5 89 -24.5 l43 0 q155 0 330 53 ZM1280 1556 q-304 -46 -915 -69 l6 -125 q544 28 934 78 l-25 116 ZM1176 1350 q-23 -61 -80.5 -160 q-57.5 -99 -122.5 -180 l98 -64 q137 182 211 354 l-106 50 ZM713 1317 q67 -134 114 -270 l109 43 q-47 131 -121 272 l-102 -45 ZM426 1198 q93 -115 168 -235 l96 63 q-120 170 -174 236 l-90 -64 Z" /><glyph glyph-name="cid27651" unicode="&#x4e86;&#xf9ba;" d="M492 1468 l1437 0 l0 -110 l-629 -494 l0 -749 q-1 -61 -6 -98.5 q-5 -37.5 -20 -71.5 q-15 -34 -43 -51.5 q-28 -17.5 -74 -27.5 q-46 -10 -115 -9 l-225 0 l-20 114 l225 0 q41 0 60.5 0.5 q19.5 0.5 41 6.5 q21.5 6 28.5 14 q7 8 14.5 28.5 q7.5 20.5 9 44 q1.5 23.5 2.5 66.5 l0 793 l561 432 l-1247 0 l0 112 Z" /><glyph glyph-name="cid27653" unicode="&#x4e88;" d="M758 1174 l61 98 q62 -28 324 -156 q39 24 81 52 q42 28 73.5 50 q31.5 22 75.5 55.5 q44 33.5 66 50.5 q22 17 67.5 53 q45.5 36 58.5 46 l-1014 0 l0 117 l1198 0 l0 -113 q-203 -188 -481 -376 q73 -38 198 -107 l-43 -63 l533 0 l0 -125 q-42 -95 -106.5 -202 q-64.5 -107 -118.5 -177 l-109 65 q102 137 197 322 l-578 0 l0 -733 q-1 -114 -50 -160.5 q-49 -46.5 -159 -46.5 l-297 0 l-20 119 l284 0 q71 1 93 29.5 q22 28.5 22 90.5 l0 701 l-786 0 l0 117 l993 0 q-280 155 -563 293 Z" /><glyph glyph-name="cid27657" unicode="&#x4e8b;" d="M332 526 l764 0 l0 146 l-627 0 l0 110 l627 0 l0 123 l-547 0 l0 350 l547 0 l0 117 l-742 0 l0 109 l742 0 l0 159 l118 0 l0 -159 l744 0 l0 -109 l-744 0 l0 -117 l572 0 l0 -350 l-572 0 l0 -123 l613 0 l0 -256 l186 0 l0 -108 l-186 0 l0 -262 l-613 0 l0 -88 q-1 -58 -10 -97 q-9 -39 -33 -72.5 q-24 -33.5 -70.5 -50.5 q-46.5 -17 -117.5 -20 l-188 0 l-21 115 l191 0 q44 1 71 11 q27 10 39.5 32.5 q12.5 22.5 16 44.5 q3.5 22 4.5 61 l0 64 l-627 0 l0 110 l627 0 l0 152 l-764 0 l0 108 ZM1214 266 l492 0 l0 152 l-492 0 l0 -152 ZM1706 672 l-492 0 l0 -146 l492 0 l0 146 ZM1667 1014 l0 133 l-453 0 l0 -133 l453 0 ZM666 1147 l0 -133 l430 0 l0 133 l-430 0 Z" /><glyph glyph-name="cid2766" unicode="&#x4e8c;" d="M324 156 l1661 0 l0 -119 l-1661 0 l0 119 ZM475 1341 l1368 0 l0 -118 l-1368 0 l0 118 Z" /><glyph glyph-name="cid27661" unicode="&#x4e8e;" d="M324 840 l792 0 l0 530 l-622 0 l0 115 l1323 0 l0 -115 l-576 0 l0 -530 l746 0 l0 -119 l-746 0 l0 -629 q0 -145 -60 -203.5 q-60 -58.5 -198 -60.5 l-252 0 l-22 117 l256 0 q95 1 124 40 q29 39 27 130 l0 606 l-792 0 l0 119 Z" /><glyph glyph-name="cid27662" unicode="&#x4e8f;" d="M649 487 l88 437 l-422 0 l0 114 l1670 0 l0 -114 l-1115 0 l-63 -322 l913 0 q-33 -407 -45 -526 q-13 -140 -81 -197.5 q-68 -57.5 -212 -54.5 l-352 0 l-16 121 l338 0 q105 0 142 27.5 q37 27.5 52 125.5 q10 72 17.5 169.5 q7.5 97.5 9.5 158.5 l2 61 l-926 0 ZM487 1507 l1317 0 l0 -114 l-1317 0 l0 114 Z" /><glyph glyph-name="cid27664" unicode="&#x4e91;" d="M1855 -147 q-74 106 -120 167 q-250 -25 -646 -46.5 q-396 -21.5 -659 -24.5 l-6 127 l106 0 q134 152 264.5 346 q130.5 194 225.5 387 l-635 0 l0 117 l1600 0 l0 -117 l-811 0 q-95 -187 -224 -385 q-129 -198 -252 -346 q488 15 955 57 q-154 208 -285 369 l96 78 q243 -295 498 -654 l-107 -75 ZM1804 1378 l-1239 0 l0 115 l1239 0 l0 -115 Z" /><glyph glyph-name="cid27665" unicode="&#x4e92;" d="M580 362 l165 1035 l-376 0 l0 114 l1560 0 l0 -114 l-1061 0 l-51 -353 l877 0 l-86 -1054 l370 0 l0 -115 l-1667 0 l0 115 l1162 0 l30 372 l-923 0 ZM1552 930 l-751 0 l-68 -455 l780 0 l39 455 Z" /><glyph glyph-name="cid27667" unicode="&#x4e94;" d="M481 903 l412 0 l78 492 l-563 0 l0 114 l1472 0 l0 -114 l-780 0 l-76 -492 l647 0 l-41 -915 l355 0 l0 -115 l-1666 0 l0 115 l433 0 l125 800 l-396 0 l0 115 ZM1540 788 l-534 0 l-125 -800 l624 0 l35 800 Z" /><glyph glyph-name="cid27677" unicode="&#x4e9a;" d="M324 4 l565 0 l0 1397 l-461 0 l0 112 l1456 0 l0 -112 l-475 0 l0 -1397 l576 0 l0 -110 l-1661 0 l0 110 ZM1014 1401 l0 -1397 l270 0 l0 1397 l-270 0 ZM1917 1100 q-50 -181 -141 -393 q-91 -212 -179 -351 l-108 60 q184 292 317 719 l111 -35 ZM668 362 q-97 352 -260 736 l112 49 q143 -344 266 -744 l-118 -41 Z" /><glyph glyph-name="cid27678" unicode="&#x4e9b;" d="M825 1616 l119 0 l0 -356 l281 0 l0 -109 l-281 0 l0 -387 q136 23 283 57 l26 -114 q-295 -68 -891 -148 l-22 117 q54 5 184 22 l0 727 l113 0 l0 -710 q76 10 188 28 l0 873 ZM1946 756 l26 -117 q-158 -51 -370 -51 l-70 0 q-70 1 -114 16 q-44 15 -65.5 47.5 q-21.5 32.5 -28.5 72.5 q-7 40 -5 103 l0 791 l117 0 l0 -465 q249 127 411 262 l70 -98 q-187 -150 -481 -289 l0 -190 q3 -80 8 -94 q10 -28 56 -34 q13 -2 32 -3 l61 0 q79 0 180 13 q101 13 173 36 ZM1968 -92 l-1606 0 l0 115 l1606 0 l0 -115 ZM1759 297 l-1194 0 l0 117 l1194 0 l0 -117 Z" /><glyph glyph-name="cid27688" unicode="&#x4ea4;" d="M727 750 l111 53 q131 -276 309 -451 q193 184 297 445 l115 -41 q-116 -289 -318 -488 q136 -110 312 -192 q176 -82 427 -164 l-47 -117 q-249 78 -438.5 167.5 q-189.5 89.5 -347.5 221.5 q-153 -126 -347.5 -218.5 q-194.5 -92.5 -445.5 -172.5 l-51 115 q478 144 750 362 q-196 200 -326 480 ZM1083 1638 l119 0 l0 -274 l740 0 l0 -113 l-1604 0 l0 113 l745 0 l0 274 ZM1260 1106 l75 86 q308 -212 559 -442 l-77 -93 q-109 96 -181 157 q-72 61 -176 143 q-104 82 -200 149 ZM385 756 q354 195 543 426 l88 -80 q-235 -265 -561 -451 l-70 105 Z" /><glyph glyph-name="cid27690" unicode="&#x4ea6;" d="M360 1362 l721 0 l0 278 l123 0 l0 -278 l721 0 l0 -113 l-500 0 l0 -1163 q0 -147 -46.5 -195.5 q-46.5 -48.5 -186.5 -48.5 l-178 0 l-21 121 l199 0 q64 0 85 26 q21 26 21 97 l0 1163 l-307 0 l0 -202 q3 -272 -21 -459 q-24 -187 -88.5 -334.5 q-64.5 -147.5 -159.5 -254 q-95 -106.5 -251 -224.5 l-86 98 q80 59 143 115 q63 56 111.5 117 q48.5 61 84 120 q35.5 59 60.5 131 q25 72 40.5 141.5 q15.5 69.5 24.5 161.5 q9 92 12 180.5 q3 88.5 3 207.5 l0 202 l-504 0 l0 113 ZM1874 313 q-146 374 -297 627 l113 64 q165 -300 303 -633 l-119 -58 ZM311 391 q101 150 164 287 q63 137 113 313 l119 -37 q-45 -170 -121 -339 q-76 -169 -166 -293 l-109 69 Z" /><glyph glyph-name="cid27691" unicode="&#x4ea7;" d="M395 -219 l-104 72 q107 150 151.5 294.5 q44.5 144.5 44.5 323.5 l0 377 l805 0 q54 76 119.5 187.5 q65.5 111.5 104.5 193.5 l114 -58 q-91 -169 -198 -323 l538 0 l0 -113 l-1360 0 l0 -274 q-7 -200 -51 -355.5 q-44 -155.5 -164 -324.5 ZM379 1391 l735 0 l0 249 l115 0 l0 -249 l672 0 l0 -117 l-1522 0 l0 117 ZM903 866 q-72 133 -192 297 l96 64 q94 -120 199 -297 l-103 -64 Z" /><glyph glyph-name="cid27696" unicode="&#x4eab;" d="M279 205 l0 108 l811 0 l0 99 l452 157 l-1081 0 l0 109 l1290 0 l0 -119 l-534 -215 l0 -31 l745 0 l0 -108 l-745 0 l0 -133 q0 -55 -7.5 -93 q-7.5 -38 -29 -73.5 q-21.5 -35.5 -66 -54 q-44.5 -18.5 -113.5 -19.5 l-276 0 l-23 109 l279 0 q70 3 89.5 37.5 q19.5 34.5 19.5 111.5 l0 115 l-811 0 ZM1690 1198 l0 -385 l-1115 0 l0 385 l1115 0 ZM1067 1638 l119 0 l0 -198 l760 0 l0 -109 l-1629 0 l0 109 l750 0 l0 198 ZM1575 920 l0 174 l-883 0 l0 -174 l883 0 Z" /><glyph glyph-name="cid27697" unicode="&#x4eac;" d="M795 -45 l174 0 q90 0 117.5 27 q27.5 27 27.5 98 l0 485 l-524 0 l0 522 l1130 0 l0 -522 l-481 0 l0 -479 q0 -127 -46.5 -186.5 q-46.5 -59.5 -170.5 -59.5 l-207 0 l-20 115 ZM1597 676 l0 299 l-884 0 l0 -299 l884 0 ZM1094 1634 l125 0 l0 -239 l763 0 l0 -113 l-1654 0 l0 113 l766 0 l0 239 ZM1430 391 l90 84 q83 -78 217 -224.5 q134 -146.5 217 -250.5 l-103 -86 q-86 108 -208.5 247.5 q-122.5 139.5 -212.5 229.5 ZM350 20 q106 76 225.5 203.5 q119.5 127.5 196.5 243.5 l105 -76 q-83 -124 -200.5 -248.5 q-117.5 -124.5 -238.5 -220.5 l-88 98 Z" /><glyph glyph-name="cid27699" unicode="&#x4eae;&#xf977;" d="M1704 1214 l0 -366 l-1061 0 l0 366 l1061 0 ZM2032 0 l22 -117 q-152 -35 -342 -35 l-100 0 q-221 0 -221 213 l0 287 l-447 0 l0 -51 q0 -95 -27.5 -169.5 q-27.5 -74.5 -73.5 -126 q-46 -51.5 -119.5 -91 q-73.5 -39.5 -152.5 -64 q-79 -24.5 -186 -45.5 l-33 123 q94 17 159.5 35 q65.5 18 128 46 q62.5 28 99 65 q36.5 37 58.5 91.5 q22 54.5 22 125.5 l0 168 l697 0 l0 -385 q0 -46 29 -76.5 q29 -30.5 81 -30.5 l78 0 q176 0 328 37 ZM418 381 l0 338 l1511 0 l0 -338 l-127 0 l0 227 l-1259 0 l0 -227 l-125 0 ZM1106 1634 l125 0 l0 -180 l747 0 l0 -108 l-1609 0 l0 108 l737 0 l0 180 ZM1587 954 l0 154 l-825 0 l0 -154 l825 0 Z" /><glyph glyph-name="cid27701" unicode="&#x4eb2;" d="M434 571 l670 0 l0 246 l-758 0 l0 115 l959 0 q103 132 202 342 l113 -53 q-88 -173 -166 -289 l500 0 l0 -115 l-725 0 l0 -246 l643 0 l0 -114 l-643 0 l0 -418 q0 -116 -51 -163.5 q-51 -47.5 -181 -47.5 l-186 0 l-18 115 l190 0 q70 0 95.5 23.5 q25.5 23.5 25.5 86.5 l0 404 l-670 0 l0 114 ZM426 1432 l668 0 l0 204 l118 0 l0 -204 l668 0 l0 -115 l-1454 0 l0 115 ZM1446 274 l80 93 q282 -233 446 -404 l-90 -94 q-186 204 -436 405 ZM319 -16 q144 87 250 174 q106 87 213 209 l88 -82 q-95 -111 -227 -221 q-132 -110 -258 -181 l-66 101 ZM848 946 q-64 119 -170 254 l104 72 q101 -138 174 -260 l-108 -66 Z" /><glyph glyph-name="cid27711" unicode="&#x4eba;" d="M287 -100 q215 148 367 315.5 q152 167.5 242 355.5 q90 188 131 388 q41 200 42 436 l0 245 l127 0 l0 -303 q0 -13 -1 -37 q-1 -24 -1 -36 q61 -473 240.5 -789 q179.5 -316 543.5 -575 l-86 -113 q-316 231 -490.5 495 q-174.5 264 -254.5 609 q-155 -674 -780 -1096 l-80 105 Z" /><glyph glyph-name="cid27723" unicode="&#x4ec0;&#xf9fd;" d="M1300 1636 l127 0 l0 -665 l502 0 l0 -117 l-502 0 l0 -1051 l-127 0 l0 1051 l-512 0 l0 117 l512 0 l0 665 ZM188 674 q159 190 293 466.5 q134 276.5 187 506.5 l118 -31 q-47 -189 -139 -406 l0 -1415 l-123 0 l0 1159 q-133 -243 -248 -364 l-88 84 Z" /><glyph glyph-name="cid27733" unicode="&#x4ec5;" d="M979 1356 q96 -502 336 -850 q225 337 311 854 l-844 0 l0 117 l979 0 l2 -115 q-57 -308 -146 -542.5 q-89 -234.5 -220 -422.5 q217 -269 561 -485 l-72 -121 q-364 241 -575 498 q-214 -259 -592 -494 l-72 115 q367 211 584 483 q-264 370 -379 928 l127 35 ZM147 674 q159 190 293 466.5 q134 276.5 187 506.5 l118 -31 q-47 -189 -139 -406 l0 -1415 l-123 0 l0 1159 q-134 -246 -247 -364 l-89 84 Z" /><glyph glyph-name="cid2774" unicode="&#x4eca;" d="M1907 768 q-561 325 -822 760 q-126 -224 -334.5 -408.5 q-208.5 -184.5 -508.5 -347.5 l-62 111 q640 339 838 762 l133 0 q127 -233 340 -431.5 q213 -198.5 479 -332.5 l-63 -113 ZM451 657 l1196 0 l0 -106 q-166 -437 -523 -766 l-92 86 q172 153 296.5 334.5 q124.5 181.5 174.5 335.5 l-1052 0 l0 116 ZM887 1081 l94 76 q128 -139 274 -340 l-98 -74 q-123 173 -270 338 Z" /><glyph glyph-name="cid27743" unicode="&#x4ecb;" d="M1921 725 q-275 150 -465.5 343 q-190.5 193 -331.5 435 q-120 -227 -313.5 -417 q-193.5 -190 -488.5 -361 l-68 109 q280 150 474.5 346 q194.5 196 330.5 448 l127 0 q306 -528 803 -788 l-68 -115 ZM367 -96 q156 106 235 200 q79 94 109 205.5 q30 111.5 30 290.5 l0 289 l129 0 l0 -277 q0 -200 -35 -334.5 q-35 -134.5 -126.5 -251 q-91.5 -116.5 -259.5 -227.5 l-82 105 ZM1376 893 l127 0 l0 -1090 l-127 0 l0 1090 Z" /><glyph glyph-name="cid27756" unicode="&#x4ecd;" d="M692 -115 q139 142 218 296.5 q79 154.5 114.5 357 q35.5 202.5 34.5 495.5 l0 342 l-215 0 l0 115 l839 0 l-69 -596 l278 0 q-7 -224 -24 -466 q-17 -242 -31 -343 q-8 -62 -21.5 -104.5 q-13.5 -42.5 -40.5 -79.5 q-27 -37 -73.5 -56 q-46.5 -19 -114.5 -20 l-284 0 l-19 115 l275 0 q46 0 76 12 q30 12 46 38 q16 26 23 49.5 q7 23.5 12 61.5 q32 265 47 680 l-284 0 l71 594 l-368 0 l0 -358 q-5 -182 -15.5 -310 q-10.5 -128 -36 -260.5 q-25.5 -132.5 -68.5 -235.5 q-43 -103 -112 -206.5 q-69 -103.5 -168 -202.5 l-90 82 ZM197 674 q155 187 286 460.5 q131 273.5 193 512.5 l115 -27 q-50 -210 -152 -442 l0 -1383 l-119 0 l0 1139 q-123 -219 -237 -344 l-86 84 Z" /><glyph glyph-name="cid27758" unicode="&#x4ece;" d="M1341 1620 l121 0 l0 -375 l0 -51 q6 -148 20 -268.5 q14 -120.5 50 -264.5 q36 -144 92.5 -266 q56.5 -122 151.5 -253 q95 -131 223 -246 l-82 -95 q-382 348 -508 850 q-58 -257 -185.5 -456.5 q-127.5 -199.5 -344.5 -399.5 l-86 86 q149 131 248 260 q99 129 168.5 291 q69.5 162 100.5 359 q31 197 31 454 l0 375 ZM678 1620 l121 0 l0 -436 q0 -117 -13 -250 q280 -365 344 -473 l-102 -76 q-64 112 -262 385 q-91 -554 -444 -936 l-97 82 q453 459 453 1268 l0 436 Z" /><glyph glyph-name="cid27776" unicode="&#x4ed3;" d="M1491 819 l-758 0 l0 -694 q0 -73 37 -108 q37 -35 102 -35 l336 0 q398 0 668 77 l27 -118 q-133 -41 -327.5 -59.5 q-194.5 -18.5 -381.5 -18.5 l-328 0 q-137 0 -197.5 61.5 q-60.5 61.5 -60.5 192.5 l0 821 l1006 0 l-17 -446 q-2 -53 -12.5 -91.5 q-10.5 -38.5 -33 -70 q-22.5 -31.5 -62 -47.5 q-39.5 -16 -96.5 -17 l-332 0 l-21 119 l306 0 q77 0 103.5 18.5 q26.5 18.5 29.5 79.5 l12 336 ZM1917 807 q-298 162 -483 323.5 q-185 161.5 -312 380.5 q-114 -215 -295 -372.5 q-181 -157.5 -514 -343.5 l-63 106 q301 159 490 328.5 q189 169.5 317 406.5 l127 0 q132 -228 326.5 -400.5 q194.5 -172.5 471.5 -317.5 l-65 -111 Z" /><glyph glyph-name="cid27777" unicode="&#x4ed4;" d="M1313 86 l0 569 l-541 0 l0 117 l541 0 l0 219 q250 237 364 387 l-782 0 l0 113 l930 0 l0 -119 q-212 -273 -387 -428 l0 -172 l522 0 l0 -117 l-522 0 l0 -594 q-4 -132 -59 -182.5 q-55 -50.5 -181 -50.5 l-197 0 l-26 119 l207 0 q75 0 103 27.5 q28 27.5 28 111.5 ZM197 700 q81 96 158.5 223.5 q77.5 127.5 137.5 257.5 q60 130 103 238 q43 108 78 211 l117 -35 q-90 -243 -179 -436 l0 -1364 l-118 0 l0 1129 q-98 -176 -203 -303 l-94 79 Z" /><glyph glyph-name="cid27779" unicode="&#x4ed6;" d="M903 1493 l119 0 l0 -477 l254 96 l0 528 l115 0 l0 -485 l413 156 q2 -147 -2 -373.5 q-4 -226.5 -12 -327.5 q-8 -110 -53 -154.5 q-45 -44.5 -127 -47.5 l-109 0 l-20 118 l80 0 q54 0 80.5 17.5 q26.5 17.5 29.5 68.5 q13 230 10 525 l-290 -113 l0 -823 l-115 2 l0 778 l-254 -98 l0 -701 q0 -98 39 -149.5 q39 -51.5 139 -44.5 l103 0 q150 -3 318 20.5 q168 23.5 300 61.5 l29 -123 q-122 -41 -293 -60.5 q-171 -19.5 -328 -19.5 l-135 0 q-157 -4 -224 74.5 q-67 78.5 -67 216.5 l0 678 l-158 -60 l-40 121 l198 74 l0 522 ZM225 725 q144 185 261 435.5 q117 250.5 180 473.5 l118 -30 q-68 -229 -147 -412 l0 -1397 l-123 0 l0 1141 q-91 -172 -190 -291 l-99 80 Z" /><glyph glyph-name="cid27780" unicode="&#x4ed8;" d="M1520 1638 l120 0 l0 -432 l324 0 l0 -114 l-324 0 l0 -1035 q0 -117 -46.5 -172 q-46.5 -55 -157.5 -55 l-242 0 l-16 115 l223 0 q71 0 95 32.5 q24 32.5 24 106.5 l0 1008 l-742 0 l0 114 l742 0 l0 432 ZM205 676 q164 209 285.5 473 q121.5 264 179.5 504 l121 -31 q-42 -171 -134 -401 l0 -1426 l-118 0 l0 1168 q-126 -242 -240 -365 l-94 78 ZM1171 340 q-185 343 -286 473 l100 68 q163 -235 297 -473 l-111 -68 Z" /><glyph glyph-name="cid27810" unicode="&#x4ee3;" d="M1096 1638 l125 0 q0 -373 30 -643 l617 54 l10 -121 l-612 -54 q19 -127 41 -208 q35 -129 82 -232 q47 -103 118.5 -198.5 q71.5 -95.5 173.5 -174.5 q102 -79 236 -143 l-64 -119 q-287 153 -439.5 353 q-152.5 200 -223.5 477 q-25 96 -49 235 l-396 -35 l-12 121 l391 33 q-28 229 -28 655 ZM188 686 q169 186 307 456 q138 270 199 505 l119 -35 q-65 -226 -160 -428 l0 -1389 l-123 0 l0 1155 q-122 -210 -249 -346 l-93 82 ZM1661 1149 q-89 98 -149.5 157 q-60.5 59 -151.5 136 l80 86 q165 -133 309 -289 l-88 -90 Z" /><glyph glyph-name="cid27811" unicode="&#x4ee4;&#xf9a8;" d="M659 223 l60 105 q197 -97 391 -197 q124 99 257.5 242.5 q133.5 143.5 195.5 242.5 l-1069 0 l0 121 l1228 0 l0 -110 q-54 -106 -207.5 -280.5 q-153.5 -174.5 -283.5 -278.5 q228 -122 336 -189 l-70 -104 q-130 82 -409.5 230.5 q-279.5 148.5 -428.5 217.5 ZM1894 737 q-471 342 -780 787 q-260 -432 -801 -781 l-75 101 q260 167 470.5 376.5 q210.5 209.5 340.5 428.5 l135 0 q129 -213 341.5 -426 q212.5 -213 448.5 -379 l-80 -107 ZM954 1114 l90 78 q41 -44 124 -144.5 q83 -100.5 141 -175.5 l-97 -77 q-39 57 -127.5 167 q-88.5 110 -130.5 152 Z" /><glyph glyph-name="cid27813" unicode="&#x4ee5;" d="M850 -88 q98 59 179 119.5 q81 60.5 144 117.5 q63 57 113.5 120.5 q50.5 63.5 86.5 121 q36 57.5 63.5 127 q27.5 69.5 44.5 130 q17 60.5 29.5 139 q12.5 78.5 19 145 q6.5 66.5 12.5 155.5 l21 492 l129 -2 q-9 -346 -19 -504 q-13 -182 -35 -316.5 q-22 -134.5 -63 -252.5 q317 -366 461 -557 l-107 -88 q-164 221 -409 520 q-79 -156 -222 -296.5 q-143 -140.5 -376 -287.5 l-72 117 ZM373 119 q58 27 119 61 l0 1323 l124 0 l0 -1251 q274 159 474 321 l71 -98 q-144 -116 -348 -247 q-204 -131 -375 -218 l-65 109 ZM817 1522 l111 61 q146 -216 323 -604 l-125 -55 q-50 134 -139 306.5 q-89 172.5 -170 291.5 Z" /><glyph glyph-name="cid27822" unicode="&#x4eec;" d="M1223 1503 l649 0 l0 -1460 q-6 -122 -61 -168 q-55 -46 -169 -49 l-182 0 l-20 115 l184 0 q62 0 93 25 q31 25 32 89 l0 1334 l-526 0 l0 114 ZM193 774 q139 182 262.5 421 q123.5 239 185.5 443 l115 -32 q-66 -194 -154 -387 l0 -1424 l-119 0 l0 1192 q-95 -169 -198 -299 l-92 86 ZM858 1221 l119 0 l0 -1428 l-119 0 l0 1428 ZM1075 1239 q-101 158 -227 299 l86 72 q135 -149 240 -299 l-99 -72 Z" /><glyph glyph-name="cid27834" unicode="&#x4ef6;" d="M1300 1630 l125 0 l0 -395 l451 0 l0 -117 l-451 0 l0 -575 l529 0 l0 -117 l-529 0 l0 -635 l-125 0 l0 635 l-563 0 l0 117 l563 0 l0 575 l-337 0 q-52 -170 -142 -342 l-119 55 q89 156 140 310.5 q51 154.5 100 392.5 l119 -25 q-33 -157 -64 -274 l303 0 l0 395 ZM160 721 q255 327 430 909 l117 -35 q-57 -189 -129 -370 l0 -1430 l-123 0 l0 1161 q-93 -182 -199 -321 l-96 86 Z" /><glyph glyph-name="cid27835" unicode="&#x4ef7;" d="M160 713 q156 189 277.5 437.5 q121.5 248.5 178.5 473.5 l113 -31 q-54 -198 -158 -434 l0 -1364 l-118 0 l0 1131 q-93 -165 -199 -295 l-94 82 ZM641 881 q185 119 348.5 322 q163.5 203 241.5 405 l127 0 q102 -233 236.5 -407 q134.5 -174 349.5 -316 l-72 -105 q-197 136 -346.5 320 q-149.5 184 -227.5 373 q-73 -176 -236 -373 q-163 -197 -349 -322 l-72 103 ZM664 -102 q71 59 123.5 116.5 q52.5 57.5 86 116 q33.5 58.5 54 110.5 q20.5 52 30 117 q9.5 65 12.5 116 q3 51 3 126 l0 289 l125 0 l0 -277 q0 -83 -4.5 -148 q-4.5 -65 -17.5 -138 q-13 -73 -37.5 -136 q-24.5 -63 -62.5 -128.5 q-38 -65.5 -95 -129.5 q-57 -64 -133 -127 l-84 93 ZM1477 893 l122 0 l0 -1094 l-122 0 l0 1094 Z" /><glyph glyph-name="cid27839" unicode="&#x4efb;" d="M872 -10 l484 0 l0 696 l-522 0 l0 115 l522 0 l0 551 q-303 -26 -463 -33 l-12 117 q258 10 537 41.5 q279 31.5 476 70.5 l23 -114 q-138 -38 -438 -68 l0 -565 l512 0 l0 -115 l-512 0 l0 -696 l481 0 l0 -115 l-1088 0 l0 115 ZM369 625 l-95 82 q140 184 254.5 442 q114.5 258 180.5 493 l116 -28 q-61 -226 -157 -451 l0 -1368 l-119 0 l0 1114 q-87 -170 -180 -284 Z" /><glyph glyph-name="cid27840" unicode="&#x4efd;" d="M1243 -45 l213 0 q41 0 61.5 2 q20.5 2 41 8.5 q20.5 6.5 29 22 q8.5 15.5 15 39.5 q6.5 24 9.5 65 q7 95 20 627 l-383 0 q-8 -102 -18.5 -179 q-10.5 -77 -30 -166.5 q-19.5 -89.5 -51 -162 q-31.5 -72.5 -76.5 -146.5 q-45 -74 -111 -140 q-66 -66 -151 -124 l-80 99 q79 54 140 113.5 q61 59.5 102.5 125 q41.5 65.5 69.5 130.5 q28 65 45 143 q17 78 25.5 148 q8.5 70 12.5 159 l-241 0 l0 115 l876 0 q-12 -548 -26 -764 q-4 -72 -21 -117.5 q-17 -45.5 -50 -70 q-33 -24.5 -74.5 -33.5 q-41.5 -9 -104.5 -9 l-219 0 l-23 115 ZM209 674 q156 187 287.5 459.5 q131.5 272.5 193.5 511.5 l117 -29 q-57 -208 -154 -434 l0 -1387 l-118 0 l0 1143 q-115 -213 -238 -348 l-88 84 ZM1882 762 q-164 175 -289 390 q-125 215 -188 441 l111 33 q136 -428 456 -780 l-90 -84 ZM1266 1581 q-72 -264 -180 -461.5 q-108 -197.5 -281 -359.5 l-86 88 q168 166 270 349 q102 183 160 413 l117 -29 Z" /><glyph glyph-name="cid27842" unicode="&#x4eff;" d="M721 -109 q109 99 185 219.5 q76 120.5 116.5 252 q40.5 131.5 57.5 258 q17 126.5 18 270.5 l0 340 l-273 0 l0 115 l508 0 l0 290 l119 0 l0 -290 l516 0 l0 -115 l-749 0 l0 -352 l616 0 q-16 -608 -43 -848 q-9 -84 -32 -125.5 q-23 -41.5 -76 -60.5 q-53 -19 -156 -19 l-232 0 l-22 117 l235 0 q37 0 53.5 0.5 q16.5 0.5 38 4 q21.5 3.5 29.5 10 q8 6.5 18 20.5 q10 14 14.5 32.5 q4.5 18.5 8.5 48.5 q27 208 35 705 l-489 0 q-13 -279 -107 -518.5 q-94 -239.5 -301 -440.5 l-88 86 ZM233 711 q91 109 164.5 227.5 q73.5 118.5 126 242 q52.5 123.5 88 229.5 q35.5 106 70.5 235 l119 -31 q-76 -254 -144 -422 l0 -1397 l-118 0 l0 1149 q-92 -170 -220 -319 l-86 86 Z" /><glyph glyph-name="cid27844" unicode="&#x4f01;" d="M633 799 l119 0 l0 -793 l352 0 l0 1077 l125 0 l0 -419 l532 0 l0 -113 l-532 0 l0 -545 l694 0 l0 -117 l-1604 0 l0 117 l314 0 l0 793 ZM1927 821 q-241 112 -443 298 q-202 186 -345 407 q-69 -107 -141.5 -197.5 q-72.5 -90.5 -168 -184.5 q-95.5 -94 -217 -179 q-121.5 -85 -264.5 -156 l-61 111 q135 65 252.5 147.5 q117.5 82.5 213.5 178 q96 95.5 172.5 193 q76.5 97.5 147.5 212.5 l131 0 q137 -230 339.5 -415.5 q202.5 -185.5 447.5 -297.5 l-64 -117 Z" /><glyph glyph-name="cid27855" unicode="&#x4f0a;" d="M662 934 l0 113 l456 0 l0 346 l-327 0 l0 114 l974 0 l0 -460 l168 0 l0 -113 l-168 0 l0 -473 l-573 0 q-101 -404 -451 -684 l-82 96 q170 128 266 273 q96 145 140 315 l-338 0 l0 114 l360 0 q25 154 31 359 l-456 0 ZM152 725 q146 186 265 436.5 q119 250.5 181 472.5 l121 -30 q-56 -193 -154 -420 l0 -1389 l-121 0 l0 1143 q-103 -189 -194 -293 l-98 80 ZM1214 575 l428 0 l0 359 l-401 0 q-4 -218 -27 -359 ZM1642 1393 l-401 0 l0 -346 l401 0 l0 346 Z" /><glyph glyph-name="cid2786" unicode="&#x4f0f;" d="M1397 1640 l0 -464 l-4 -78 l491 0 l0 -117 l-473 0 q58 -371 191 -643 q133 -272 364 -453 l-82 -92 q-201 157 -340 400 q-139 243 -198 536 q-59 -289 -193 -516 q-134 -227 -362 -418 l-89 94 q264 233 394 486.5 q130 253.5 164 605.5 l-447 0 l0 117 l457 0 l4 92 l0 450 l123 0 ZM209 674 q154 186 282 458 q128 272 191 515 l111 -25 q-54 -199 -148 -434 l0 -1393 l-119 0 l0 1139 q-116 -217 -231 -344 l-86 84 ZM1679 1196 q-72 127 -200 281 l90 67 q107 -130 207 -287 l-97 -61 Z" /><glyph glyph-name="cid27861" unicode="&#x4f11;" d="M1241 -205 l0 1180 l-18 -68 q-49 -195 -187 -427 q-138 -232 -315 -402 l-86 90 q405 411 553 952 l-463 0 l0 115 l516 0 l0 405 l119 0 l0 -405 l516 0 l0 -115 l-473 0 q80 -269 215.5 -499.5 q135.5 -230.5 345.5 -438.5 l-94 -96 q-151 151 -298.5 388 q-147.5 237 -195.5 433 l-16 62 l0 -1174 l-119 0 ZM188 721 q263 337 435 909 l108 -31 q-59 -194 -129 -366 l0 -1432 l-121 0 l0 1172 q-96 -188 -205 -330 l-88 78 Z" /><glyph glyph-name="cid27868" unicode="&#x4f17;" d="M1915 811 q-243 113 -443.5 294 q-200.5 181 -341.5 400 q-141 -219 -328 -393.5 q-187 -174.5 -464 -312.5 l-64 110 q264 127 455 307.5 q191 180.5 336 413.5 l127 0 q135 -227 336.5 -408 q201.5 -181 449.5 -294 l-63 -117 ZM1362 762 l4 39 q6 85 6 190 l125 -6 l-12 -190 l-8 -93 q41 -247 161 -437 q120 -190 347 -349 l-80 -106 q-354 256 -480 641 q-54 -184 -169 -337.5 q-115 -153.5 -320 -314.5 l-76 97 q138 104 230.5 203 q92.5 99 148.5 204.5 q56 105.5 83.5 210 q27.5 104.5 39.5 240.5 l0 8 ZM266 -86 q155 150 244.5 286 q89.5 136 130.5 277 q41 141 55 336 l9 178 l126 -10 q0 -22 -4.5 -90 q-4.5 -68 -7.5 -88 q-8 -86 -14 -127 q131 -148 309 -385 l-96 -84 q-91 139 -240 319 q-46 -199 -146 -366.5 q-100 -167.5 -278 -335.5 l-88 90 Z" /><glyph glyph-name="cid2787" unicode="&#x4f18;" d="M733 1161 l404 0 q0 10 1 31 q1 21 1 31 l0 417 l123 0 l0 -430 l0 -49 l626 0 l0 -112 l-631 0 q-8 -190 -37.5 -354.5 q-29.5 -164.5 -87.5 -323 q-58 -158.5 -152 -302 q-94 -143.5 -224 -270.5 l-90 88 q122 122 210 257.5 q88 135.5 141.5 282.5 q53.5 147 81 297 q27.5 150 36.5 325 l-402 0 l0 112 ZM197 719 q287 360 440 917 l119 -30 q-73 -248 -144 -428 l0 -1379 l-123 0 l0 1125 q-83 -144 -200 -291 l-92 86 ZM1944 27 l26 -117 q-59 -20 -168 -36.5 q-109 -16.5 -176 -16.5 l-72 0 q-56 0 -93 9 q-37 9 -67.5 33.5 q-30.5 24.5 -44.5 71.5 q-14 47 -14 119 l0 828 l123 0 l0 -832 q0 -61 21.5 -86 q21.5 -25 74.5 -25 l74 0 q58 0 156 16 q98 16 160 36 ZM1438 1507 l88 74 q15 -18 56 -66.5 q41 -48.5 66 -78 q25 -29.5 59 -72.5 q34 -43 58 -78 l-92 -76 q-108 163 -235 297 Z" /><glyph glyph-name="cid27872" unicode="&#x4f1a;" d="M465 -6 q15 1 44 1 q29 0 44 1 q204 195 410 510 l-566 0 l0 115 l1483 0 l0 -115 l-762 0 q-113 -166 -203.5 -286.5 q-90.5 -120.5 -185.5 -219.5 q435 7 817 33 q-137 158 -231 252 l88 82 q217 -207 440 -490 l-102 -78 l-105 129 q-676 -44 -1163 -51 l-8 117 ZM1929 852 q-263 122 -463 292 q-200 170 -329 372 q-247 -388 -797 -676 l-53 110 q531 267 790 690 l117 0 q127 -203 330 -380.5 q203 -177.5 461 -294.5 l-56 -113 ZM1575 895 l-877 0 l0 113 l877 0 l0 -113 Z" /><glyph glyph-name="cid27879" unicode="&#x4f1f;" d="M1223 -205 l0 709 l-492 0 l0 114 l492 0 l0 279 l-377 0 l0 115 l377 0 l0 258 l-445 0 l0 114 l445 0 l0 246 l125 0 l0 -246 l544 0 l0 -114 l-544 0 l0 -258 l450 0 l0 -115 l-450 0 l0 -279 l505 0 q-8 -273 -18 -417 q-10 -116 -58.5 -156.5 q-48.5 -40.5 -142.5 -40.5 l-155 0 l-17 115 l148 0 q60 0 79 21 q19 21 27 91 q10 137 10 273 l-378 0 l0 -709 l-125 0 ZM197 700 q144 185 261 437.5 q117 252.5 189 492.5 l117 -35 q-57 -191 -146 -399 l0 -1401 l-122 0 l0 1143 q-115 -211 -203 -324 l-96 86 Z" /><glyph glyph-name="cid2788" unicode="&#x4f20;" d="M725 965 l324 0 q60 195 84 278 l-308 0 l0 111 l340 0 q46 178 72 284 l119 -14 l-66 -270 l559 0 l0 -111 l-589 0 q-22 -86 -80 -278 l739 0 l0 -113 l-774 0 l-82 -254 l717 0 l0 -113 q-128 -254 -285 -446 q158 -76 281 -143 l-64 -109 q-486 263 -792 387 l53 109 q181 -78 407 -187 q183 227 256 389 l-708 0 l0 111 l84 256 l-287 0 l0 113 ZM184 739 q266 327 455 906 l115 -37 q-67 -202 -150 -389 l0 -1424 l-119 0 l0 1184 q-110 -201 -209 -322 l-92 82 Z" /><glyph glyph-name="cid27885" unicode="&#x4f24;" d="M1272 -59 l241 0 q75 0 102.5 26.5 q27.5 26.5 37.5 116.5 q18 193 37 627 l-398 0 q-27 -305 -148 -523 q-121 -218 -347 -397 l-86 92 q145 126 234.5 237 q89.5 111 148 258.5 q58.5 147.5 73.5 332.5 l-379 0 l0 114 l386 0 q6 210 6 285 l125 0 q0 -127 -7 -285 l514 0 q-11 -405 -36 -757 q-10 -132 -64.5 -188 q-54.5 -56 -165.5 -54 l-254 0 l-20 115 ZM164 682 q155 186 277 452.5 q122 266.5 177 505.5 l119 -26 q-48 -201 -143 -432 l0 -1387 l-121 0 l0 1133 q-110 -198 -221 -324 l-88 78 ZM711 991 q229 277 352 643 l119 -32 q-41 -123 -95 -238 l818 0 l0 -117 l-875 0 q-98 -182 -227 -336 l-92 80 Z" /><glyph glyph-name="cid27887" unicode="&#x4f26;" d="M1833 41 l37 -117 q-213 -67 -492 -67 l-211 0 q-109 0 -154.5 54 q-45.5 54 -45.5 161 l0 897 l123 0 l0 -465 q158 71 289 150.5 q131 79.5 272 195.5 l80 -102 q-329 -243 -641 -383 l0 -283 q0 -60 22 -85.5 q22 -25.5 66 -25.5 l192 0 q237 0 463 70 ZM164 674 q159 190 292.5 466.5 q133.5 276.5 186.5 506.5 l119 -31 q-51 -203 -148 -426 l0 -1395 l-122 0 l0 1145 q-125 -229 -240 -350 l-88 84 ZM686 909 q181 116 332 303.5 q151 187.5 242 395.5 l126 0 q194 -445 582 -690 l-72 -113 q-192 128 -343.5 306.5 q-151.5 178.5 -227.5 361.5 q-90 -193 -235.5 -368 q-145.5 -175 -331.5 -300 l-72 104 Z" /><glyph glyph-name="cid27892" unicode="&#x4f2a;" d="M672 -113 q264 231 391 510 q127 279 147 668 l-422 0 l0 115 l426 0 l0 456 l121 0 l0 -456 l553 0 q-4 -90 -11.5 -308 q-7.5 -218 -12 -336 q-4.5 -118 -13.5 -258.5 q-9 -140.5 -18 -209.5 q-20 -140 -77.5 -190.5 q-57.5 -50.5 -201.5 -51.5 l-202 0 l-21 113 l215 0 q50 0 80.5 7.5 q30.5 7.5 48.5 28 q18 20.5 26 47.5 q8 27 15 76 q22 284 45 967 l-428 0 q-19 -419 -156.5 -725 q-137.5 -306 -416.5 -545 l-88 92 ZM233 729 q280 350 433 907 l114 -30 q-81 -270 -137 -412 l0 -1395 l-119 0 l0 1145 q-96 -164 -200 -291 l-91 76 ZM1573 348 q-93 159 -230 342 l91 70 q126 -159 235 -348 l-96 -64 ZM1036 1237 q-92 138 -209 270 l86 72 q111 -125 215 -270 l-92 -72 Z" /><glyph glyph-name="cid27898" unicode="&#x4f30;" d="M745 1262 l523 0 l0 376 l123 0 l0 -376 l528 0 l0 -117 l-528 0 l0 -410 l387 0 l0 -874 l-899 0 l0 874 l389 0 l0 410 l-523 0 l0 117 ZM1004 621 l0 -644 l647 0 l0 644 l-647 0 ZM180 748 q267 327 453 899 l117 -31 q-69 -202 -148 -383 l0 -1438 l-123 0 l0 1188 q-105 -190 -207 -317 l-92 82 Z" /><glyph glyph-name="cid27900" unicode="&#x4f34;" d="M795 942 l473 0 l0 700 l123 0 l0 -700 l477 0 l0 -115 l-477 0 l0 -366 l567 0 l0 -115 l-567 0 l0 -543 l-123 0 l0 543 l-553 0 l0 115 l553 0 l0 366 l-473 0 l0 115 ZM184 748 q151 193 263 426.5 q112 233.5 178 472.5 l118 -31 q-52 -188 -131 -379 l0 -1442 l-120 0 l0 1192 q-95 -174 -207 -315 l-101 76 ZM1505 1112 q128 179 221 401 l105 -49 q-37 -100 -98.5 -213.5 q-61.5 -113.5 -126.5 -199.5 l-101 61 ZM817 1446 l105 57 q124 -193 211 -391 l-109 -57 q-110 241 -207 391 Z" /><glyph glyph-name="cid27910" unicode="&#x4f3c;" d="M991 -100 q119 76 210.5 154.5 q91.5 78.5 153.5 148.5 q62 70 105.5 160 q43.5 90 68 159 q24.5 69 39 176.5 q14.5 107.5 19 182 q4.5 74.5 8.5 204.5 l0 506 l123 0 l0 -516 q-2 -214 -22 -372.5 q-20 -158.5 -72 -294.5 q46 -62 127.5 -169 q81.5 -107 137 -183 q55.5 -76 106.5 -150 l-105 -84 q-183 276 -327 459 q-146 -261 -498 -490 l-74 109 ZM233 721 q132 181 241.5 441 q109.5 260 154.5 476 l114 -26 q-39 -171 -110 -367 l0 -1450 l-123 0 l0 1159 q-87 -179 -174 -307 l-103 74 ZM782 197 q15 9 40 24.5 q25 15.5 45.5 28 q20.5 12.5 37.5 24.5 l0 1100 l123 0 l0 -1014 q130 99 266 232 l82 -96 q-203 -208 -518 -408 l-76 109 ZM1071 1556 l100 68 q149 -217 273 -450 l-113 -64 q-135 266 -260 446 Z" /><glyph glyph-name="cid2792" unicode="&#x4f46;" d="M887 1507 l895 0 l0 -1192 l-895 0 l0 1192 ZM164 700 q155 186 277 453 q122 267 177 506 l121 -31 q-50 -206 -145 -434 l0 -1399 l-123 0 l0 1141 q-121 -216 -219 -320 l-88 84 ZM1012 430 l645 0 l0 438 l-645 0 l0 -438 ZM1012 1393 l0 -410 l645 0 l0 410 l-645 0 ZM1946 -94 l-1225 0 l0 117 l1225 0 l0 -117 Z" /><glyph glyph-name="cid27929" unicode="&#x4f4d;" d="M197 725 q139 187 259.5 442 q120.5 255 180.5 471 l119 -30 q-56 -181 -144 -398 l0 -1415 l-120 0 l0 1159 q-94 -181 -197 -313 l-98 84 ZM1937 -98 l-1226 0 l0 116 l604 0 q176 411 309 1043 l129 -29 q-128 -586 -305 -1014 l489 0 l0 -116 ZM1884 1204 l-1106 0 l0 117 l494 0 l0 317 l119 0 l0 -317 l493 0 l0 -117 ZM1114 205 q-13 50 -48.5 183 q-35.5 133 -55.5 206 q-20 73 -54.5 191 q-34.5 118 -68.5 225 l112 37 q129 -381 232 -807 l-117 -35 Z" /><glyph glyph-name="cid2793" unicode="&#x4f4e;" d="M834 -98 q130 62 284.5 157 q154.5 95 265.5 179 l-67 98 q-148 -116 -346 -225 l0 649 l422 0 q21 -148 52 -268.5 q31 -120.5 83.5 -244.5 q52.5 -124 136 -235.5 q83.5 -111.5 197.5 -208.5 l88 103 q-107 85 -183.5 181 q-76.5 96 -125 206.5 q-48.5 110.5 -76.5 218.5 q-28 108 -49 248 l374 0 l0 114 l-389 0 l-8 78 q-25 256 -33 426 q195 25 367 62 l-25 112 q-437 -80 -954 -106 l0 -1401 q-43 -20 -74 -33 l60 -110 ZM152 725 q146 186 265 436.5 q119 250.5 181 472.5 l121 -30 q-56 -191 -152 -414 l0 -1395 l-123 0 l0 1143 q-103 -189 -194 -293 l-98 80 ZM971 1335 q181 7 366 29 q8 -194 35 -432 l6 -58 l-407 0 l0 461 ZM1403 -203 q-161 185 -207 226 l82 81 q157 -157 213 -225 l-88 -82 Z" /><glyph glyph-name="cid27930" unicode="&#x4f4f;" d="M819 1309 l1088 0 l0 -113 l-488 0 l0 -473 l432 0 l0 -113 l-432 0 l0 -622 l541 0 l0 -115 l-1192 0 l0 115 l532 0 l0 622 l-438 0 l0 113 l438 0 l0 473 l-481 0 l0 113 ZM197 674 q158 191 292 467.5 q134 276.5 187 505.5 l119 -31 q-43 -178 -146 -420 l0 -1401 l-119 0 l0 1157 q-138 -248 -247 -362 l-86 84 ZM1352 1331 q-49 120 -160 281 l102 61 q7 -12 31.5 -50.5 q24.5 -38.5 35.5 -57 q11 -18.5 30.5 -51 q19.5 -32.5 35.5 -63 q16 -30.5 31 -62.5 l-106 -58 Z" /><glyph glyph-name="cid27936" unicode="&#x4f53;" d="M883 291 l331 0 l0 698 q-44 -191 -195 -429.5 q-151 -238.5 -317 -403.5 l-100 90 q187 174 333.5 403.5 q146.5 229.5 235.5 499.5 l-458 0 l0 113 l501 0 l0 372 l117 0 l0 -372 l512 0 l0 -113 l-471 0 q88 -275 233 -506 q145 -231 328 -397 l-94 -101 q-166 167 -312 406.5 q-146 239.5 -190 419.5 l-6 26 l0 -706 l338 0 l0 -115 l-338 0 l0 -381 l-117 0 l0 381 l-331 0 l0 115 ZM152 725 q146 186 265 436.5 q119 250.5 181 472.5 l121 -30 q-56 -193 -154 -420 l0 -1389 l-121 0 l0 1143 q-103 -189 -194 -293 l-98 80 Z" /><glyph glyph-name="cid2794" unicode="&#x4f55;" d="M1407 1075 l0 -815 l-561 0 l0 815 l561 0 ZM776 1477 l1149 0 l0 -113 l-176 0 l0 -1296 q-1 -63 -11 -104.5 q-10 -41.5 -35.5 -73.5 q-25.5 -32 -72 -47.5 q-46.5 -15.5 -117.5 -16.5 l-227 0 l-22 115 l233 0 q81 1 105 32.5 q24 31.5 24 102.5 l0 1288 l-850 0 l0 113 ZM184 717 q134 181 254 443 q120 262 178 482 l119 -30 q-56 -189 -129 -369 l0 -1448 l-123 0 l0 1180 q-111 -209 -207 -338 l-92 80 ZM965 963 l0 -592 l323 0 l0 592 l-323 0 Z" /><glyph glyph-name="cid27943" unicode="&#x4f59;" d="M375 662 l690 0 l0 276 l-383 0 l0 115 l866 0 l0 -115 l-354 0 l0 -276 l653 0 l0 -117 l-653 0 l0 -459 q0 -126 -48 -186 q-48 -60 -173 -60 l-185 0 l-18 115 l150 0 q90 0 117.5 27 q27.5 27 27.5 98 l0 465 l-690 0 l0 117 ZM1925 874 q-256 112 -465.5 279 q-209.5 167 -343.5 373 q-140 -201 -335.5 -362 q-195.5 -161 -485.5 -304 l-57 107 q273 129 471.5 298.5 q198.5 169.5 343.5 387.5 l123 0 q140 -218 347.5 -389 q207.5 -171 461.5 -279 l-60 -111 ZM1380 371 l93 88 q88 -80 222 -222 q134 -142 216 -247 l-103 -90 q-89 109 -213 246.5 q-124 137.5 -215 224.5 ZM299 12 q108 70 231 192.5 q123 122.5 207 235.5 l97 -78 q-81 -118 -201.5 -237 q-120.5 -119 -249.5 -215 l-84 102 Z" /><glyph glyph-name="cid27945" unicode="&#x4f5b;" d="M758 457 l37 512 l272 0 l0 270 l-303 0 l0 109 l303 0 l0 278 l115 0 l0 -278 l219 0 l0 278 l112 0 l0 -278 l302 0 l0 -492 l-302 0 l0 -289 l379 0 q-1 -38 -2.5 -119.5 q-1.5 -81.5 -3.5 -146 q-2 -64.5 -6 -100.5 q-11 -101 -46 -141 q-35 -40 -134 -40 l-123 0 l-21 113 l109 0 q58 0 74.5 14.5 q16.5 14.5 21.5 67.5 q11 87 11 242 l-259 0 l0 -660 l-112 0 l0 660 l-242 0 q-32 -226 -115.5 -378.5 q-83.5 -152.5 -242.5 -287.5 l-82 94 q138 116 212.5 248 q74.5 132 106.5 324 l-280 0 ZM193 713 q265 367 454 934 l113 -31 q-80 -240 -156 -420 l0 -1401 l-119 0 l0 1157 q-94 -174 -202 -315 l-90 76 ZM1182 780 q-1 -55 -11 -213 l230 0 l0 289 l-219 0 l0 -76 ZM1182 1239 l0 -270 l219 0 l0 270 l-219 0 ZM1698 1239 l-185 0 l0 -270 l185 0 l0 270 ZM1053 567 q11 89 14 217 l0 72 l-160 0 l-22 -289 l168 0 Z" /><glyph glyph-name="cid27946" unicode="&#x4f5c;" d="M1083 1346 l834 0 l0 -117 l-629 0 l0 -357 l559 0 l0 -116 l-559 0 l0 -365 l580 0 l0 -112 l-580 0 l0 -480 l-127 0 l0 1430 l-127 0 q-123 -281 -266 -463 l-98 78 q126 163 225.5 375.5 q99.5 212.5 159.5 429.5 l116 -29 q-46 -160 -92 -281 l4 7 ZM188 733 q289 355 445 901 l117 -32 q-85 -268 -144 -412 l0 -1391 l-123 0 l0 1141 q-84 -147 -204 -293 l-91 86 Z" /><glyph glyph-name="cid27951" unicode="&#x4f60;" d="M242 719 q145 186 256.5 434 q111.5 248 181.5 496 l115 -33 q-64 -215 -144 -410 l0 -1411 l-119 0 l0 1159 q-100 -188 -198 -319 l-92 84 ZM1636 971 q105 180 144 286 l-719 0 q-87 -209 -195 -372 l-106 61 q108 173 177.5 333.5 q69.5 160.5 121.5 350.5 l117 -31 q-32 -123 -72 -227 l803 0 l0 -115 q-16 -59 -57 -144 q-41 -85 -74 -140 l-33 -55 l-107 53 ZM1421 1069 l0 -1024 q0 -72 -14 -116.5 q-14 -44.5 -45.5 -66 q-31.5 -21.5 -67 -28 q-35.5 -6.5 -94.5 -6.5 l-162 0 l-18 115 l162 0 q74 0 96 20 q22 20 25 92 l0 1014 l118 0 ZM1862 25 q-136 383 -301 729 l108 51 q92 -183 177.5 -386 q85.5 -203 129.5 -341 l-114 -53 ZM1141 756 q-127 -419 -328 -721 l-102 69 q198 304 317 689 l113 -37 Z" /><glyph glyph-name="cid27955" unicode="&#x4f63;" d="M635 -143 q121 173 163 392 q42 219 42 560 l0 713 l1013 0 l0 -1471 q-1 -63 -9.5 -102 q-8.5 -39 -32.5 -68.5 q-24 -29.5 -67 -43 q-43 -13.5 -112 -15.5 l-96 0 l-20 115 l108 0 q62 0 86.5 26 q24.5 26 24.5 92 l0 369 l-338 0 l0 -547 l-115 0 l0 547 l-336 0 q-34 -392 -198 -631 l-113 64 ZM209 752 q142 200 245 430 q103 230 158 444 l115 -31 q-72 -237 -137 -395 l0 -1399 l-119 0 l0 1147 q-67 -128 -168 -274 l-94 78 ZM1735 1407 l-338 0 l0 -385 l338 0 l0 385 ZM1397 911 l0 -376 l338 0 l0 376 l-338 0 ZM958 1407 l0 -385 l324 0 l0 385 l-324 0 ZM958 762 q0 -153 -4 -227 l328 0 l0 376 l-324 0 l0 -149 Z" /><glyph glyph-name="cid27964" unicode="&#x4f6c;" d="M829 1370 l322 0 l0 262 l119 0 l0 -262 l309 0 l0 -113 l-309 0 l0 -321 l123 0 q229 237 346 518 l106 -51 q-104 -245 -291 -467 l381 0 l0 -113 l-485 0 q-137 -140 -324 -274 l0 -223 q162 53 345.5 134 q183.5 81 279.5 146 l61 -100 q-125 -80 -320.5 -165 q-195.5 -85 -365.5 -136 l0 -113 q0 -68 24.5 -90 q24.5 -22 96.5 -22 l66 0 q331 0 557 71 l28 -114 q-213 -74 -567 -74 l-96 0 q-133 0 -182 41.5 q-49 41.5 -49 167.5 l0 393 q-132 -88 -322 -189 l-61 107 q401 211 655 440 l-567 0 l0 113 l442 0 l0 321 l-322 0 l0 113 ZM197 713 q135 182 254.5 441 q119.5 259 177.5 478 l119 -30 q-53 -183 -152 -420 l0 -1387 l-123 0 l0 1131 q-93 -171 -184 -293 l-92 80 Z" /><glyph glyph-name="cid27970" unicode="&#x4f73;" d="M1925 -127 l-1241 0 l0 115 l561 0 l0 370 l-432 0 l0 113 l432 0 l0 252 l121 0 l0 -252 l430 0 l0 -113 l-430 0 l0 -370 l559 0 l0 -115 ZM1864 819 l-1119 0 l0 113 l500 0 l0 299 l-393 0 l0 110 l393 0 l0 297 l119 0 l0 -297 l393 0 l0 -110 l-393 0 l0 -299 l500 0 l0 -113 ZM168 760 q295 351 483 880 l115 -32 q-81 -234 -180 -430 l0 -1383 l-119 0 l0 1168 q-102 -165 -209 -289 l-90 86 Z" /><glyph glyph-name="cid27983" unicode="&#x4f7f;" d="M803 1059 l442 0 l0 207 l-524 0 l0 112 l524 0 l0 262 l119 0 q-2 -115 -2 -262 l526 0 l0 -112 l-526 0 l0 -207 l436 0 l0 -508 l-440 0 q-19 -231 -115 -381 q124 -88 290.5 -143.5 q166.5 -55.5 408.5 -87.5 l-25 -121 q-262 39 -441 101 q-179 62 -311 157 q-147 -156 -456 -285 l-58 107 q291 123 422 254 q-102 93 -229 274 l96 72 q108 -157 209 -250 q77 119 90 303 l-436 0 l0 508 ZM164 729 q159 199 273 435.5 q114 236.5 179 471.5 l117 -30 q-79 -266 -153 -435 l0 -1374 l-119 0 l0 1143 q-85 -146 -207 -295 l-90 84 ZM922 948 l0 -286 l323 0 l0 36 l0 250 l-323 0 ZM1679 948 l-317 0 q0 -208 2 -237 q0 -8 -1 -24.5 q-1 -16.5 -1 -24.5 l317 0 l0 286 Z" /><glyph glyph-name="cid27997" unicode="&#x4f8b;&#xf9b5;" d="M868 633 l84 82 q119 -119 185 -195 q64 191 84 471 l-238 0 q-90 -312 -244 -520 l-94 72 q232 324 301 852 l-207 0 l0 114 l686 0 l0 -114 l-354 0 q-28 -168 -57 -289 l327 0 l0 -115 q-16 -193 -47 -339 q-31 -146 -95 -293 q-64 -147 -170.5 -281.5 q-106.5 -134.5 -264.5 -272.5 l-86 95 q284 240 407 495 q-116 145 -217 238 ZM221 729 q129 177 228.5 425 q99.5 248 146.5 472 l115 -27 q-45 -188 -111 -374 l0 -1430 l-117 0 l0 1143 q-83 -172 -159 -283 l-103 74 ZM1444 -47 l164 0 q83 0 108 25 q25 25 25 94 l0 1542 l119 0 l0 -1548 q0 -113 -53 -170.5 q-53 -57.5 -183 -57.5 l-162 0 l-18 115 ZM1456 1317 l117 0 l0 -1071 l-117 0 l0 1071 Z" /><glyph glyph-name="cid28012" unicode="&#x4f9b;" d="M680 580 l315 0 l0 555 l-227 0 l0 114 l227 0 l0 387 l123 0 l0 -387 l367 0 l0 387 l123 0 l0 -387 l221 0 l0 -114 l-221 0 l0 -555 l323 0 l0 -115 l-1251 0 l0 115 ZM176 743 q137 185 258 440.5 q121 255.5 178 469.5 l113 -29 q-58 -195 -135 -383 l0 -1425 l-123 0 l0 1163 q-96 -184 -195 -315 l-96 79 ZM1118 1135 l0 -555 l367 0 l0 555 l-367 0 ZM664 -102 q259 205 413 479 l109 -68 q-83 -141 -199 -280 q-116 -139 -237 -232 l-86 101 ZM1841 -199 q-232 297 -418 492 l88 88 q149 -153 431 -494 l-101 -86 Z" /><glyph glyph-name="cid28014" unicode="&#x4f9d;" d="M621 442 q200 157 350 364.5 q150 207.5 215 412.5 l-430 0 l0 118 l508 0 l0 301 l122 0 l0 -301 l508 0 l0 -118 l-579 0 q-79 -234 -215 -439 l0 -782 q132 59 262 135 l57 -108 q-254 -140 -481 -213 l-43 108 l82 29 l0 667 q-115 -135 -279 -268 l-77 94 ZM197 729 q283 353 436 907 l117 -30 q-85 -279 -154 -449 l0 -1358 l-119 0 l0 1119 q-82 -140 -190 -273 l-90 84 ZM1284 1063 l109 18 q26 -253 108 -473 q156 132 289 324 l96 -72 q-63 -87 -161 -195 q-98 -108 -177 -167 q145 -322 422 -531 l-88 -100 q-269 226 -414 513 q-145 287 -184 683 Z" /><glyph glyph-name="cid28025" unicode="&#x4fa7;" d="M682 1516 l604 0 l0 -1168 l-115 0 l0 1057 l-376 0 l0 -1057 l-113 0 l0 1168 ZM135 717 q126 200 212 419 q86 219 153 488 l110 -20 q-61 -250 -110 -392 l0 -1394 l-115 0 l0 1108 q-71 -153 -154 -277 l-96 68 ZM1464 -61 l140 0 q26 0 36.5 0.5 q10.5 0.5 26.5 4 q16 3.5 21.5 10.5 q5.5 7 12.5 21 q7 14 9 35.5 q2 21.5 2 52.5 l0 1571 l113 0 l0 -1601 q1 -66 -14 -110 q-15 -44 -44.5 -64 q-29.5 -20 -58 -26.5 q-28.5 -6.5 -68.5 -6.5 l-151 0 l-25 113 ZM629 -201 l-78 86 q128 105 206.5 209 q78.5 104 123 243.5 q44.5 139.5 47.5 319.5 l0 600 l114 0 l0 -608 q-1 -147 -29.5 -271.5 q-28.5 -124.5 -83 -227.5 q-54.5 -103 -127.5 -187 q-73 -84 -173 -164 ZM1450 1446 l109 0 l0 -1194 l-109 0 l0 1194 ZM1376 -76 l-94 -69 q-95 145 -260 350 l82 76 q176 -222 272 -357 Z" /><glyph glyph-name="cid28051" unicode="&#x4fbf;&#xf965;" d="M1864 1403 l-504 0 l0 -201 l418 0 l0 -751 l-428 0 q-25 -198 -129 -330 q122 -75 289 -120 q167 -45 419 -73 l-20 -118 q-280 33 -459 83.5 q-179 50.5 -311 137.5 q-155 -137 -453 -240 l-51 109 q278 100 405 204 q-100 85 -211 228 l89 76 q114 -144 204 -218 q85 106 107 261 l-436 0 l0 751 l448 0 l0 201 l-508 0 l0 110 l1131 0 l0 -110 ZM143 741 q110 125 204.5 286 q94.5 161 155.5 307 q61 146 109 302 l115 -34 q-81 -251 -164 -435 l0 -1368 l-119 0 l0 1145 q-86 -139 -213 -291 l-88 88 ZM1239 563 q0 15 1 46 q1 31 1 48 l0 121 l-332 0 l0 -215 l330 0 ZM909 1090 l0 -201 l332 0 l0 201 l-332 0 ZM1360 670 l0 -107 l301 0 l0 215 l-301 0 l0 -108 ZM1661 1090 l-301 0 l0 -201 l301 0 l0 201 Z" /><glyph glyph-name="cid28065" unicode="&#x4fca;" d="M1903 -203 q-349 125 -566 289 q-232 -172 -608 -289 l-51 115 q343 100 563 252 q-116 106 -229 260 q-102 -120 -195 -201 l-82 82 q124 110 239 261 q115 151 189 294 l105 -47 q-32 -73 -78 -145 l524 0 l0 -109 q-98 -225 -278 -393 q212 -147 518 -248 l-51 -121 ZM201 750 q148 194 263.5 433.5 q115.5 239.5 178.5 452.5 l113 -32 q-75 -225 -148 -387 l0 -1420 l-119 0 l0 1180 q-100 -180 -198 -307 l-90 80 ZM1815 1008 l-115 133 q-522 -46 -914 -58 l-6 111 l86 6 q210 195 387 451 l101 -60 q-152 -217 -326 -383 q451 24 576 35 q-76 79 -156 152 l82 78 q203 -183 368 -390 l-83 -75 ZM1114 557 l-22 -33 q103 -161 247 -284 q158 137 240 317 l-465 0 ZM1186 985 q-79 -91 -192 -193.5 q-113 -102.5 -214 -177.5 l-80 95 q241 168 396 356 l90 -80 ZM1839 639 q-175 172 -409 332 l67 92 q100 -68 219 -162 q119 -94 201 -176 l-78 -86 Z" /><glyph glyph-name="cid28079" unicode="&#x4fd7;" d="M883 -152 l0 744 l843 0 l0 -744 l-843 0 ZM1008 -37 l594 0 l0 512 l-594 0 l0 -512 ZM184 713 q135 182 254.5 441 q119.5 259 177.5 478 l119 -30 q-55 -194 -155 -428 l0 -1379 l-123 0 l0 1125 q-85 -158 -181 -287 l-92 80 ZM1905 514 q-198 115 -351.5 266.5 q-153.5 151.5 -244.5 315.5 q-194 -346 -604 -586 l-70 111 q209 112 353 258.5 q144 146.5 259 351.5 l111 0 q107 -191 255.5 -337 q148.5 -146 360.5 -273 l-69 -107 ZM1798 1067 q-245 309 -426 471 l80 82 q165 -142 442 -469 l-96 -84 ZM1214 1548 q-79 -127 -187.5 -256.5 q-108.5 -129.5 -221.5 -226.5 l-88 90 q111 89 215 213 q104 124 180 248 l102 -68 Z" /><glyph glyph-name="cid28087" unicode="&#x4fdd;" d="M705 721 l536 0 l0 229 l-397 0 l0 598 l913 0 l0 -598 l-399 0 l0 -229 l538 0 l0 -115 l-503 0 q116 -166 252.5 -307.5 q136.5 -141.5 308.5 -280.5 l-78 -100 q-134 105 -278 256.5 q-144 151.5 -240 302.5 l0 -682 l-117 0 l0 672 q-177 -281 -510 -539 l-84 97 q162 114 311.5 271 q149.5 157 247.5 310 l-501 0 l0 115 ZM160 608 q148 189 260.5 480 q112.5 291 163.5 550 l125 -26 q-54 -220 -117 -410 l0 -1403 l-119 0 l0 1098 q-104 -233 -213 -367 l-100 78 ZM1640 1065 l0 367 l-679 0 l0 -367 l679 0 Z" /><glyph glyph-name="cid28093" unicode="&#x4fe1;" d="M905 489 l926 0 l0 -643 l-926 0 l0 643 ZM1030 -39 l676 0 l0 416 l-676 0 l0 -416 ZM205 727 q154 228 254 447 q100 219 159 468 l115 -24 q-52 -215 -129 -410 l0 -1409 l-117 0 l0 1155 q-92 -170 -184 -295 l-98 68 ZM1315 1638 l123 0 l0 -247 l530 0 l0 -115 l-1186 0 l0 115 l533 0 l0 247 ZM897 795 l930 0 l0 -109 l-930 0 l0 109 ZM897 1087 l930 0 l0 -108 l-930 0 l0 108 Z" /><glyph glyph-name="cid28104" unicode="&#x4fee;" d="M840 780 q279 88 452 213 q-125 101 -219 226 q-77 -98 -145 -164 l-78 78 q208 198 324 505 l106 -32 q-15 -42 -59 -140 l551 0 l0 -108 q-146 -227 -281 -354 q175 -104 453 -201 l-52 -115 q-319 121 -499 236 q-190 -144 -504 -256 l-49 112 ZM164 727 q230 357 377 895 l118 -31 q-68 -231 -116 -358 l0 -1440 l-117 0 l0 1161 q-79 -164 -164 -301 l-98 74 ZM840 -100 q269 69 540 205 q271 136 457 301 l78 -95 q-193 -181 -466.5 -315.5 q-273.5 -134.5 -561.5 -206.5 l-47 111 ZM682 1264 l115 0 l0 -1125 l-115 0 l0 1125 ZM954 211 q210 75 378 170.5 q168 95.5 321 232.5 l82 -92 q-286 -268 -729 -420 l-52 109 ZM1143 1321 q95 -137 246 -250 q117 109 233 285 l-459 0 l-20 -35 ZM981 518 q170 66 285.5 131 q115.5 65 216.5 154 l80 -90 q-117 -99 -234.5 -164.5 q-117.5 -65.5 -290.5 -136.5 l-57 106 Z" /><glyph glyph-name="cid28107" unicode="&#x4ff1;" d="M672 332 l182 0 l0 1212 l905 0 l0 -1212 l180 0 l0 -115 l-1267 0 l0 115 ZM172 729 q287 428 422 909 l117 -28 q-74 -256 -160 -459 l0 -1354 l-123 0 l0 1106 q-77 -135 -158 -246 l-98 72 ZM977 1430 l0 -195 l659 0 l0 195 l-659 0 ZM977 827 l0 -192 l659 0 l0 192 l-659 0 ZM977 524 l0 -192 l659 0 l0 192 l-659 0 ZM977 1122 l0 -184 l659 0 l0 184 l-659 0 ZM631 -98 q143 65 241 123 q98 58 199 149 l80 -92 q-221 -191 -463 -287 l-57 107 ZM1884 -207 q-267 189 -442 289 l63 98 q245 -145 449 -289 l-70 -98 Z" /><glyph glyph-name="cid2818" unicode="&#x5012;" d="M160 717 q135 207 223.5 435 q88.5 228 155.5 493 l110 -21 q-57 -220 -114 -383 l0 -1444 l-117 0 l0 1157 q-74 -158 -166 -305 l-92 68 ZM682 1505 l659 0 l0 -110 l-315 0 q-82 -239 -197 -449 q167 10 361 33 q-45 97 -113 227 l99 51 q122 -230 204 -442 l-100 -45 q-9 20 -23 55 q-14 35 -20 49 q-335 -38 -596 -55 l-12 113 q21 0 67 4 q117 210 207 459 l-221 0 l0 110 ZM616 20 q115 13 328 48 l0 378 l-274 0 l0 111 l274 0 l0 229 l117 0 l0 -229 l258 0 l0 -111 l-258 0 l0 -360 q202 36 305 64 l29 -113 q-145 -35 -366.5 -72 q-221.5 -37 -393.5 -57 l-19 112 ZM1481 -61 l137 0 q36 1 53 4 q17 3 34.5 14 q17.5 11 23.5 35 q6 24 6 65 l0 1579 l112 0 l0 -1595 q0 -34 -4 -62 q-4 -28 -9.5 -48.5 q-5.5 -20.5 -16 -36.5 q-10.5 -16 -19.5 -26.5 q-9 -10.5 -25.5 -18 q-16.5 -7.5 -28 -12 q-11.5 -4.5 -32.5 -7 q-21 -2.5 -34 -3 q-13 -0.5 -38 -1.5 l-137 0 l-22 113 ZM1446 1384 l110 0 l0 -1173 l-110 0 l0 1173 Z" /><glyph glyph-name="cid28191" unicode="&#x5019;" d="M856 -100 q203 93 325 202 q122 109 169 260 l-422 0 l0 113 l446 0 l6 66 l0 194 l-231 0 q-57 -103 -129 -205 l-98 68 q76 96 130.5 198 q54.5 102 110.5 236 l107 -41 q-21 -57 -64 -145 l639 0 l0 -111 l-346 0 l0 -225 q-4 -24 -4 -35 l436 0 l0 -113 l-403 0 q131 -292 457 -454 l-62 -105 q-155 76 -280.5 201.5 q-125.5 125.5 -192.5 282.5 q-63 -161 -197 -279.5 q-134 -118.5 -340 -214.5 l-57 107 ZM213 780 q137 195 229 405 q92 210 160 455 l109 -28 q-61 -213 -121 -371 l0 -1442 l-115 0 l0 1184 q-79 -153 -174 -276 l-88 73 ZM1073 1520 l664 0 l-25 -367 l205 0 l0 -109 l-983 0 l0 109 l663 0 l17 254 l-541 0 l0 113 ZM731 1366 l111 0 l0 -1231 l-111 0 l0 1231 Z" /><glyph glyph-name="cid282" unicode="&#x501f;" d="M846 -133 l0 809 l903 0 l0 -809 l-903 0 ZM1935 862 l-1271 0 l0 113 l335 0 l0 287 l-235 0 l0 112 l235 0 l0 262 l119 0 l0 -262 l355 0 l0 262 l118 0 l0 -262 l242 0 l0 -112 l-242 0 l0 -287 l344 0 l0 -113 ZM176 743 q137 185 258 440.5 q121 255.5 178 469.5 l113 -29 q-58 -195 -135 -383 l0 -1425 l-123 0 l0 1163 q-96 -184 -195 -315 l-96 79 ZM969 -25 l657 0 l0 265 l-657 0 l0 -265 ZM969 567 l0 -217 l657 0 l0 217 l-657 0 ZM1118 1262 l0 -287 l355 0 l0 287 l-355 0 Z" /><glyph glyph-name="cid28216" unicode="&#x5026;" d="M727 909 l381 0 q50 92 84 205 l-397 0 l0 109 l426 0 q40 178 55 413 l115 -8 q-12 -226 -50 -405 l205 0 l-80 63 q130 141 185 260 l98 -57 q-102 -166 -197 -266 l277 0 l0 -109 l-514 0 q-31 -114 -74 -205 l660 0 l0 -110 l-310 0 q135 -217 383 -369 l-61 -100 q-131 76 -254 205 q-2 -65 -10 -195 q-7 -51 -18 -82 q-11 -31 -35 -57 q-24 -26 -66.5 -37 q-42.5 -11 -108.5 -10 l-176 0 l-20 108 l184 0 q73 0 93.5 16.5 q20.5 16.5 29.5 75.5 l4 113 l-465 0 l0 -348 q3 -92 11 -112 q12 -33 64 -40 q23 -3 62 -4 l152 0 q247 0 477 66 l25 -117 q-173 -57 -486 -64 l-178 0 q-63 -3 -108.5 7.5 q-45.5 10.5 -73 31 q-27.5 20.5 -42.5 54.5 q-15 34 -19.5 73 q-4.5 39 -2.5 92 l0 416 q-94 -86 -241 -194 l-72 98 q266 187 399 373 l-311 0 l0 110 ZM217 758 q127 168 243 426.5 q116 258.5 169 466.5 l110 -31 q-50 -183 -135 -395 l0 -1430 l-119 0 l0 1172 q-85 -169 -176 -285 l-92 76 ZM1620 578 q-96 111 -154 221 l-284 0 q-65 -111 -172 -221 l610 0 ZM877 1493 l94 59 q61 -82 162 -256 l-97 -59 q-123 205 -159 256 Z" /><glyph glyph-name="cid28246" unicode="&#x503c;" d="M1260 1636 l120 -10 l-16 -184 l510 0 l0 -111 l-518 0 l-17 -192 l410 0 l0 -1168 l193 0 l0 -110 l-1280 0 l0 110 l184 0 l0 1168 l368 0 l19 192 l-514 0 l0 111 l522 0 l19 194 ZM164 752 q144 184 260.5 431 q116.5 247 177.5 466 l121 -31 q-59 -202 -154 -418 l0 -1405 l-118 0 l0 1163 q-88 -163 -191 -284 l-96 78 ZM967 164 l0 -193 l661 0 l0 193 l-661 0 ZM967 1028 l0 -182 l661 0 l0 182 l-661 0 ZM967 453 l0 -181 l661 0 l0 181 l-661 0 ZM967 737 l0 -178 l661 0 l0 178 l-661 0 Z" /><glyph glyph-name="cid28248" unicode="&#x503e;" d="M1188 254 l0 909 l221 0 q32 104 55 244 l-321 0 l0 111 l764 0 l0 -111 l-332 0 q-31 -171 -51 -244 l317 0 l0 -909 l-115 0 l0 799 l-426 0 l0 -799 l-112 0 ZM184 729 q132 199 228 434.5 q96 235.5 149 466.5 l115 -22 q-40 -163 -111 -367 l0 -1442 l-116 0 l0 1159 q-78 -164 -168 -290 l-97 61 ZM666 113 q71 37 98 53 l0 1444 l115 0 l0 -523 l229 0 l0 -106 l-229 0 l0 -745 q132 83 217 149 l59 -96 q-78 -60 -200.5 -139 q-122.5 -79 -229.5 -136 l-59 99 ZM1130 -217 l-71 98 q212 119 302 274 q90 155 95 377 l0 365 l111 0 l0 -360 q3 -265 -100 -438.5 q-103 -173.5 -337 -315.5 ZM1954 -135 l-84 -78 q-124 152 -330 358 l74 82 q203 -194 340 -362 Z" /><glyph glyph-name="cid28259" unicode="&#x5047;" d="M1255 971 l-372 0 l0 -228 l342 0 l0 -110 l-342 0 l0 -291 l366 0 l0 -111 l-366 0 l0 -434 l-119 0 l0 1745 l491 0 l0 -571 ZM1284 782 l553 0 l0 -102 q-22 -151 -61.5 -277.5 q-39.5 -126.5 -116.5 -242.5 q119 -147 297 -271 l-70 -94 q-170 116 -297 271 q-131 -150 -336 -269 l-67 97 q210 125 330 272 q-131 199 -199 463 l110 26 q50 -219 158 -393 q103 167 135 410 l-436 0 l0 110 ZM180 748 q282 420 395 897 l115 -25 q-49 -207 -127 -410 l0 -1413 l-119 0 l0 1155 q-71 -140 -165 -278 l-99 74 ZM1823 1538 l0 -567 l-471 0 l0 110 l358 0 l0 344 l-358 0 l0 113 l471 0 ZM883 1432 l0 -349 l260 0 l0 349 l-260 0 Z" /><glyph glyph-name="cid28269" unicode="&#x504f;" d="M1280 1640 l115 0 l0 -204 l452 0 l0 -451 l-925 0 q-4 -183 -15 -326 q-11 -143 -34 -293 q-23 -150 -66 -275 q-43 -125 -105 -222 l-102 45 l0 -117 l-119 0 l0 1155 q-85 -161 -178 -293 l-98 68 q155 230 254 449.5 q99 219.5 159 465.5 l115 -24 q-62 -232 -133 -410 l0 -1274 q122 241 164 481.5 q42 240.5 45 585.5 l0 435 l471 0 l0 204 ZM942 799 l926 0 l0 -785 q0 -94 -31.5 -140 q-31.5 -46 -107.5 -50 l-107 0 l-16 104 l84 0 q40 0 53 21 q13 21 16 80 l0 250 l-176 0 l0 -375 l-102 0 l0 375 l-164 0 l0 -375 l-105 0 l0 375 l-161 0 l0 -482 l-109 0 l0 1002 ZM922 1325 l0 -229 l813 0 l0 229 l-813 0 ZM1759 690 l-176 0 l0 -301 l176 0 l0 301 ZM1317 690 l0 -301 l164 0 l0 301 l-164 0 ZM1051 690 l0 -301 l161 0 l0 301 l-161 0 Z" /><glyph glyph-name="cid2828" unicode="&#x505a;" d="M1194 848 q184 336 262 801 l121 -23 q-49 -226 -80 -334 l426 0 l0 -112 l-106 0 q-15 -316 -49 -524.5 q-34 -208.5 -111 -374.5 q109 -199 305 -392 l-82 -92 q-176 164 -291 359 q-124 -195 -348 -369 l-80 98 q248 184 365 394 q-130 281 -154 659 q-35 -75 -76 -143 l-102 53 ZM657 1262 l248 0 l0 376 l119 0 l0 -376 l240 0 l0 -115 l-240 0 l0 -395 l193 0 l0 -783 l-496 0 l0 783 l184 0 l0 395 l-248 0 l0 115 ZM172 748 q270 402 395 905 l115 -25 q-48 -203 -125 -407 l0 -1424 l-119 0 l0 1157 q-68 -131 -168 -280 l-98 74 ZM838 639 l0 -557 l262 0 l0 557 l-262 0 ZM1591 422 q53 142 78 321.5 q25 179.5 35 436.5 l-240 0 q15 -469 127 -758 Z" /><glyph glyph-name="cid28281" unicode="&#x505c;" d="M913 1198 l861 0 l0 -344 l-861 0 l0 344 ZM205 727 q154 228 254 447 q100 219 159 468 l115 -24 q-52 -215 -129 -410 l0 -1409 l-121 0 l0 1149 q-89 -165 -180 -289 l-98 68 ZM1006 -59 l186 0 q68 0 89.5 21.5 q21.5 21.5 21.5 82.5 l0 270 l-383 0 l0 111 l843 0 l0 -111 l-340 0 l0 -266 q-3 -120 -46.5 -169.5 q-43.5 -49.5 -164.5 -49.5 l-186 0 l-20 111 ZM745 715 l1186 0 l0 -309 l-114 0 l0 198 l-957 0 l0 -196 l-115 0 l0 307 ZM1282 1636 l117 0 l0 -196 l540 0 l0 -109 l-1189 0 l0 109 l532 0 l0 196 ZM1024 1096 l0 -140 l639 0 l0 140 l-639 0 Z" /><glyph glyph-name="cid2832" unicode="&#x5076;" d="M1495 403 l94 41 q28 -53 71.5 -160.5 q43.5 -107.5 65.5 -177.5 l-100 -36 q-12 45 -37 110 q-253 -47 -596 -67 l-16 114 q106 2 303 21 l0 287 l-373 0 l0 -742 l-119 0 l0 854 l492 0 l0 180 l-406 0 l0 711 l922 0 l0 -711 l-401 0 l0 -180 l493 0 l0 -624 q-3 -101 -49.5 -148 q-46.5 -47 -146.5 -47 l-187 0 l-22 111 l166 0 q68 0 93 18.5 q25 18.5 25 79.5 l0 498 l-372 0 l0 -275 q76 11 153 25 q-2 6 -53 118 ZM205 727 q154 228 254 447 q100 219 159 468 l115 -24 q-49 -205 -131 -416 l0 -1403 l-119 0 l0 1149 q-89 -165 -180 -289 l-98 68 ZM987 1133 l0 -197 l293 0 l0 197 l-293 0 ZM1395 936 l284 0 l0 197 l-284 0 l0 -197 ZM987 1425 l0 -184 l293 0 l0 184 l-293 0 ZM1679 1425 l-284 0 l0 -184 l284 0 l0 184 Z" /><glyph glyph-name="cid28336" unicode="&#x507f;" d="M723 518 l1206 0 l0 -112 l-647 0 q-132 -233 -270 -400 q368 10 630 31 q-83 119 -169 229 l96 72 q192 -247 332 -465 l-105 -68 q-7 10 -35 54.5 q-28 44.5 -45 68.5 q-190 -18 -466 -30.5 q-276 -12.5 -449 -14.5 l-13 119 l64 0 q169 197 285 404 l-414 0 l0 112 ZM1262 1636 l120 0 l0 -434 l109 0 q92 144 209 379 l106 -53 q-84 -163 -186 -326 l281 0 l0 -387 l-119 0 l0 279 l-928 0 l0 -279 l-121 0 l0 387 l529 0 l0 434 ZM201 698 q264 364 422 914 l116 -33 q-79 -237 -141 -387 l0 -1391 l-121 0 l0 1129 q-92 -174 -186 -303 l-90 71 ZM938 870 l774 0 l0 -114 l-774 0 l0 114 ZM1024 1219 q-66 112 -182 276 l94 66 q72 -96 192 -277 l-104 -65 Z" /><glyph glyph-name="cid28343" unicode="&#x5085;" d="M1260 1638 l110 0 l0 -229 l309 0 q-78 75 -174 143 l66 78 q107 -77 188 -149 l-67 -72 l211 0 l0 -109 l-533 0 l0 -135 l459 0 l0 -714 l-115 0 l0 137 l-344 0 l0 -119 l-110 0 l0 119 l-347 0 l0 -137 l-114 0 l0 714 l461 0 l0 135 l-533 0 l0 109 l533 0 l0 229 ZM184 764 q142 200 245.5 430.5 q103.5 230.5 158.5 443.5 l114 -30 q-53 -183 -127 -369 l0 -1442 l-118 0 l0 1182 q-93 -176 -178 -293 l-95 78 ZM899 156 l66 90 l-263 0 l0 110 l861 0 l0 125 l118 0 l0 -125 l242 0 l0 -110 l-242 0 l0 -164 q0 -69 -8.5 -113 q-8.5 -44 -32.5 -79.5 q-24 -35.5 -71 -51.5 q-47 -16 -121 -16 l-197 0 l-22 112 l196 0 q33 0 56.5 3.5 q23.5 3.5 38.5 13.5 q15 10 24 20 q9 10 13 30 q4 20 5 36.5 q1 16.5 1 46.5 l0 162 l-598 0 q41 -28 129.5 -95.5 q88.5 -67.5 119.5 -89.5 l-73 -88 q-13 10 -67.5 53 q-54.5 43 -95.5 74 q-41 31 -79 56 ZM913 1059 l0 -133 l347 0 l0 133 l-347 0 ZM913 823 l0 -133 l347 0 l0 133 l-347 0 ZM1714 1059 l-344 0 l0 -133 l344 0 l0 133 ZM1370 823 l0 -133 l344 0 l0 133 l-344 0 Z" /><glyph glyph-name="cid28357" unicode="&#x508d;" d="M1257 -66 l197 0 q88 3 109 11 q37 14 52 70 q3 11 5 24 q9 49 18 240 l-516 0 q-39 -152 -132.5 -268.5 q-93.5 -116.5 -258.5 -209.5 l-69 105 q205 111 289 268.5 q84 157.5 87 392.5 l-325 0 l0 113 l544 0 l0 190 l117 0 l0 -190 l555 0 l0 -113 l-770 0 q-3 -107 -14 -180 l620 0 q-17 -314 -26 -377 q-21 -119 -82.5 -155 q-61.5 -36 -190.5 -29 l-194 0 l-15 108 ZM168 719 q151 215 250.5 438.5 q99.5 223.5 173.5 482.5 l119 -30 q-47 -188 -140 -414 l0 -1401 l-118 0 l0 1145 q-95 -183 -187 -297 l-98 76 ZM743 799 l0 276 l353 0 q-56 99 -111 166 l92 66 q71 -94 125 -179 l-92 -53 l295 0 q78 114 135 232 l109 -50 q-46 -87 -113 -182 l356 0 l0 -276 l-112 0 l0 168 l-920 0 l0 -168 l-117 0 ZM1870 1329 l-1110 0 l0 111 l500 0 l0 198 l114 0 l0 -198 l496 0 l0 -111 Z" /><glyph glyph-name="cid28390" unicode="&#x50a8;" d="M1159 -154 l0 723 q-31 -22 -93 -63 q-62 -41 -85 -57 l-68 98 q172 110 285.5 192 q113.5 82 202.5 168 l-412 0 l0 111 l344 0 l0 272 l-260 0 l0 109 l260 0 l0 235 l109 0 l0 -235 l217 0 l0 -109 l-217 0 l0 -272 l63 0 q156 187 256 459 l107 -45 q-96 -247 -217 -414 l260 0 l0 -111 l-348 0 q-103 -112 -234 -213 l459 0 l0 -848 l-629 0 ZM123 729 q137 206 239 444 q102 238 150 457 l115 -22 q-46 -187 -111 -363 l2 4 l0 -1452 l-117 0 l0 1182 q-86 -177 -186 -322 l-92 72 ZM645 23 q85 44 113 61 l0 807 l-168 0 l0 113 l284 0 l0 -848 q74 48 166 120 l66 -92 q-185 -141 -399 -260 l-62 99 ZM1276 -43 l399 0 l0 281 l-399 0 l0 -281 ZM1276 584 l0 -240 l399 0 l0 240 l-399 0 ZM856 1155 q-86 170 -197 330 l97 61 q106 -151 200 -329 l-100 -62 Z" /><glyph glyph-name="cid2840" unicode="&#x50b2;" d="M1217 881 q78 151 139 353 q61 202 92 396 l108 -10 q-28 -187 -71 -336 l430 0 l0 -115 l-92 0 q-22 -301 -54 -489.5 q-32 -188.5 -106 -353.5 q121 -236 322 -428 l-87 -99 q-187 205 -299 404 q-122 -209 -348 -408 l-82 92 q245 201 367 439 q-118 250 -176 598 q-18 -44 -47 -101 l-96 58 ZM569 -92 q114 141 161.5 278 q47.5 137 53.5 308 l7 211 l-181 0 l0 110 l301 0 l0 195 l-229 0 l0 108 l229 0 l0 185 l-280 0 l0 110 l280 0 l0 225 l113 0 l0 -225 l260 0 l0 -110 l-260 0 l0 -185 l229 0 l0 -108 l-229 0 l0 -195 l256 0 l0 -110 l-379 0 l-6 -168 l362 0 q-9 -209 -26 -420 q-9 -125 -59.5 -176.5 q-50.5 -51.5 -161.5 -51.5 l-160 0 l-19 111 l162 0 q75 0 96.5 21 q21.5 21 30.5 106 q10 76 19 303 l-250 0 q-13 -173 -64 -313 q-51 -140 -163 -283 l-93 74 ZM152 723 q132 196 228 447.5 q96 251.5 140 474.5 l115 -19 q-45 -197 -109 -383 l0 -1444 l-114 0 l0 1157 q-73 -159 -164 -297 l-96 64 ZM1452 1169 l-12 -39 q43 -384 157 -665 q52 143 76.5 311 q24.5 168 34.5 393 l-256 0 Z" /><glyph glyph-name="cid2841" unicode="&#x50bb;" d="M829 1481 l336 0 q43 82 70 176 l104 -33 q-17 -61 -59 -143 l567 0 l0 -660 l-753 0 l73 -84 q-184 -169 -432 -293 l-63 99 q265 124 422 278 l-265 0 l0 660 ZM698 -76 q345 64 543 174 q-119 86 -211 201 q-92 -86 -188 -152 l-72 95 q264 180 430 434 l92 -60 q-19 -34 -63 -94 l493 0 l0 -94 q-134 -210 -270 -322 q231 -120 522 -163 l-45 -119 q-347 70 -583 207 q-223 -142 -607 -217 l-41 110 ZM944 1374 l0 -444 l789 0 l0 444 l-789 0 ZM225 741 q142 200 245.5 431 q103.5 231 158.5 444 l114 -31 q-72 -237 -137 -395 l0 -1389 l-119 0 l0 1137 q-67 -128 -168 -274 l-94 77 ZM1004 1036 q99 35 243 109 q-93 49 -219 104 l49 84 q169 -78 275 -133 q145 82 231 156 l62 -74 q-74 -59 -195 -133 q116 -61 213 -119 l-55 -84 q-121 73 -258 146 q-181 -97 -297 -144 l-49 88 ZM1143 416 l-33 -37 q98 -122 242 -213 q139 103 227 250 l-436 0 ZM1466 725 l62 92 q100 -54 231.5 -133.5 q131.5 -79.5 202.5 -132.5 l-66 -98 q-79 61 -205 140 q-126 79 -225 132 Z" /><glyph glyph-name="cid28439" unicode="&#x50cf;" d="M1253 1606 q-71 -118 -77 -127 l464 0 l0 -103 q-61 -92 -127 -168 l320 0 l0 -381 l-520 0 q-21 -33 -53 -65 q57 -57 96 -113 q36 -51 76 -129 q176 90 360 238 l70 -86 q-79 -68 -224 -156 q44 -159 128 -283.5 q84 -124.5 204 -234.5 l-84 -86 q-234 213 -344 549 l-72 -41 q43 -130 43 -289 q-2 -155 -65.5 -232 q-63.5 -77 -202.5 -77 l-182 0 l-21 112 l177 0 q97 0 133.5 47 q36.5 47 38.5 160 q0 56 -11 138 q-127 -112 -301 -209 q-174 -97 -364 -164 l-49 106 q192 69 380 171 q188 102 308 210 q-14 45 -43 107 q-114 -87 -272.5 -172 q-158.5 -85 -297.5 -135 l-53 106 q353 128 567 293 q-29 42 -79 92 q-148 -120 -408 -209 l-49 107 q308 104 446 245 l-293 0 l0 314 l-104 -82 l-74 86 q152 113 259 232 q107 119 194 276 l106 -47 ZM201 713 q133 180 251 442 q118 262 177 485 l110 -28 q-55 -192 -141 -406 l0 -1411 l-115 0 l0 1159 q-92 -183 -192 -315 l-90 74 ZM1501 1376 l-399 0 q-56 -73 -154 -168 l420 0 q72 80 133 168 ZM1722 1102 l-301 0 q-15 -93 -49 -168 l350 0 l0 168 ZM983 1102 l0 -168 l264 0 q43 75 58 168 l-322 0 Z" /><glyph glyph-name="cid28469" unicode="&#x50e7;&#xfa31;" d="M1681 1585 q-85 -139 -141 -211 l338 0 l0 -667 l-1122 0 l0 667 l340 0 q-66 97 -162 207 l84 68 q10 -11 38.5 -45 q28.5 -34 45.5 -55 q17 -21 42 -53 q25 -32 44 -60 l-74 -62 l299 0 q105 138 170 268 l98 -57 ZM850 -158 l0 729 l934 0 l0 -729 l-934 0 ZM184 754 q264 368 410 874 l115 -29 q-65 -218 -136 -391 l0 -1407 l-118 0 l0 1153 q-77 -145 -176 -280 l-95 80 ZM1765 1264 l-395 0 l0 -447 l395 0 l0 447 ZM868 1264 l0 -447 l396 0 l0 447 l-396 0 ZM969 -47 l696 0 l0 205 l-696 0 l0 -205 ZM969 461 l0 -197 l696 0 l0 197 l-696 0 ZM1704 1149 q-71 -153 -168 -264 l-88 65 q105 129 162 250 l94 -51 ZM1083 893 q-63 123 -147 248 l88 53 q88 -122 152 -250 l-93 -51 Z" /><glyph glyph-name="cid2874" unicode="&#x513f;" d="M1976 47 l25 -119 q-59 -21 -178.5 -36.5 q-119.5 -15.5 -231.5 -18.5 l-92 0 q-122 0 -174.5 56 q-52.5 56 -52.5 177 l0 1496 l125 0 l0 -1481 q0 -65 26.5 -96 q26.5 -31 92.5 -31 l63 0 q80 0 195 13.5 q115 13.5 202 39.5 ZM729 1602 l127 0 l0 -517 q-3 -153 -7 -243 q-4 -90 -16.5 -211 q-12.5 -121 -34 -197 q-21.5 -76 -59.5 -171 q-38 -95 -93 -166 q-55 -71 -135 -147.5 q-80 -76.5 -185 -148.5 l-84 107 q67 44 122 89 q55 45 99.5 93.5 q44.5 48.5 79 95 q34.5 46.5 61 103.5 q26.5 57 46 108.5 q19.5 51.5 33 120 q13.5 68.5 22 128.5 q8.5 60 13.5 143 q5 83 7.5 154.5 q2.5 71.5 3.5 172.5 l0 486 Z" /><glyph glyph-name="cid2876" unicode="&#x5141;" d="M1987 33 l26 -119 q-81 -25 -193 -38 q-112 -13 -194 -13 l-104 0 q-143 0 -199.5 53.5 q-56.5 53.5 -56.5 183.5 l0 744 q-187 -8 -295 -10 l0 -158 q-6 -333 -158.5 -537.5 q-152.5 -204.5 -499.5 -343.5 l-51 115 q218 91 341 192 q123 101 181 243 q58 142 60 355 l0 131 q-237 -6 -436 -6 l-7 123 q13 0 40 -1 q27 -1 42 -1 q137 130 286.5 323 q149.5 193 256.5 380 l119 -66 q-240 -376 -486 -637 q584 4 951 33 q-156 189 -283 319 l86 86 q217 -214 494 -565 l-105 -84 q-48 67 -104 137 q-96 -11 -305 -22 l0 -739 q0 -127 129 -127 l96 0 q180 0 369 49 Z" /><glyph glyph-name="cid2878" unicode="&#x5143;" d="M315 809 l0 115 l1598 0 l0 -115 l-512 0 l0 -698 q0 -69 19.5 -98 q19.5 -29 80.5 -29 l111 0 q179 0 368 49 l27 -119 q-81 -25 -193 -38 q-112 -13 -194 -13 l-119 0 q-131 -3 -182 52 q-51 55 -45 185 l0 709 l-324 0 l0 -100 q-5 -176 -41 -310 q-36 -134 -112 -245.5 q-76 -111.5 -196 -197 q-120 -85.5 -294 -155.5 l-53 115 q214 89 336.5 199.5 q122.5 110.5 176 256.5 q53.5 146 56.5 361 l0 76 l-508 0 ZM500 1395 l0 116 l1235 0 l0 -116 l-1235 0 Z" /><glyph glyph-name="cid2879" unicode="&#x5144;" d="M1978 43 l27 -119 q-81 -25 -193 -38 q-112 -13 -194 -13 l-105 0 q-143 0 -199.5 54 q-56.5 54 -56.5 184 l0 628 l-294 0 l0 -63 q-6 -331 -161 -533 q-155 -202 -505 -342 l-51 115 q132 55 225 110 q93 55 165 121 q72 66 114 146.5 q42 80.5 63.5 179.5 q21.5 99 22.5 227 l0 39 l-328 0 l0 774 l1202 0 l0 -774 l-326 0 l0 -618 q0 -127 129 -127 l97 0 q188 0 368 49 ZM1587 854 l0 545 l-956 0 l0 -545 l956 0 Z" /><glyph glyph-name="cid288" unicode="&#x5145;&#xfa74;" d="M1087 1638 l119 0 l0 -252 l760 0 l0 -112 l-879 0 q-169 -274 -350 -473 q459 6 832 39 q-102 122 -232 260 l88 84 q223 -230 453 -529 l-104 -82 q-59 86 -119 160 q-6 0 -99 -8 q-93 -8 -145 -12 l0 -604 q0 -127 133 -127 l96 0 q160 0 349 49 l26 -119 q-82 -25 -184.5 -38 q-102.5 -13 -181.5 -13 l-105 0 q-143 0 -199.5 53.5 q-56.5 53.5 -56.5 183.5 l0 607 l-282 -13 l0 -22 q-6 -335 -147.5 -532.5 q-141.5 -197.5 -485.5 -342.5 l-54 113 q216 93 334.5 192.5 q118.5 99.5 172.5 237.5 q54 138 57 350 q-290 -8 -412 -8 l-6 121 q33 -2 106 -2 q212 218 365 475 l-598 0 l0 112 l749 0 l0 252 Z" /><glyph glyph-name="cid2882" unicode="&#x5148;" d="M459 950 q190 229 317 602 l113 -34 q-39 -116 -84 -220 l362 0 l0 338 l117 0 l0 -338 l567 0 l0 -112 l-567 0 l0 -410 l672 0 l0 -110 l-506 0 l0 -541 q2 -46 5 -67.5 q3 -21.5 14.5 -40.5 q11.5 -19 33.5 -24.5 q22 -5.5 62 -4.5 l67 0 q200 9 363 55 l24 -117 q-60 -21 -169 -38.5 q-109 -17.5 -208 -18.5 l-79 0 q-139 -10 -188.5 50 q-49.5 60 -47.5 192 l0 555 l-272 0 q-20 -345 -158 -545 q-138 -200 -448 -338 l-64 111 q190 87 302.5 184 q112.5 97 173.5 239 q61 142 71 349 l-483 0 l0 110 l718 0 l0 410 l-415 0 q-88 -175 -191 -307 l-102 71 Z" /><glyph glyph-name="cid2883" unicode="&#x5149;" d="M1182 1642 l0 -765 l723 0 l0 -117 l-531 0 l0 -649 q0 -66 24.5 -96.5 q24.5 -30.5 88.5 -30.5 l121 0 q161 0 350 49 l27 -119 q-82 -25 -186 -38 q-104 -13 -183 -13 l-129 0 q-73 0 -119.5 12.5 q-46.5 12.5 -73.5 42 q-27 29.5 -37 72 q-10 42.5 -10 110.5 l0 660 l-309 0 l0 -62 q0 -340 -143 -551 q-143 -211 -484 -348 l-53 111 q214 89 334.5 198.5 q120.5 109.5 170.5 253.5 q50 144 50 361 l0 37 l-481 0 l0 117 l725 0 l0 765 l125 0 ZM1362 1087 q91 96 173 216.5 q82 120.5 130 224.5 l109 -55 q-122 -255 -316 -463 l-96 77 ZM760 1020 q-140 234 -295 416 l92 73 q171 -195 307 -415 l-104 -74 Z" /><glyph glyph-name="cid2885" unicode="&#x514b;" d="M1970 37 l27 -119 q-184 -55 -389 -55 l-109 0 q-73 0 -118 12 q-45 12 -71 42.5 q-26 30.5 -35 72.5 q-9 42 -9 110 l0 381 l-271 0 q-13 -249 -172.5 -409 q-159.5 -160 -498.5 -277 l-54 113 q101 37 176 70 q75 33 143 72.5 q68 39.5 114 82 q46 42.5 82.5 94.5 q36.5 52 56 115 q19.5 63 26.5 139 l-311 0 l0 582 l510 0 l0 231 l-760 0 l0 115 l760 0 l0 231 l119 0 l0 -231 l760 0 l0 -115 l-760 0 l0 -231 l512 0 l0 -582 l-312 0 l0 -364 q0 -68 24 -101.5 q24 -33.5 85 -33.5 l104 0 q68 0 177 15 q109 15 194 40 ZM674 948 l0 -350 l907 0 l0 350 l-907 0 Z" /><glyph glyph-name="cid2887" unicode="&#x514d;&#xfa32;" d="M1944 43 l26 -117 q-210 -61 -450 -61 l-101 0 q-82 0 -136 19 q-54 19 -80.5 57.5 q-26.5 38.5 -36 82.5 q-9.5 44 -9.5 109 l0 359 l-49 0 q-77 -251 -272 -420.5 q-195 -169.5 -510 -280.5 l-50 117 q183 67 316 145.5 q133 78.5 234 189 q101 110.5 153 249.5 l-520 0 l0 569 q-49 -37 -127 -86 l-66 100 q204 134 343 273.5 q139 139.5 239 314.5 l110 -53 q-47 -81 -81 -129 l600 0 l0 -101 q-99 -153 -238 -299 l512 0 l0 -589 l-469 0 l0 -355 q0 -23 0.5 -34 q0.5 -11 3 -30.5 q2.5 -19.5 7.5 -29.5 q5 -10 15 -23 q10 -13 24.5 -19.5 q14.5 -6.5 37 -11.5 q22.5 -5 51.5 -5 l86 0 q238 0 437 59 ZM1628 967 l-467 0 l0 -103 q0 -123 -24 -260 l491 0 l0 363 ZM580 967 l0 -363 l432 0 q26 110 26 254 l0 109 l-458 0 ZM788 1368 q-128 -155 -303 -287 l590 0 q161 158 242 287 l-529 0 Z" /><glyph glyph-name="cid2909" unicode="&#x5165;" d="M233 -68 q170 138 311 301 q141 163 235.5 324 q94.5 161 155 312.5 q60.5 151.5 87.5 291.5 q-123 223 -285 346 l82 84 q110 -83 199 -205 q71 -97 117.5 -176 q46.5 -79 85.5 -178 q47 -119 80.5 -199.5 q33.5 -80.5 79.5 -180 q46 -99.5 86.5 -170.5 q40.5 -71 95.5 -152.5 q55 -81.5 113 -146.5 q58 -65 131.5 -132.5 q73.5 -67.5 158.5 -128.5 l-78 -110 q-86 65 -162 137.5 q-76 72.5 -135 141 q-59 68.5 -116.5 154.5 q-57.5 86 -99 158 q-41.5 72 -90 174 q-48.5 102 -82.5 179.5 q-34 77.5 -83 195.5 l-20 45 q-82 -310 -283 -614.5 q-201 -304.5 -502 -550.5 l-82 100 Z" /><glyph glyph-name="cid2911" unicode="&#x5168;&#xfa72;" d="M1714 420 l-528 0 l0 -424 l745 0 l0 -117 l-1620 0 l0 117 l746 0 l0 424 l-531 0 l0 115 l531 0 l0 331 l-436 0 l0 115 l999 0 l0 -115 l-434 0 l0 -331 l528 0 l0 -115 ZM1929 856 q-527 259 -805 653 q-144 -203 -335.5 -361 q-191.5 -158 -479.5 -302 l-55 108 q273 135 468.5 302 q195.5 167 338.5 382 l123 0 q265 -413 803 -669 l-58 -113 Z" /><glyph glyph-name="cid2914" unicode="&#x516b;" d="M1282 1595 l123 0 q12 -268 34 -467 q22 -199 63 -376.5 q41 -177.5 106 -319 q65 -141.5 156.5 -269.5 q91.5 -128 220.5 -253 l-95 -98 q-121 124 -208.5 238.5 q-87.5 114.5 -153 242.5 q-65.5 128 -107 253.5 q-41.5 125.5 -70 294 q-28.5 168.5 -43.5 340.5 q-15 172 -26 414 ZM250 -96 q123 130 208 254.5 q85 124.5 146.5 261.5 q61.5 137 98.5 308 q37 171 57.5 367 q20.5 196 30.5 466 l127 -7 q-16 -355 -46.5 -592.5 q-30.5 -237.5 -96 -446.5 q-65.5 -209 -167 -370.5 q-101.5 -161.5 -262.5 -332.5 l-96 92 Z" /><glyph glyph-name="cid2915" unicode="&#x516c;" d="M1776 -209 l-109 158 q-451 -49 -1204 -58 l-6 125 l92 0 q154 176 306 417 q152 241 249 468 l117 -61 q-97 -211 -236.5 -438.5 q-139.5 -227.5 -269.5 -383.5 q474 6 878 39 q-186 271 -290 400 l94 84 q81 -99 164 -212.5 q83 -113.5 200 -284 q117 -170.5 123 -179.5 l-108 -74 ZM1253 1595 l115 43 q105 -278 250 -495.5 q145 -217.5 364 -394.5 l-86 -105 q-412 316 -643 952 ZM948 1622 l115 -43 q-89 -264 -248.5 -501 q-159.5 -237 -386.5 -408 l-76 100 q210 163 353 376 q143 213 243 476 Z" /><glyph glyph-name="cid2916" unicode="&#x516d;&#xf9d1;" d="M1110 1618 l123 0 l0 -418 l739 0 l0 -119 l-1605 0 l0 119 l743 0 l0 418 ZM356 -70 q165 187 310 430 q145 243 233 471 l115 -47 q-216 -543 -557 -938 l-101 84 ZM1305 774 l102 68 q115 -168 296.5 -471 q181.5 -303 256.5 -453 l-111 -65 q-98 187 -265.5 471 q-167.5 284 -278.5 450 Z" /><glyph glyph-name="cid2919" unicode="&#x5170;" d="M1878 1102 l-1450 0 l0 117 l856 0 q140 184 244 415 l119 -49 q-96 -199 -211 -366 l442 0 l0 -117 ZM1987 -102 l-1659 0 l0 116 l1659 0 l0 -116 ZM1745 549 l-1186 0 l0 115 l1186 0 l0 -115 ZM666 1550 q127 -164 221 -311 l104 72 q-122 179 -227 311 l-98 -72 Z" /><glyph glyph-name="cid292" unicode="&#x5171;" d="M1513 602 l465 0 l0 -117 l-1679 0 l0 117 l469 0 l0 543 l-315 0 l0 117 l315 0 l0 376 l123 0 l0 -376 l498 0 l0 374 l124 0 l0 -374 l312 0 l0 -117 l-312 0 l0 -543 ZM891 1145 l0 -543 l498 0 l0 543 l-498 0 ZM295 -92 q346 215 565 495 l101 -75 q-121 -160 -279.5 -298.5 q-158.5 -138.5 -316.5 -226.5 l-70 105 ZM1286 319 l78 95 q326 -246 614 -510 l-82 -97 q-341 305 -610 512 Z" /><glyph glyph-name="cid2921" unicode="&#x5173;" d="M1909 596 l-668 0 q96 -240 289.5 -411.5 q193.5 -171.5 449.5 -268.5 l-57 -121 q-112 48 -217 111 q-105 63 -212.5 152 q-107.5 89 -197 209 q-89.5 120 -143.5 257 q-81 -227 -287 -417.5 q-206 -190.5 -497 -309.5 l-58 115 q292 121 482.5 296 q190.5 175 255.5 388 l-662 0 l0 113 l686 0 q8 62 8 94 l0 350 l-594 0 l0 113 l799 0 q124 184 217 372 l117 -49 q-97 -180 -199 -323 l373 0 l0 -113 l-592 0 l0 -373 q0 -25 -4 -71 l711 0 l0 -113 ZM684 1561 q128 -154 207 -281 l102 68 q-140 191 -219 282 l-90 -69 Z" /><glyph glyph-name="cid2922" unicode="&#x5174;" d="M346 737 l961 0 q138 195 234 365 q96 170 206 409 l115 -63 q-212 -430 -406 -711 l496 0 l0 -119 l-1606 0 l0 119 ZM315 -74 q365 239 566 563 l106 -77 q-120 -182 -279 -335.5 q-159 -153.5 -323 -252.5 l-70 102 ZM1319 399 l78 93 q424 -400 575 -576 l-90 -88 q-63 72 -143.5 156 q-80.5 84 -127.5 130 q-47 46 -156 152.5 q-109 106.5 -136 132.5 ZM930 1556 l108 50 q109 -250 222 -621 l-109 -39 q-13 38 -49.5 144 q-36.5 106 -56.5 163 q-20 57 -53 144.5 q-33 87.5 -62 158.5 ZM455 1407 l96 68 q171 -258 338 -543 l-105 -62 q-173 315 -329 537 Z" /><glyph glyph-name="cid2923" unicode="&#x5175;" d="M1989 514 l0 -113 l-1657 0 l0 113 l325 0 l0 971 q630 25 1090 100 l25 -115 q-396 -66 -992 -100 l0 -309 l1096 0 l0 -115 l-373 0 l0 -432 l486 0 ZM780 946 l0 -432 l604 0 l0 432 l-604 0 ZM332 -68 q168 66 327 161 q159 95 273 198 l80 -109 q-114 -101 -282.5 -199.5 q-168.5 -98.5 -344.5 -168.5 l-53 118 ZM1901 -190 q-285 199 -582 374 l67 111 q274 -164 588 -377 l-73 -108 Z" /><glyph glyph-name="cid2924" unicode="&#x5176;" d="M1980 289 l-1656 0 l0 117 l362 0 l0 888 l-293 0 l0 109 l293 0 l0 235 l123 0 l0 -235 l688 0 l0 237 l123 0 l0 -237 l287 0 l0 -109 l-287 0 l0 -888 l360 0 l0 -117 ZM809 649 l0 -243 l688 0 l0 243 l-688 0 ZM809 975 l0 -217 l688 0 l0 217 l-688 0 ZM809 1294 l0 -213 l688 0 l0 213 l-688 0 ZM315 -78 q348 126 619 320 l74 -113 q-286 -199 -639 -326 l-54 119 ZM1915 -199 q-58 31 -162 87 q-104 56 -158.5 85 q-54.5 29 -135 70 q-80.5 41 -152.5 76 l61 110 q401 -190 610 -315 l-63 -113 Z" /><glyph glyph-name="cid2925" unicode="&#x5177;" d="M369 352 l258 0 l0 1180 l1102 0 l0 -1180 l247 0 l0 -114 l-1607 0 l0 114 ZM752 549 l0 -197 l854 0 l0 197 l-854 0 ZM752 844 l0 -191 l854 0 l0 191 l-854 0 ZM752 1139 l0 -189 l854 0 l0 189 l-854 0 ZM752 1419 l0 -172 l854 0 l0 172 l-854 0 ZM371 -82 q152 51 303.5 122 q151.5 71 267.5 144 l68 -104 q-258 -161 -590 -275 l-49 113 ZM1333 82 l51 104 q313 -123 592 -278 l-59 -107 q-230 135 -584 281 Z" /><glyph glyph-name="cid2926" unicode="&#x5178;" d="M1982 317 l-1695 0 l0 115 l200 0 l0 932 l396 0 l0 274 l114 0 l0 -274 l277 0 l0 274 l115 0 l0 -274 l395 0 l0 -932 l198 0 l0 -115 ZM1389 803 l0 -371 l276 0 l0 371 l-276 0 ZM606 803 l0 -371 l277 0 l0 371 l-277 0 ZM997 803 l0 -371 l277 0 l0 371 l-277 0 ZM606 1253 l0 -342 l277 0 l0 342 l-277 0 ZM997 1253 l0 -342 l277 0 l0 342 l-277 0 ZM1665 1253 l-276 0 l0 -342 l276 0 l0 342 ZM928 162 q-113 -105 -269 -201.5 q-156 -96.5 -305 -159.5 l-59 111 q367 164 549 348 l84 -98 ZM1898 -188 q-240 178 -555 352 l66 104 q240 -129 561 -350 l-72 -106 Z" /><glyph glyph-name="cid2929" unicode="&#x517b;" d="M295 246 l-49 112 q399 143 573 332 l-522 0 l0 113 l608 0 q56 92 84 186 l-479 0 l0 113 l510 0 l10 47 q11 60 17 129 l-629 0 l0 111 l428 0 q-81 105 -146 184 l88 67 q95 -106 166 -198 l-69 -53 l375 0 q94 107 184 247 l100 -61 q-72 -117 -131 -186 l410 0 l0 -111 l-658 0 q-14 -131 -18 -154 q-4 -16 -4 -22 l596 0 l0 -113 l-621 0 q-28 -105 -69 -186 l895 0 l0 -113 l-547 0 q105 -116 242.5 -196 q137.5 -80 349.5 -136 l-39 -120 q-514 172 -703 452 l-266 0 q-98 -138 -264 -246 q-166 -108 -422 -198 ZM428 -100 q83 30 143 67.5 q60 37.5 97.5 77.5 q37.5 40 60.5 91 q23 51 32.5 101 q9.5 50 12.5 115 l0 119 l123 0 l0 -119 q-2 -118 -28.5 -207.5 q-26.5 -89.5 -80.5 -156 q-54 -66.5 -128.5 -113.5 q-74.5 -47 -180.5 -84 l-51 109 ZM1309 -203 l0 672 l125 0 l0 -672 l-125 0 Z" /><glyph glyph-name="cid293" unicode="&#x517c;" d="M371 1372 l477 0 q-95 145 -154 207 l92 74 q90 -96 166 -213 l-92 -68 l389 0 q77 114 166 281 l111 -51 q-78 -148 -135 -230 l491 0 l0 -110 l-512 0 l0 -175 l338 0 l0 -299 l246 0 l0 -110 l-246 0 l0 -293 l-301 0 q250 -286 561 -434 l-61 -107 q-321 170 -537 439 l0 -488 l-121 0 l0 590 l-274 0 l0 -590 l-121 0 l0 484 q-95 -119 -246.5 -239.5 q-151.5 -120.5 -288.5 -195.5 l-61 107 q151 78 302.5 197.5 q151.5 119.5 246.5 236.5 l-309 0 l0 111 l356 0 l0 182 l-563 0 l0 110 l563 0 l0 189 l-356 0 l0 110 l356 0 l0 175 l-483 0 l0 110 ZM975 977 l0 -189 l274 0 l0 189 l-274 0 ZM975 678 l0 -182 l274 0 l0 182 l-274 0 ZM975 1262 l0 -175 l274 0 l0 175 l-274 0 ZM1589 977 l-219 0 l0 -189 l219 0 l0 189 ZM1370 496 l219 0 l0 182 l-219 0 l0 -182 Z" /><glyph glyph-name="cid2938" unicode="&#x5185;" d="M690 358 q494 309 506 826 l0 59 l-537 0 l0 -1444 l-122 0 l0 1559 l659 0 l0 289 l123 0 l0 -289 l659 0 l0 -1276 q0 -132 -56 -196 q-56 -64 -198 -64 l-215 0 l-20 117 l215 0 q85 0 118 37 q33 37 33 114 l0 1153 l-536 0 l0 -65 q-6 -131 -37 -256 q24 -25 118.5 -123 q94.5 -98 141.5 -148.5 q47 -50.5 120.5 -134.5 q73.5 -84 127.5 -154 l-98 -79 q-28 38 -58.5 75.5 q-30.5 37.5 -54 66.5 q-23.5 29 -58 68 q-34.5 39 -53.5 60 q-19 21 -58 63 q-39 42 -53.5 57.5 q-14.5 15.5 -59 62 q-44.5 46.5 -56.5 59.5 q-126 -318 -481 -539 l-70 102 Z" /><glyph glyph-name="cid2944" unicode="&#x518c;" d="M332 844 l178 0 l0 708 l520 0 l0 -708 l219 0 l0 708 l533 0 l0 -708 l198 0 l0 -115 l-198 0 l0 -651 q3 -125 -43.5 -187.5 q-46.5 -62.5 -147.5 -66.5 l-172 0 l-20 119 l145 0 q38 -1 63 9.5 q25 10.5 36.5 32.5 q11.5 22 15 46 q3.5 24 2.5 59 l0 639 l-287 0 l0 -41 q-6 -324 -64.5 -527 q-58.5 -203 -179.5 -366 l-104 62 q120 169 171.5 354 q51.5 185 51.5 485 l0 33 l-219 0 l0 -643 q0 -120 -42.5 -177.5 q-42.5 -57.5 -145.5 -58.5 l-170 0 l-21 119 l172 0 q49 0 67.5 33 q18.5 33 18.5 96 l0 631 l-274 0 l0 -41 q-3 -322 -61 -528.5 q-58 -206.5 -181 -364.5 l-98 66 q118 164 165 343 q47 179 50 492 l0 33 l-178 0 l0 115 ZM1661 1438 l-287 0 l0 -594 l287 0 l0 594 ZM909 1438 l-274 0 l0 -594 l274 0 l0 594 Z" /><glyph glyph-name="cid2945" unicode="&#x518d;" d="M303 408 l219 0 l0 786 l561 0 l0 205 l-753 0 l0 117 l1628 0 l0 -117 l-754 0 l0 -205 l565 0 l0 -786 l216 0 l0 -115 l-216 0 l0 -221 q-5 -143 -50.5 -192.5 q-45.5 -49.5 -172.5 -49.5 l-225 0 l-21 115 l207 0 q85 0 115.5 21 q30.5 21 30.5 97 l0 230 l-1012 0 l0 -496 l-119 0 l0 496 l-219 0 l0 115 ZM1204 694 l0 -286 l449 0 l0 286 l-449 0 ZM641 694 l0 -286 l442 0 l0 286 l-442 0 ZM1653 1079 l-449 0 l0 -272 l449 0 l0 272 ZM641 1079 l0 -272 l442 0 l0 272 l-442 0 Z" /><glyph glyph-name="cid295" unicode="&#x5192;" d="M674 -158 l0 924 l1177 0 l0 -924 l-1177 0 ZM541 1534 l1439 0 l0 -651 l-118 0 l0 538 l-1203 0 l0 -538 l-118 0 l0 651 ZM793 -47 l940 0 l0 166 l-940 0 l0 -166 ZM793 387 l0 -162 l940 0 l0 162 l-940 0 ZM793 655 l0 -161 l940 0 l0 161 l-940 0 ZM770 1049 l981 0 l0 -109 l-981 0 l0 109 ZM770 1288 l981 0 l0 -106 l-981 0 l0 106 Z" /><glyph glyph-name="cid2956" unicode="&#x5199;" d="M674 600 l76 684 l118 -16 l-18 -170 l883 0 l0 -115 l-893 0 l-27 -266 l1028 0 l-31 -588 q-6 -71 -16.5 -117.5 q-10.5 -46.5 -31.5 -85 q-21 -38.5 -56.5 -59 q-35.5 -20.5 -88.5 -31 q-53 -10.5 -130 -10.5 l-311 0 l-21 117 l311 0 q89 0 133 17.5 q44 17.5 61 54 q17 36.5 26 114.5 l26 471 l-1038 0 ZM438 1509 l1536 0 l0 -428 l-125 0 l0 314 l-1288 0 l0 -314 l-123 0 l0 428 ZM414 328 l1112 0 l0 -117 l-1112 0 l0 117 Z" /><glyph glyph-name="cid2958" unicode="&#x519b;" d="M1866 975 l-877 0 q-126 -227 -223 -357 l416 0 l0 265 l121 0 l0 -265 l499 0 l0 -114 l-499 0 l0 -262 l690 0 l0 -115 l-690 0 l0 -332 l-121 0 l0 332 l-776 0 l0 115 l776 0 l0 262 l-561 0 l0 117 q115 155 231 354 l-330 0 l0 115 l393 0 q62 115 123 251 l109 -49 q-56 -123 -98 -202 l817 0 l0 -115 ZM459 1509 l1474 0 l0 -360 l-121 0 l0 244 l-1234 0 l0 -244 l-119 0 l0 360 Z" /><glyph glyph-name="cid2977" unicode="&#x51b0;" d="M1915 1268 q-71 -95 -196.5 -218.5 q-125.5 -123.5 -239.5 -213.5 q82 -227 202 -415 q120 -188 299 -358 l-88 -92 q-227 218 -349 439.5 q-122 221.5 -200 502.5 l0 -862 q2 -62 -6.5 -101.5 q-8.5 -39.5 -33 -68.5 q-24.5 -29 -69.5 -41.5 q-45 -12.5 -116 -13.5 l-141 0 l-21 115 l144 0 q43 0 67.5 6 q24.5 6 37 23 q12.5 17 15.5 36 q3 19 3 57 l0 1573 l120 0 l0 -327 q46 -202 95 -357 q103 81 215 193 q112 112 176 205 l86 -82 ZM680 1196 l450 0 l0 -104 q-24 -172 -55.5 -305.5 q-31.5 -133.5 -85.5 -275.5 q-54 -142 -139 -273.5 q-85 -131.5 -205 -257.5 l-90 79 q114 120 195.5 244.5 q81.5 124.5 131.5 255.5 q50 131 78 250.5 q28 119.5 48 271.5 l-328 0 l0 115 ZM508 713 l115 -33 q-106 -455 -285 -805 l-109 55 q182 336 279 783 ZM471 1001 q-116 319 -201 482 l107 47 q110 -211 211 -479 l-117 -50 Z" /><glyph glyph-name="cid2979" unicode="&#x51b2;" d="M1296 1640 l117 0 l0 -395 l475 0 l0 -774 l-475 0 l0 -676 l-117 0 l0 676 l-481 0 l0 774 l481 0 l0 395 ZM934 1133 l0 -547 l362 0 l0 547 l-362 0 ZM1772 586 l0 547 l-359 0 l0 -547 l359 0 ZM569 725 l117 -41 q-53 -215 -134 -426.5 q-81 -211.5 -167 -374.5 l-115 64 q93 172 172.5 378 q79.5 206 126.5 400 ZM541 1026 q-137 293 -246 465 l104 57 q115 -170 256 -461 l-114 -61 Z" /><glyph glyph-name="cid298" unicode="&#x51b3;" d="M852 1303 l379 0 l0 335 l121 0 l0 -335 l444 0 l0 -596 l186 0 l0 -117 l-583 0 q67 -217 223.5 -393.5 q156.5 -176.5 388.5 -298.5 l-63 -111 q-228 124 -399.5 313 q-171.5 189 -243.5 424 q-60 -215 -206.5 -397 q-146.5 -182 -396.5 -342 l-69 102 q242 153 377.5 324 q135.5 171 185.5 379 l-432 0 l0 117 l455 0 q12 92 12 194 l0 289 l-379 0 l0 113 ZM1352 895 q0 -76 -11 -188 l338 0 l0 483 l-327 0 l0 -295 ZM606 717 l117 -33 q-123 -502 -307 -803 l-109 66 q199 324 299 770 ZM580 1026 q-113 256 -246 465 l102 57 q93 -138 256 -461 l-112 -61 Z" /><glyph glyph-name="cid2981" unicode="&#x51b5;&#xfa71;" d="M852 705 l0 798 l967 0 l0 -798 l-238 0 l0 -629 q0 -58 20 -83.5 q20 -25.5 74 -25.5 l66 0 q120 0 268 45 l33 -112 q-137 -47 -293 -47 l-98 0 q-105 0 -150 54.5 q-45 54.5 -45 160.5 l0 637 l-233 0 l0 -97 q0 -122 -24.5 -224.5 q-24.5 -102.5 -67 -183 q-42.5 -80.5 -112 -155 q-69.5 -74.5 -147.5 -133.5 q-78 -59 -186 -125 l-72 104 q94 54 165.5 107 q71.5 53 133.5 118 q62 65 101.5 136.5 q39.5 71.5 61.5 159 q22 87.5 22 188.5 l0 105 l-246 0 ZM1696 819 l0 572 l-721 0 l0 -572 l721 0 ZM557 713 l119 -33 q-45 -203 -123 -422.5 q-78 -219.5 -162 -382.5 l-112 55 q180 333 278 783 ZM520 1001 q-116 319 -201 482 l111 51 q110 -211 211 -479 l-121 -54 Z" /><glyph glyph-name="cid2983" unicode="&#x51b7;&#xf92e;" d="M975 238 l69 98 q170 -109 275 -182 q117 91 218.5 205.5 q101.5 114.5 152.5 207.5 l-818 0 l0 113 l961 0 l0 -105 q-61 -119 -176 -255.5 q-115 -136.5 -234 -237.5 q220 -161 265 -197 l-80 -100 q-126 105 -314 239 q-188 134 -319 214 ZM715 918 q209 136 367.5 320.5 q158.5 184.5 222.5 379.5 l131 0 q178 -413 589 -696 l-75 -103 q-366 268 -576 654 q-69 -159 -227 -339 q-158 -180 -352 -315 l-80 99 ZM606 725 l117 -41 q-53 -215 -134 -426.5 q-81 -211.5 -167 -374.5 l-115 64 q93 172 172.5 378 q79.5 206 126.5 400 ZM578 1026 q-137 293 -246 465 l104 57 q115 -170 256 -461 l-114 -61 ZM1225 1040 l92 70 q123 -160 205 -281 l-97 -69 q-81 130 -200 280 Z" /><glyph glyph-name="cid2991" unicode="&#x51c0;" d="M700 1147 q264 223 424 524 l111 -49 q-58 -110 -72 -131 l547 0 l0 -98 q-95 -149 -190 -258 l321 0 l0 -367 l144 0 l0 -111 l-144 0 l0 -383 l-448 0 l0 -219 q1 -68 -12 -113 q-13 -45 -41.5 -69 q-28.5 -24 -64 -33 q-35.5 -9 -89.5 -10 l-260 0 l-25 113 l229 0 q87 0 113.5 29.5 q26.5 29.5 26.5 111.5 l0 190 l-441 0 l0 113 l441 0 l0 270 l-498 0 l0 111 l498 0 l0 256 l-377 0 l0 111 l473 0 q141 163 199 245 l-475 0 q-59 -80 -128.5 -152 q-69.5 -72 -175.5 -169 l-86 88 ZM586 725 l125 -41 q-97 -397 -310 -801 l-114 64 q93 172 172.5 378 q79.5 206 126.5 400 ZM1393 387 l329 0 l0 270 l-329 0 l0 -270 ZM1722 1024 l-329 0 l0 -256 l329 0 l0 256 ZM557 1026 q-137 293 -246 465 l105 57 q115 -170 256 -461 l-115 -61 Z" /><glyph glyph-name="cid2997" unicode="&#x51c6;" d="M1946 -82 l-979 0 l0 -123 l-119 0 l0 1172 q-80 -138 -166 -246 l-98 76 q247 274 413 837 l113 -30 q-52 -179 -109 -316 l914 0 l0 -108 l-406 0 l0 -287 l353 0 l0 -109 l-353 0 l0 -311 l353 0 l0 -108 l-353 0 l0 -336 l437 0 l0 -111 ZM967 365 l0 -336 l424 0 l0 336 l-424 0 ZM967 784 l0 -311 l424 0 l0 311 l-424 0 ZM967 1180 l0 -287 l424 0 l0 287 l-424 0 ZM518 711 l115 -25 q-48 -218 -122 -444 q-74 -226 -146 -369 l-111 51 q79 162 150 375 q71 213 114 412 ZM526 1006 q-116 321 -200 485 l106 51 q84 -154 209 -491 l-115 -45 ZM1440 1298 q-54 114 -166 265 l92 65 q90 -118 172 -264 l-98 -66 Z" /><glyph glyph-name="cid3001" unicode="&#x51cb;" d="M1470 -63 l189 0 q78 0 108.5 26 q30.5 26 30.5 100 l0 1358 l-848 0 l0 -665 q0 -335 -54 -557 q-54 -222 -187 -406 l-105 64 q133 195 179.5 381.5 q46.5 186.5 52.5 537.5 l0 754 l1077 0 l0 -1479 q0 -119 -50.5 -172 q-50.5 -53 -162.5 -53 l-209 0 l-21 111 ZM1112 612 l510 0 l0 -503 l-510 0 l0 503 ZM1706 766 l-666 0 l0 106 l279 0 l0 199 l-240 0 l0 105 l240 0 l0 182 l106 0 l0 -182 l242 0 l0 -105 l-242 0 l0 -199 l281 0 l0 -106 ZM610 717 l115 -33 q-100 -409 -301 -801 l-113 64 q200 363 299 770 ZM1223 506 l0 -291 l288 0 l0 291 l-288 0 ZM584 1028 q-5 11 -39 80.5 q-34 69.5 -43.5 88.5 q-9.5 19 -37 74.5 q-27.5 55.5 -43 82.5 q-15.5 27 -37.5 66.5 q-22 39.5 -42 70.5 l98 57 q131 -193 254 -461 l-110 -59 Z" /><glyph glyph-name="cid3005" unicode="&#x51cf;" d="M1470 1636 l115 0 q0 -200 2 -288 l371 0 l0 -117 l-367 0 q2 -87 13 -311 q9 -236 49 -410 q82 192 151 528 l111 -26 q-79 -404 -213 -672 q45 -128 118.5 -237.5 q73.5 -109.5 184.5 -225.5 l-86 -84 q-197 188 -293 412 q-125 -198 -332 -375 l-84 84 q229 199 363 436 q-68 228 -86 555 q-11 166 -14 326 l-594 0 l0 -524 q-4 -153 -12 -253 q-8 -100 -28.5 -217.5 q-20.5 -117.5 -61 -223 q-40.5 -105.5 -103.5 -214.5 l-107 56 q112 195 151 381.5 q39 186.5 42 482.5 l0 629 l710 0 l0 288 ZM973 774 l416 0 l0 -618 l-416 0 l0 618 ZM520 711 l117 -31 q-46 -231 -116.5 -444.5 q-70.5 -213.5 -151.5 -362.5 l-111 51 q167 336 262 787 ZM1083 672 l0 -414 l195 0 l0 414 l-195 0 ZM502 1012 q-108 307 -199 485 l107 45 q51 -93 94.5 -196.5 q43.5 -103.5 113.5 -288.5 l-116 -45 ZM1427 944 l-489 0 l0 107 l489 0 l0 -107 ZM1808 1370 q-70 88 -168 172 l74 76 q118 -105 176 -176 l-82 -72 Z" /><glyph glyph-name="cid3007" unicode="&#x51d1;" d="M727 399 l-70 97 q239 153 365 338 l-287 0 l0 108 l350 0 q35 66 64 148 l-299 0 l0 104 l330 0 q14 53 28 145 l-424 0 l0 109 l441 0 q11 112 16 188 l119 -6 q-14 -145 -19 -182 l492 0 l0 -109 l-506 0 q-13 -81 -29 -145 l469 0 l0 -104 l-497 0 q-18 -66 -53 -148 l667 0 l0 -108 l-315 0 q140 -207 405 -347 l-63 -102 q-323 186 -471 449 l-281 0 q-65 -111 -158 -209 l594 0 l0 -105 l-235 0 q-2 -27 -2 -82 q0 -34 -8 -92 l454 0 l0 -113 l-485 0 q-35 -85 -97 -155 q-62 -70 -146.5 -122 q-84.5 -52 -167 -88.5 q-82.5 -36.5 -187.5 -70.5 l-51 115 q91 27 161.5 55 q70.5 28 141.5 66.5 q71 38.5 125 88.5 q54 50 88 111 l-393 0 l0 113 l436 0 q12 46 12 100 l0 74 l-248 0 l0 96 q-107 -110 -266 -217 ZM526 711 l117 -33 q-108 -500 -274 -805 l-111 53 q160 297 268 785 ZM1327 90 l53 100 q227 -109 531 -288 l-62 -107 q-338 210 -522 295 ZM506 1012 q-114 314 -201 485 l107 45 q91 -166 209 -485 l-115 -45 Z" /><glyph glyph-name="cid3020" unicode="&#x51e0;" d="M659 889 l0 651 l861 0 l0 -1458 q0 -52 19.5 -76 q19.5 -24 62.5 -24 l49 0 q153 0 309 47 l29 -115 q-61 -24 -157 -37.5 q-96 -13.5 -173 -13.5 l-53 0 q-115 0 -166 53.5 q-51 53.5 -51 163.5 l0 1341 l-601 0 l0 -522 q-1 -144 -12 -254 q-11 -110 -39 -224.5 q-28 -114.5 -77 -212 q-49 -97.5 -127 -199.5 q-78 -102 -187 -204 l-100 93 q162 148 252.5 295 q90.5 147 125.5 308 q35 161 35 388 Z" /><glyph glyph-name="cid3021" unicode="&#x51e1;" d="M596 909 l0 631 l922 0 l0 -1466 q0 -53 15.5 -72.5 q15.5 -19.5 57.5 -19.5 l47 0 q73 0 166.5 13 q93.5 13 163.5 34 l29 -115 q-60 -24 -165.5 -37.5 q-105.5 -13.5 -184.5 -13.5 l-52 0 q-115 0 -162 49.5 q-47 49.5 -47 159.5 l0 1349 l-661 0 l0 -501 q-1 -110 -4 -185 q-3 -75 -12 -166.5 q-9 -91.5 -25 -160.5 q-16 -69 -44 -149.5 q-28 -80.5 -67.5 -150 q-39.5 -69.5 -96 -146.5 q-56.5 -77 -130.5 -155 l-104 89 q91 94 154 186 q63 92 102.5 180 q39.5 88 61 194 q21.5 106 29 209 q7.5 103 7.5 244 ZM829 1034 l105 72 q149 -194 366 -551 l-118 -68 q-74 130 -173.5 285 q-99.5 155 -179.5 262 Z" /><glyph glyph-name="cid3034" unicode="&#x51ef;" d="M1268 1538 l520 0 l0 -1489 q0 -78 76 -78 l34 0 q72 0 175 29 l22 -109 q-79 -34 -199 -34 l-47 0 q-105 0 -142.5 47 q-37.5 47 -37.5 151 l0 1370 l-283 0 l0 -598 q5 -254 -29.5 -445 q-34.5 -191 -98 -324 q-63.5 -133 -171.5 -267 l-100 74 q164 198 222.5 399.5 q58.5 201.5 58.5 558.5 l0 715 ZM383 12 l59 13 l0 532 l510 0 l0 238 l-571 0 l0 110 l686 0 l0 -461 l-510 0 l0 -389 q279 76 469 162 l41 -113 q-124 -52 -315.5 -112.5 q-191.5 -60.5 -335.5 -93.5 l-33 114 ZM401 1526 l107 0 l0 -340 l188 0 l0 452 l105 0 l0 -452 l190 0 l0 340 l111 0 l0 -451 l-701 0 l0 451 Z" /><glyph glyph-name="cid3044" unicode="&#x51fa;" d="M1243 1661 l125 0 l0 -741 l457 0 l0 530 l125 0 l0 -645 l-582 0 l0 -811 l518 0 l0 633 l125 0 l0 -748 l-1413 0 l0 746 l121 0 l0 -631 l524 0 l0 811 l-584 0 l0 643 l121 0 l0 -528 l463 0 l0 741 Z" /><glyph glyph-name="cid3045" unicode="&#x51fb;" d="M1090 1638 l127 0 l0 -303 l626 0 l0 -116 l-626 0 l0 -400 l772 0 l0 -117 l-772 0 l0 -714 l497 0 l0 522 l123 0 l0 -639 l-1370 0 l0 639 l123 0 l0 -522 l500 0 l0 714 l-775 0 l0 117 l775 0 l0 400 l-631 0 l0 116 l631 0 l0 303 Z" /><glyph glyph-name="cid3047" unicode="&#x51fd;" d="M1862 961 l125 0 l0 -1092 l-1541 0 l0 1092 l125 0 l0 -973 l1291 0 l0 973 ZM924 207 l139 0 q68 0 89.5 17 q21.5 17 21.5 69 l0 840 l425 274 l-983 0 l0 117 l1192 0 l0 -105 l-514 -344 l0 -772 q0 -104 -40.5 -158.5 q-40.5 -54.5 -147.5 -54.5 l-160 0 l-22 117 ZM629 373 q92 62 200 158 q108 96 179 174 l73 -82 q-62 -72 -181 -178.5 q-119 -106.5 -198 -163.5 l-73 92 ZM1382 614 l76 78 q83 -70 188.5 -168.5 q105.5 -98.5 165.5 -165.5 l-79 -86 q-139 163 -351 342 ZM649 1073 l74 82 q61 -42 170 -138.5 q109 -96.5 162 -154.5 l-80 -86 q-59 62 -162.5 157 q-103.5 95 -163.5 140 ZM1397 872 q75 48 173.5 129 q98.5 81 158.5 146 l79 -84 q-59 -63 -158 -144 q-99 -81 -180 -135 l-73 88 Z" /><glyph glyph-name="cid3050" unicode="&#x5201;" d="M526 1491 l1358 0 q-7 -347 -22 -780 q-15 -433 -27 -570 q-4 -40 -7.5 -65 q-3.5 -25 -13 -59.5 q-9.5 -34.5 -23 -56 q-13.5 -21.5 -37.5 -45.5 q-24 -24 -57 -37.5 q-33 -13.5 -81 -22.5 q-48 -9 -109 -9 l-288 0 l-21 117 l291 0 q72 0 115 10 q43 10 65 41.5 q22 31.5 28 54 q6 22.5 13 80.5 q1 4 1.5 7 q0.5 3 0.5 6 q16 176 28 537 q12 361 15 675 l-1229 0 l0 117 ZM418 475 q234 87 532 249 q298 162 484 310 l82 -96 q-178 -150 -481 -315 q-303 -165 -570 -269 l-47 121 Z" /><glyph glyph-name="cid3055" unicode="&#x5206;" d="M578 719 l0 117 l1069 0 q-14 -461 -41 -762 q-11 -129 -67.5 -191 q-56.5 -62 -195.5 -59 l-286 0 l-21 119 l301 0 q36 1 62 9 q26 8 40 19 q14 11 23 33 q9 22 12 37.5 q3 15.5 7 46.5 q26 273 32 631 l-491 0 q-8 -72 -19.5 -134 q-11.5 -62 -33.5 -138 q-22 -76 -51.5 -142 q-29.5 -66 -76.5 -138.5 q-47 -72.5 -105.5 -135 q-58.5 -62.5 -141.5 -124.5 q-83 -62 -182 -114 l-64 109 q123 64 216.5 143 q93.5 79 150.5 156 q57 77 96 170.5 q39 93.5 57 172 q18 78.5 29 175.5 l-319 0 ZM1225 1595 l114 43 q86 -231 254 -452 q168 -221 394 -377 l-76 -100 q-237 165 -414.5 397.5 q-177.5 232.5 -271.5 488.5 ZM928 1614 l112 -51 q-122 -269 -281.5 -478 q-159.5 -209 -389.5 -360 l-74 104 q224 155 378.5 348.5 q154.5 193.5 254.5 436.5 Z" /><glyph glyph-name="cid3056" unicode="&#x5207;&#xfa00;" d="M760 -98 q134 110 226 229 q92 119 147 256.5 q55 137.5 81.5 283.5 q26.5 146 34.5 333 l15 362 l-306 0 l0 117 l912 0 q-7 -183 -17 -512 q-10 -329 -17.5 -584.5 q-7.5 -255.5 -8.5 -288.5 q-3 -49 -7.5 -80 q-4.5 -31 -15.5 -63.5 q-11 -32.5 -30 -51.5 q-19 -19 -50 -34.5 q-31 -15.5 -75.5 -22 q-44.5 -6.5 -106.5 -6.5 l-227 0 l-17 121 l234 0 q103 0 132.5 28.5 q29.5 28.5 35.5 125.5 q17 388 35 1251 l-344 0 q-2 -54 -5.5 -142 q-3.5 -88 -6.5 -153.5 q-3 -65.5 -3 -83.5 q-18 -390 -137.5 -670 q-119.5 -280 -390.5 -514 l-88 99 ZM254 1038 l278 31 l0 551 l123 0 l0 -537 l332 37 l12 -114 l-344 -39 l0 -707 q144 95 271 197 l71 -101 q-202 -167 -501 -336 l-64 107 l100 57 l0 768 l-266 -28 l-12 114 Z" /><glyph glyph-name="cid3066" unicode="&#x5212;" d="M508 1636 l129 2 q3 -290 33 -563 l530 84 l19 -119 l-533 -86 q29 -179 78 -338 q38 -121 78 -198 q188 195 282 401 l103 -55 q-121 -248 -322 -455 q124 -183 393 -352 l-65 -109 q-275 168 -418 375 q-195 -174 -475 -329 l-70 106 q267 134 480 328 q-61 112 -101 241 q-61 188 -86 367 l-270 -43 l-21 121 l275 43 q-26 217 -39 579 ZM1370 -27 l219 0 q79 0 102 33 q23 33 23 109 l0 1495 l125 0 l0 -1534 q0 -113 -50.5 -168 q-50.5 -55 -180.5 -55 l-217 0 l-21 120 ZM1346 1393 l120 0 l0 -1086 l-120 0 l0 1086 ZM965 1200 q-110 136 -244 258 l76 84 q127 -109 254 -262 l-86 -80 Z" /><glyph glyph-name="cid3070" unicode="&#x5217;&#xf99c;" d="M578 633 l73 88 q126 -93 258 -205 q93 196 133 488 l-340 0 q-115 -285 -321 -521 l-94 76 q163 196 261 399.5 q98 203.5 150 442.5 l-319 0 l0 112 l897 0 l0 -112 l-453 0 q-36 -161 -80 -285 l424 0 l0 -119 q-48 -405 -227 -685 q-179 -280 -555 -527 l-78 109 q368 231 541 509 q-153 142 -270 230 ZM1411 -47 l178 0 q81 0 106 32 q25 32 25 107 l0 1532 l121 0 l0 -1577 q0 -110 -52.5 -161.5 q-52.5 -51.5 -182.5 -51.5 l-174 0 l-21 119 ZM1343 1405 l117 0 l0 -1133 l-117 0 l0 1133 Z" /><glyph glyph-name="cid3072" unicode="&#x5219;" d="M387 1528 l760 0 l0 -1125 l-123 0 l0 1014 l-514 0 l0 -1014 l-123 0 l0 1125 ZM1389 -47 l178 0 q80 0 103.5 31.5 q23.5 31.5 23.5 107.5 l0 1546 l127 0 l0 -1591 q0 -110 -53.5 -161.5 q-53.5 -51.5 -184.5 -51.5 l-174 0 l-20 119 ZM330 -184 l-88 100 q119 83 202.5 166.5 q83.5 83.5 143.5 184 q60 100.5 88.5 220 q28.5 119.5 28.5 265.5 l0 503 l124 0 l0 -503 q0 -170 -33.5 -309 q-33.5 -139 -101.5 -250.5 q-68 -111.5 -154.5 -199.5 q-86.5 -88 -209.5 -177 ZM1356 1405 l119 0 l0 -1133 l-119 0 l0 1133 ZM1239 -51 l-92 -86 q-186 226 -361 383 l82 88 q156 -140 371 -385 Z" /><glyph glyph-name="cid3073" unicode="&#x521a;" d="M479 -182 l0 1728 l920 0 l0 -1460 q0 -133 -45.5 -184.5 q-45.5 -51.5 -171.5 -51.5 l-146 0 l-24 117 l137 0 q83 0 107 25 q24 25 24 102 l0 1336 l-682 0 l0 -1612 l-119 0 ZM1137 178 q-108 245 -183 404 q-113 -231 -258 -437 l-94 76 q172 220 289 490 q-136 272 -258 473 l96 63 q107 -182 219 -395 q80 206 137 457 l109 -29 q-74 -314 -178 -559 q112 -222 227 -485 l-106 -58 ZM1542 -55 l178 0 q80 0 105.5 32.5 q25.5 32.5 25.5 106.5 l0 1548 l123 0 l0 -1593 q0 -110 -53 -161.5 q-53 -51.5 -184 -51.5 l-174 0 l-21 119 ZM1561 1364 l118 0 l0 -1092 l-118 0 l0 1092 Z" /><glyph glyph-name="cid3074" unicode="&#x521b;" d="M184 936 q214 177 338 339 q124 162 209 374 l111 -45 q-18 -46 -39 -93 q104 -104 237.5 -248.5 q133.5 -144.5 208.5 -234.5 l-96 -82 q-81 102 -197 233 q-116 131 -206 224 q-125 -227 -326 -422 l655 0 q-2 -340 -6 -444 q-3 -56 -12 -94 q-9 -38 -23.5 -62 q-14.5 -24 -40.5 -38 q-26 -14 -56 -19.5 q-30 -5.5 -77 -8.5 l-153 0 l-19 117 l137 0 q76 0 98 19.5 q22 19.5 27 89.5 l4 323 l-434 0 l0 -770 q0 -73 26.5 -100 q26.5 -27 111.5 -27 l112 0 q242 0 428 62 l31 -117 q-83 -29 -208.5 -46.5 q-125.5 -17.5 -246.5 -17.5 l-155 0 q-120 3 -168.5 55 q-48.5 52 -48.5 169 l0 891 q-83 -76 -140 -121 l-82 94 ZM1378 -59 l189 0 q87 0 117 30.5 q30 30.5 30 122.5 l0 1542 l119 0 l0 -1562 q0 -64 -9 -105.5 q-9 -41.5 -34 -76 q-25 -34.5 -74 -50.5 q-49 -16 -125 -16 l-192 0 l-21 115 ZM1356 1419 l119 0 l0 -1171 l-119 0 l0 1171 Z" /><glyph glyph-name="cid3076" unicode="&#x521d;" d="M750 -115 q227 188 339 449 q112 261 130 606 q1 14 4.5 88.5 q3.5 74.5 7.5 165.5 q4 91 6 164 l-297 0 l0 117 l911 0 q-9 -937 -51 -1395 q-12 -130 -79 -188 q-67 -58 -218 -58 l-200 0 l-19 121 l219 2 q92 0 128.5 39 q36.5 39 45.5 139 q51 593 45 1223 l-358 0 q-2 -95 -11.5 -260 q-9.5 -165 -9.5 -174 q-17 -378 -137.5 -653.5 q-120.5 -275.5 -363.5 -483.5 l-92 98 ZM489 1630 l123 0 l0 -321 l258 0 l0 -92 q-81 -239 -229 -447 l88 -78 q101 116 166 248 l98 -57 q-88 -170 -182 -269 q118 -110 168 -165 l-86 -89 q-82 91 -262 271 l0 -828 l-123 0 l0 801 q-118 -130 -275 -252 l-81 97 q202 153 360 354.5 q158 201.5 217 390.5 l-477 0 l0 115 l237 0 l0 321 Z" /><glyph glyph-name="cid3079" unicode="&#x5220;" d="M209 -123 q92 162 126 352 q34 190 36 512 l-133 0 l0 111 l133 0 l0 696 l379 0 l0 -696 l137 0 l0 696 l405 0 l0 -696 l121 0 l0 -111 l-121 0 l0 -657 q0 -118 -36 -173.5 q-36 -55.5 -128 -55.5 l-124 0 l-19 112 l113 0 q55 0 70.5 22.5 q15.5 22.5 15.5 96.5 l0 655 l-185 0 l0 -14 q0 -343 -33.5 -544 q-33.5 -201 -127.5 -363 l-101 53 q92 156 120 330.5 q28 174.5 30 537.5 l-137 0 l0 -637 q0 -120 -34.5 -173.5 q-34.5 -53.5 -127.5 -53.5 l-113 0 l-18 111 l102 0 q48 0 65 22.5 q17 22.5 17 87.5 l0 643 l-158 0 l0 -14 q0 -331 -36.5 -524 q-36.5 -193 -133.5 -383 l-104 57 ZM1497 -49 l98 0 q75 0 97 23.5 q22 23.5 22 97.5 l0 1542 l117 0 l0 -1544 q-1 -52 -4 -83.5 q-3 -31.5 -11.5 -60 q-8.5 -28.5 -22.5 -42.5 q-14 -14 -40 -25 q-26 -11 -59.5 -14 q-33.5 -3 -85.5 -3 l-97 0 l-14 109 ZM1460 1352 l113 0 l0 -1080 l-113 0 l0 1080 ZM999 1434 l0 -582 l185 0 l0 582 l-185 0 ZM483 1434 l0 -582 l158 0 l0 582 l-158 0 Z" /><glyph glyph-name="cid3082" unicode="&#x5224;" d="M352 512 l418 0 q21 134 21 342 l0 2 l-381 0 l0 117 l381 0 l0 667 l120 0 l0 -667 l375 0 l0 -117 l-375 0 l0 -14 q0 -183 -18 -330 l444 0 l0 -117 l-463 0 q-36 -172 -120.5 -311 q-84.5 -139 -237.5 -285 l-94 92 q135 118 212.5 239.5 q77.5 121.5 113.5 264.5 l-396 0 l0 117 ZM1468 -55 l191 0 q32 0 53.5 7.5 q21.5 7.5 33 17.5 q11.5 10 16.5 32.5 q5 22.5 6 38 q1 15.5 1 48.5 q0 5 0 7 l0 1540 l121 0 l0 -1552 q0 -70 -7 -112 q-7 -42 -28.5 -77.5 q-21.5 -35.5 -64 -51 q-42.5 -15.5 -111.5 -15.5 l-188 0 l-23 117 ZM1409 1384 l119 0 l0 -1157 l-119 0 l0 1157 ZM1004 1128 q112 172 186 383 l106 -41 q-32 -86 -87 -203 q-55 -117 -103 -196 l-102 57 ZM410 1446 l106 51 q132 -254 178 -371 l-112 -51 q-72 199 -172 371 Z" /><glyph glyph-name="cid3087" unicode="&#x5229;&#xf9dd;" d="M358 1442 q519 61 787 129 l31 -115 q-130 -34 -322 -63 l0 -351 l360 0 l0 -116 l-360 0 l0 -1116 l-121 0 l0 907 q-70 -156 -165.5 -314.5 q-95.5 -158.5 -186.5 -267.5 l-98 84 q275 336 430 707 l-381 0 l0 116 l401 0 l0 330 q-227 -34 -352 -45 l-23 115 ZM1382 -55 l213 0 q85 0 110 24.5 q25 24.5 28 108.5 l0 1546 l116 0 l0 -1571 q-2 -121 -52 -172 q-50 -51 -183 -51 l-211 0 l-21 115 ZM1356 1376 l117 0 l0 -1132 l-117 0 l0 1132 ZM881 756 q134 -224 229 -441 l109 56 q-97 211 -238 444 l-100 -59 Z" /><glyph glyph-name="cid3089" unicode="&#x522b;" d="M1120 1534 l0 -582 l-721 0 l0 582 l721 0 ZM313 586 l0 112 l314 0 l4 191 l121 0 l-4 -191 l411 0 q-3 -326 -22 -579 q-11 -128 -64.5 -186 q-53.5 -58 -161.5 -58 l-184 0 l-22 117 l172 0 q42 0 68.5 9.5 q26.5 9.5 40.5 32.5 q14 23 20 46.5 q6 23.5 10 64.5 q15 141 18 441 l-295 0 q-24 -250 -130.5 -436.5 q-106.5 -186.5 -291.5 -331.5 l-84 92 q88 74 149 140 q61 66 113 147 q52 81 83 177 q31 96 43 212 l-308 0 ZM1352 -27 l219 0 q80 0 104.5 33.5 q24.5 33.5 24.5 108.5 l0 1495 l121 0 l0 -1534 q0 -113 -51 -168 q-51 -55 -181 -55 l-217 0 l-20 120 ZM516 1421 l0 -358 l483 0 l0 358 l-483 0 ZM1337 1393 l121 0 l0 -1043 l-121 0 l0 1043 Z" /><glyph glyph-name="cid3093" unicode="&#x5230;" d="M408 1516 l901 0 l0 -109 l-412 0 q-138 -288 -252 -465 q234 9 463 31 q-51 76 -123 176 l96 65 q169 -240 267 -413 l-101 -60 q-62 108 -76 129 q-305 -39 -747 -49 l-6 115 q51 0 78 2 q150 222 262 469 l-350 0 l0 109 ZM373 6 l424 45 l0 359 l-353 0 l0 112 l353 0 l0 258 l118 0 l0 -258 l353 0 l0 -112 l-353 0 l0 -344 q266 32 414 63 l25 -115 q-247 -50 -965 -125 l-16 117 ZM1495 -61 l166 0 q90 0 116.5 29 q26.5 29 26.5 122 l0 1546 l119 0 l0 -1556 q2 -141 -52 -197.5 q-54 -56.5 -190 -56.5 l-161 0 l-25 113 ZM1444 1444 l115 0 l0 -1163 l-115 0 l0 1163 Z" /><glyph glyph-name="cid3099" unicode="&#x5236;" d="M332 975 l469 0 l0 246 l-277 0 q-54 -107 -112 -185 l-97 68 q82 121 130.5 222 q48.5 101 91.5 235 l110 -33 q-34 -117 -69 -195 l223 0 l0 305 l117 0 l0 -305 l372 0 l0 -112 l-372 0 l0 -246 l442 0 l0 -115 l-442 0 l0 -215 l382 0 l0 -452 q0 -98 -43 -150 q-43 -52 -151 -49 l-96 0 l-17 115 l105 0 q47 -3 66.5 19 q19.5 22 19.5 89 l0 315 l-266 0 l0 -737 l-117 0 l0 737 l-271 0 l0 -569 l-120 0 l0 682 l391 0 l0 215 l-469 0 l0 115 ZM1483 -59 l166 0 q87 0 115 24 q28 24 28 90 l0 1581 l117 0 l0 -1591 q4 -124 -50 -171.5 q-54 -47.5 -192 -47.5 l-162 0 l-22 115 ZM1456 1425 l117 0 l0 -1144 l-117 0 l0 1144 Z" /><glyph glyph-name="cid310" unicode="&#x5237;" d="M1262 1063 l-723 0 l0 -129 q0 -179 -5 -302 q-5 -123 -22.5 -274 q-17.5 -151 -56.5 -279.5 q-39 -128.5 -101 -238.5 l-104 56 q59 112 94.5 229 q35.5 117 51.5 260 q16 143 20 258.5 q4 115.5 4 308.5 l0 574 l842 0 l0 -463 ZM872 985 l113 0 l0 -180 l275 0 l0 -592 q-1 -97 -39.5 -131.5 q-38.5 -34.5 -114.5 -36.5 l-80 0 l-20 111 l90 0 q30 0 40.5 13.5 q10.5 13.5 10.5 57.5 l0 467 l-162 0 l0 -882 l-113 0 l0 882 l-155 0 l0 -659 l-113 0 l0 770 l268 0 l0 180 ZM1466 -59 l156 0 q26 0 44.5 2.5 q18.5 2.5 32 6 q13.5 3.5 22 14 q8.5 10.5 13.5 18 q5 7.5 7 28.5 q2 21 2.5 34.5 q0.5 13.5 1.5 45.5 l0 1524 l119 0 l0 -1534 q-1 -74 -10 -118.5 q-9 -44.5 -33.5 -76.5 q-24.5 -32 -67 -44.5 q-42.5 -12.5 -111.5 -12.5 l-153 0 l-23 113 ZM539 1413 l0 -239 l608 0 l0 239 l-608 0 ZM1419 1415 l115 0 l0 -1218 l-115 0 l0 1218 Z" /><glyph glyph-name="cid3103" unicode="&#x523b;" d="M365 840 l69 4 q170 236 246 405 l-369 0 l0 111 l453 0 l0 280 l115 0 l0 -280 l424 0 l0 -111 l-488 0 q-72 -158 -233 -395 q180 13 333 29 q66 106 127 254 l107 -47 q-209 -552 -750 -857 l-69 105 q329 193 504 424 q-153 -17 -459 -37 l-10 115 ZM1427 -61 l189 0 q87 0 118 31.5 q31 31.5 31 123.5 l0 1542 l117 0 l0 -1562 q0 -64 -9 -105.5 q-9 -41.5 -34 -76 q-25 -34.5 -74 -50.5 q-49 -16 -125 -16 l-192 0 l-21 113 ZM299 -66 q303 137 536.5 365.5 q233.5 228.5 344.5 484.5 l106 -51 q-102 -236 -297 -450 q209 -204 322 -328 l-90 -84 q-97 117 -316 326 q-237 -231 -545 -375 l-61 112 ZM1436 1419 l112 0 l0 -1171 l-112 0 l0 1171 Z" /><glyph glyph-name="cid311" unicode="&#x5242;" d="M367 1128 l59 99 q174 -104 369 -230 q113 121 186 301 l-713 0 l0 113 l430 0 l0 221 l119 0 l0 -221 l445 0 l0 -113 l-160 0 q-77 -222 -205 -366 q125 -82 375 -258 l-66 -101 q-260 188 -393 275 q-187 -166 -549 -305 l-45 112 q301 107 490 263 q-122 80 -342 210 ZM1393 -59 l188 0 q87 0 116 30.5 q29 30.5 29 122.5 l0 1540 l121 0 l0 -1560 q0 -64 -9 -105.5 q-9 -41.5 -34 -76 q-25 -34.5 -73.5 -50.5 q-48.5 -16 -124.5 -16 l-193 0 l-20 115 ZM1364 1358 l119 0 l0 -1141 l-119 0 l0 1141 ZM217 -121 q94 73 152.5 140 q58.5 67 88 140 q29.5 73 39 140 q9.5 67 9.5 166 l0 137 l119 0 l0 -131 q0 -114 -13.5 -200 q-13.5 -86 -49 -170.5 q-35.5 -84.5 -100.5 -159 q-65 -74.5 -165 -148.5 l-80 86 ZM922 602 l120 0 l0 -805 l-120 0 l0 805 Z" /><glyph glyph-name="cid312" unicode="&#x524d;" d="M469 1079 l674 0 l0 -1042 q-3 -117 -54 -165 q-51 -48 -157 -48 l-152 0 l-16 115 l145 0 q65 0 87 29.5 q22 29.5 22 84.5 l0 205 l-426 0 l0 -463 l-123 0 l0 1284 ZM315 1366 l537 0 q-93 124 -180 211 l90 80 q156 -175 192 -217 l-94 -74 l445 0 q110 132 196 287 l113 -58 q-65 -106 -158 -229 l524 0 l0 -115 l-1665 0 l0 115 ZM1450 -61 l160 0 q60 0 85 25 q25 25 25 97 l0 1080 l123 0 l0 -1096 q3 -117 -45.5 -169 q-48.5 -52 -150.5 -52 l-177 0 l-20 115 ZM592 612 l0 -243 l426 0 l0 243 l-426 0 ZM592 963 l0 -238 l426 0 l0 238 l-426 0 ZM1370 979 l119 0 l0 -827 l-119 0 l0 827 Z" /><glyph glyph-name="cid3143" unicode="&#x5267;" d="M524 463 l269 0 l0 252 l-324 0 q-9 -289 -57.5 -506.5 q-48.5 -217.5 -153.5 -413.5 l-111 60 q121 216 164 462.5 q43 246.5 43 597.5 l0 613 l850 0 l0 -449 l-297 0 l0 -254 l377 0 l0 -110 l-377 0 l0 -252 l275 0 l0 -594 l-658 0 l0 594 ZM1364 -59 l188 0 q87 0 116.5 30.5 q29.5 30.5 29.5 122.5 l0 1542 l121 0 l0 -1562 q0 -64 -9 -105.5 q-9 -41.5 -34 -76 q-25 -34.5 -74 -50.5 q-49 -16 -125 -16 l-193 0 l-20 115 ZM641 352 l0 -372 l424 0 l0 372 l-424 0 ZM471 1421 l0 -235 l612 0 l0 235 l-612 0 ZM1376 1399 l119 0 l0 -1172 l-119 0 l0 1172 ZM471 893 l0 -68 l322 0 l0 254 l-322 0 l0 -186 Z" /><glyph glyph-name="cid3145" unicode="&#x5269;" d="M1341 1212 l-473 0 l0 234 q161 19 379 57 l-24 109 q-327 -69 -863 -99 l9 -108 q163 5 385 29 l0 -222 l-484 0 l0 -110 l484 0 l0 -514 q-92 -176 -218 -307 q-126 -131 -303 -256 l70 -93 q134 89 254.5 207 q120.5 118 196.5 244 l0 -586 l114 0 l0 1305 l473 0 l0 110 ZM1442 -57 l166 0 q83 0 111 36.5 q28 36.5 28 110.5 l0 1546 l121 0 l0 -1556 q5 -129 -51.5 -191.5 q-56.5 -62.5 -190.5 -62.5 l-162 0 l-22 117 ZM1440 1346 l119 0 l0 -1084 l-119 0 l0 1084 ZM1356 592 l24 -109 q-32 -14 -88.5 -23 q-56.5 -9 -99.5 -9 l-47 0 q-95 1 -125 52 q-30 51 -25 159 l0 362 l111 0 l0 -174 q104 53 178 108 l57 -94 q-107 -78 -235 -131 l0 -61 q0 -71 5 -84 q9 -25 42 -25 l33 0 q81 0 170 29 ZM291 893 l217 0 l0 131 l108 0 l0 -586 l-108 0 l0 109 q-76 -31 -223 -72 l-31 107 q174 46 254 77 l0 125 l-217 0 l0 109 ZM870 362 l74 87 q223 -178 442 -388 l-83 -88 q-179 179 -433 389 Z" /><glyph glyph-name="cid3146" unicode="&#x526a;" d="M514 1223 l670 0 l0 -533 q-3 -89 -41 -127.5 q-38 -38.5 -133 -38.5 l-144 0 l-14 94 l143 0 q47 0 61.5 12.5 q14.5 12.5 14.5 61.5 l0 39 l-444 0 l0 -217 l-113 0 l0 709 ZM451 311 l0 109 l1378 0 q0 -188 -19 -387 q-9 -107 -59.5 -152 q-50.5 -45 -167.5 -45 l-299 0 l-22 113 l288 0 q36 0 50.5 1 q14.5 1 35 6 q20.5 5 28.5 16 q8 11 15 31.5 q7 20.5 9 53.5 q12 117 12 254 l-584 0 q-26 -86 -57.5 -148.5 q-31.5 -62.5 -86 -122 q-54.5 -59.5 -130.5 -101.5 q-76 -42 -189 -76 q-113 -34 -264 -56 l-29 109 q160 26 273 63 q113 37 184 88.5 q71 51.5 110.5 108.5 q39.5 57 63.5 135 l-540 0 ZM373 1421 l528 0 q-67 92 -133 160 l86 68 q16 -18 48 -51.5 q32 -33.5 55.5 -61 q23.5 -27.5 50.5 -61.5 l-70 -54 l401 0 q81 101 148 217 l100 -57 q-54 -87 -110 -160 l493 0 l0 -100 l-1597 0 l0 100 ZM1470 631 l125 0 q71 -3 92 15 q21 18 21 87 l0 512 l117 0 l0 -530 q0 -105 -47.5 -147 q-47.5 -42 -157.5 -42 l-133 0 l-17 105 ZM1360 1167 l110 0 l0 -430 l-110 0 l0 430 ZM627 1124 l0 -104 l444 0 l0 104 l-444 0 ZM627 924 l0 -101 l444 0 l0 101 l-444 0 Z" /><glyph glyph-name="cid3150" unicode="&#x526f;" d="M1300 731 l0 -837 l-882 0 l0 837 l882 0 ZM1223 1276 l0 -389 l-727 0 l0 389 l727 0 ZM1509 -57 l166 0 q83 0 111.5 36.5 q28.5 36.5 28.5 110.5 l0 1546 l120 0 l0 -1556 q5 -129 -51.5 -191.5 q-56.5 -62.5 -189.5 -62.5 l-162 0 l-23 117 ZM1481 1425 l118 0 l0 -1144 l-118 0 l0 1144 ZM1358 1427 l-989 0 l0 107 l989 0 l0 -107 ZM1108 993 l0 174 l-498 0 l0 -174 l498 0 ZM1184 2 l0 268 l-271 0 l0 -268 l271 0 ZM535 270 l0 -268 l264 0 l0 268 l-264 0 ZM1184 623 l-271 0 l0 -246 l271 0 l0 246 ZM535 623 l0 -246 l264 0 l0 246 l-264 0 Z" /><glyph glyph-name="cid3153" unicode="&#x5272;" d="M1296 1008 l-364 0 l0 -146 l321 0 l0 -102 l-321 0 l0 -144 l457 0 l0 -106 l-457 0 l0 -158 l342 0 l0 -467 l-795 0 l0 467 l340 0 l0 158 l-454 0 l0 106 l454 0 l0 144 l-315 0 l0 102 l315 0 l0 146 l-362 0 l0 106 l362 0 l0 160 l113 0 l0 -160 l364 0 l0 -106 ZM1485 -49 l172 0 q90 0 122.5 23 q32.5 23 32.5 98 l0 1542 l117 0 l0 -1551 q0 -121 -48 -173 q-48 -52 -169 -52 l-205 0 l-22 113 ZM410 1157 l0 293 l411 0 l0 188 l111 0 l0 -188 l409 0 l0 -293 l-110 0 l0 186 l-711 0 l0 -186 l-110 0 ZM592 -8 l567 0 l0 254 l-567 0 l0 -254 ZM1493 1417 l115 0 l0 -1126 l-115 0 l0 1126 Z" /><glyph glyph-name="cid3190" unicode="&#x529b;&#xf98a;" d="M250 -92 q214 127 347 261 q133 134 212 316 q79 182 102 428 l17 201 l-535 0 l0 119 l541 0 q14 250 14 405 l129 0 q-8 -270 -16 -405 l723 0 q-29 -853 -60 -1131 q-9 -71 -23 -114.5 q-14 -43.5 -42.5 -77.5 q-28.5 -34 -75 -48 q-46.5 -14 -119.5 -14 l-307 0 l-24 119 l309 0 q77 0 107 32.5 q30 32.5 44 125.5 q17 105 33.5 444.5 q16.5 339.5 20.5 544.5 l-592 0 q-5 -87 -19 -211 q-30 -276 -116.5 -476.5 q-86.5 -200.5 -230.5 -347.5 q-144 -147 -372 -276 l-67 105 Z" /><glyph glyph-name="cid3193" unicode="&#x529e;" d="M406 1321 l526 0 l0 317 l123 0 l0 -317 l561 0 q-6 -309 -21 -679 q-15 -370 -28 -517 q-10 -68 -18.5 -109 q-8.5 -41 -24.5 -77.5 q-16 -36.5 -36 -54 q-20 -17.5 -56.5 -31.5 q-36.5 -14 -80 -18.5 q-43.5 -4.5 -112.5 -6.5 l-192 0 l-21 115 l195 0 q48 -1 78.5 1 q30.5 2 54.5 12 q24 10 36.5 20.5 q12.5 10.5 23.5 38.5 q11 28 16 53 q5 25 14 77 q39 646 41 1059 l-436 0 q-8 -147 -24 -271.5 q-16 -124.5 -45 -257.5 q-29 -133 -75.5 -249 q-46.5 -116 -112.5 -228.5 q-66 -112.5 -159.5 -214 q-93.5 -101.5 -212.5 -188.5 l-78 99 q127 96 223 210 q96 114 160 234 q64 120 107 264 q43 144 64.5 287 q21.5 143 31.5 315 l-522 0 l0 117 ZM647 920 q-103 -362 -278 -594 l-99 73 q173 230 265 562 l112 -41 ZM1872 307 q-119 371 -225 590 l112 49 q60 -134 125 -304.5 q65 -170.5 98 -287.5 l-110 -47 Z" /><glyph glyph-name="cid3194" unicode="&#x529f;" d="M1374 1638 l0 -366 l488 0 q-21 -703 -54 -1174 q-9 -127 -66 -178 q-57 -51 -204 -51 l-162 0 l-22 119 l135 0 q61 0 97 6.5 q36 6.5 57 24.5 q21 18 28.5 41.5 q7.5 23.5 11.5 66.5 q31 360 52 1028 l-363 0 q-7 -231 -35.5 -408 q-28.5 -177 -90.5 -344 q-62 -167 -165 -314.5 q-103 -147.5 -258 -297.5 l-92 92 q147 138 245.5 278.5 q98.5 140.5 156 298 q57.5 157.5 82.5 321 q25 163.5 30 374.5 l-307 0 l0 117 l309 0 l0 366 l127 0 ZM999 334 q-401 -126 -747 -201 l-27 115 q158 32 316 74 l0 983 l-260 0 l0 112 l649 0 l0 -112 l-262 0 l0 -949 q163 47 299 88 l32 -110 Z" /><glyph glyph-name="cid3195" unicode="&#x52a0;" d="M1237 1386 l596 0 l0 -1482 l-596 0 l0 1482 ZM664 1638 l0 -348 l405 0 q-4 -710 -39 -1188 q-6 -61 -18 -102 q-12 -41 -38.5 -78 q-26.5 -37 -75.5 -54.5 q-49 -17.5 -122 -17.5 l-164 0 l-18 117 l141 0 q53 0 83.5 7 q30.5 7 49 28.5 q18.5 21.5 25.5 49 q7 27.5 14 81.5 q35 420 35 1041 l-278 0 l0 -44 q0 -354 -102 -719.5 q-102 -365.5 -294 -607.5 l-100 80 q176 215 274.5 564.5 q98.5 349.5 98.5 701.5 l0 25 l-273 0 l0 116 l273 0 l0 348 l123 0 ZM1360 18 l350 0 l0 1252 l-350 0 l0 -1252 Z" /><glyph glyph-name="cid3196" unicode="&#x52a1;" d="M291 758 q508 97 774 223 q-178 110 -324 270 q-111 -123 -268 -235 l-74 94 q157 114 270 236.5 q113 122.5 218 295.5 l102 -51 l-86 -133 l791 0 l0 -119 q-184 -227 -389 -358 q245 -110 688 -213 l-35 -119 q-490 119 -772 262 q-160 -84 -363 -145 q-203 -61 -504 -125 l-28 117 ZM397 553 l535 0 l20 195 l121 -9 q-10 -116 -16 -186 l676 0 q-10 -205 -43 -512 q-12 -115 -68 -160 q-56 -45 -201 -45 l-274 0 l-19 121 l269 0 q95 0 127 21.5 q32 21.5 41 91.5 q31 238 34 370 l-561 0 q-21 -95 -62 -177.5 q-41 -82.5 -113 -166.5 q-72 -84 -189.5 -161.5 q-117.5 -77.5 -276.5 -143.5 l-63 111 q142 57 247 122 q105 65 170 135 q65 70 102.5 137 q37.5 67 57.5 144 l-514 0 l0 113 ZM817 1339 q156 -181 367 -299 q202 118 356 306 l-719 0 q-4 -4 -4 -7 Z" /><glyph glyph-name="cid3202" unicode="&#x52a8;" d="M1489 1638 l0 -366 l407 0 q-20 -988 -36 -1194 q-6 -81 -19.5 -127.5 q-13.5 -46.5 -47 -75.5 q-33.5 -29 -82.5 -38 q-49 -9 -134 -9 l-129 0 l-23 117 l138 0 q99 -3 132.5 27.5 q33.5 30.5 41.5 105.5 q26 292 37 1077 l-285 0 l0 -96 q-6 -441 -106.5 -750.5 q-100.5 -309.5 -327.5 -527.5 l-97 86 q225 223 314 505.5 q89 282.5 92 696.5 l0 86 l-231 0 l0 117 l231 0 l0 366 l125 0 ZM307 952 l774 0 l0 -112 l-344 0 q-109 -365 -217 -650 q221 22 400 52 q-52 145 -129 331 l108 48 q35 -79 67.5 -165.5 q32.5 -86.5 79.5 -221.5 q47 -135 60 -171 l-115 -43 q-21 67 -35 109 q-433 -61 -649 -76 l-16 117 q60 4 90 8 q132 318 227 662 l-301 0 l0 112 ZM410 1456 l585 0 l0 -117 l-585 0 l0 117 Z" /><glyph glyph-name="cid3203" unicode="&#x52a9;" d="M1143 147 q-131 -33 -416.5 -86 q-285.5 -53 -441.5 -71 l-23 123 l170 24 l0 1356 l590 0 l0 -1247 l94 22 l27 -121 ZM1489 1630 l0 -370 l405 0 q-9 -746 -41 -1190 q-9 -124 -64.5 -168.5 q-55.5 -44.5 -205.5 -44.5 l-162 0 l-22 118 l135 0 q60 0 97.5 9 q37.5 9 58 30.5 q20.5 21.5 29 47.5 q8.5 26 12.5 69 q25 290 38 1012 l-282 0 q-7 -231 -29 -407.5 q-22 -176.5 -69.5 -344.5 q-47.5 -168 -127.5 -312.5 q-80 -144.5 -198 -281.5 l-100 80 q212 242 301 542.5 q89 300.5 100 723.5 l-250 0 l0 117 l252 0 l0 370 l123 0 ZM551 156 q69 12 203 37 q134 25 149 28 l0 318 l-352 0 l0 -383 ZM551 1380 l0 -319 l352 0 l0 319 l-352 0 ZM551 952 l0 -303 l352 0 l0 303 l-352 0 Z" /><glyph glyph-name="cid3204" unicode="&#x52aa;" d="M432 506 l490 0 q0 14 2 22 l12 154 l127 -8 q-6 -93 -12 -156 q0 -2 -1 -6 q-1 -4 -1 -6 l708 0 q-2 -16 -20 -230 q-18 -214 -21 -243 q-12 -115 -68 -160 q-56 -45 -200 -45 l-299 0 l-19 117 l293 0 q95 0 127.5 22.5 q32.5 22.5 40.5 93.5 q3 25 15.5 170 q12.5 145 13.5 158 l-594 0 q-51 -191 -202 -333 q-151 -142 -439 -255 l-61 111 q254 90 389.5 207.5 q135.5 117.5 183.5 269.5 l-465 0 l0 117 ZM428 1063 q31 59 102 246 l-213 0 l0 112 l254 0 q44 133 68 228 l117 -25 q-32 -109 -66 -203 l400 0 l0 -104 q-34 -119 -81.5 -212.5 q-47.5 -93.5 -125.5 -174.5 l198 -117 l-65 -100 q-130 85 -219 139 q-166 -131 -451 -242 l-51 109 q248 79 403 194 q-129 77 -270 150 ZM1167 1491 l693 0 l0 -121 q-98 -264 -248 -430 q144 -116 352 -192 l-53 -117 q-224 94 -383 227 q-145 -128 -385 -237 l-64 106 q220 92 363 211 q-153 156 -244 369 l105 49 q87 -201 223 -340 q145 153 207 362 l-566 0 l0 113 ZM977 1309 l-328 0 q-32 -88 -80 -201 q196 -109 217 -121 q134 131 191 322 Z" /><glyph glyph-name="cid3211" unicode="&#x52b2;" d="M260 51 q174 15 365 47 l0 486 l-293 0 l0 114 l706 0 l0 -114 l-290 0 l0 -467 q236 42 329 63 l19 -108 q132 213 191 471.5 q59 258.5 67 599.5 l-254 0 l0 117 l256 0 l0 370 l123 0 l0 -370 l405 0 q-9 -746 -41 -1190 q-9 -124 -64.5 -168.5 q-55.5 -44.5 -205.5 -44.5 l-162 0 l-22 118 l178 0 q89 0 117 34.5 q28 34.5 36 121.5 q27 304 39 1012 l-282 0 q-14 -460 -106.5 -769.5 q-92.5 -309.5 -317.5 -576.5 l-101 80 q82 94 142 191 q-139 -32 -392.5 -72.5 q-253.5 -40.5 -422.5 -58.5 l-19 114 ZM1075 766 q-191 161 -346 270 q-164 -155 -424 -293 l-63 105 q215 100 385 250 q170 150 239 307 l-522 0 l0 115 l645 0 l0 -115 q-71 -158 -180 -285 q204 -147 342 -258 l-76 -96 Z" /><glyph glyph-name="cid3223" unicode="&#x52bf;" d="M432 465 l518 0 l13 135 l127 -8 q-7 -68 -13 -127 l699 0 q-27 -350 -39 -440 q-15 -116 -71 -160.5 q-56 -44.5 -200 -44.5 l-299 0 l-18 117 l293 0 q94 0 126.5 23 q32.5 23 43.5 93 q19 122 26 299 l-579 0 q-48 -196 -212.5 -333 q-164.5 -137 -471.5 -230 l-51 117 q277 85 419 191.5 q142 106.5 185 254.5 l-496 0 l0 113 ZM1567 696 q-225 162 -275 197 q-100 -143 -313 -279 l-72 95 q201 120 287 249 q-119 80 -166 109 l62 90 l157 -98 q41 98 53 239 l-227 0 l0 111 l232 0 l0 229 l116 0 l0 -229 l336 0 l0 -293 q1 -150 59 -246.5 q58 -96.5 179 -175.5 l-64 -108 q-102 69 -162.5 139 q-60.5 70 -94 165.5 q-33.5 95.5 -36.5 225.5 l0 182 l-221 0 q-12 -179 -69 -305 q155 -105 288 -202 l-69 -95 ZM377 1303 l0 108 l293 0 l0 225 l118 0 l0 -225 l224 0 l0 -108 l-224 0 l0 -240 q118 24 209 47 l25 -113 q-134 -33 -234 -53 l0 -178 q-1 -110 -40.5 -148 q-39.5 -38 -149.5 -36 l-158 0 l-12 114 l160 0 q27 0 37 1 q10 1 23.5 8.5 q13.5 7.5 17.5 24.5 q4 17 4 48 l0 144 q-183 -29 -279 -41 l-20 110 q170 24 299 47 l0 265 l-293 0 Z" /><glyph glyph-name="cid3230" unicode="&#x52c7;&#xfa76;" d="M502 1190 l483 0 q-186 72 -297 113 l47 92 q206 -81 383 -156 q213 74 459 184 l-1153 0 l0 109 l1348 0 l0 -111 q-230 -135 -523 -231 l568 0 l0 -705 l-119 0 l0 150 l-481 0 l0 -117 l-117 0 l0 117 l-479 0 l0 -150 l-119 0 l0 705 ZM397 250 l0 115 l580 0 q9 43 16 127 l121 -7 q-7 -79 -14 -120 l739 0 l-29 -330 q-19 -111 -71.5 -160 q-52.5 -49 -167.5 -49 l-311 0 l-13 113 l301 0 q73 0 102.5 25.5 q29.5 25.5 41.5 105.5 l16 180 l-637 0 q-68 -195 -240.5 -302.5 q-172.5 -107.5 -472.5 -152.5 l-30 109 q259 47 404 124 q145 77 208 222 l-543 0 ZM1217 858 l0 -121 l481 0 l0 121 l-481 0 ZM621 858 l0 -121 l479 0 l0 121 l-479 0 ZM1698 1081 l-481 0 l0 -116 l481 0 l0 116 ZM621 1081 l0 -116 l479 0 l0 116 l-479 0 Z" /><glyph glyph-name="cid3232" unicode="&#x52c9;&#xfa33;" d="M229 1069 q249 255 373 580 l111 -39 q-22 -59 -66 -146 l359 0 l0 -100 q-64 -136 -148 -254 l281 0 l0 -602 l-363 0 q-44 -213 -164.5 -382.5 q-120.5 -169.5 -322.5 -324.5 l-76 97 q173 124 282.5 271.5 q109.5 147.5 157.5 338.5 l-293 0 l0 528 l-45 -47 l-86 80 ZM1417 276 l148 0 q74 -3 102 32 q28 35 35 112 q24 384 27 749 l-230 0 q-9 -371 -88.5 -610.5 q-79.5 -239.5 -282.5 -452.5 l-90 80 q97 99 161 201.5 q64 102.5 101.5 225 q37.5 122.5 55 250.5 q17.5 128 24.5 306 l-237 0 l0 115 l241 0 q5 225 5 350 l118 0 q0 -150 -4 -350 l348 0 q-6 -552 -30 -881 q-9 -128 -58.5 -184 q-49.5 -56 -165.5 -57 l-159 0 l-21 114 ZM1958 49 l22 -112 q-98 -30 -275 -47 q-177 -17 -339 -17 l-352 0 q-116 3 -160 62.5 q-44 59.5 -41 189.5 l0 332 l117 0 l0 -326 q0 -9 1 -29.5 q1 -20.5 1.5 -28.5 q0.5 -8 2.5 -23.5 q2 -15.5 5 -22 q3 -6.5 9.5 -16 q6.5 -9.5 15 -13.5 q8.5 -4 21.5 -7 q13 -3 30 -3 l340 0 q130 0 309.5 16 q179.5 16 292.5 45 ZM1024 999 l-219 0 l0 -206 q0 -84 -10 -172 l229 0 l0 378 ZM473 999 l0 -378 l201 0 q14 85 14 196 l0 182 l-215 0 ZM588 1354 q-77 -130 -168 -244 l299 0 q99 124 151 244 l-282 0 Z" /><glyph glyph-name="cid3234" unicode="&#x52cb;" d="M1487 1135 l-2 -152 q-9 -183 -23.5 -312 q-14.5 -129 -41.5 -255.5 q-27 -126.5 -71 -228 q-44 -101.5 -109.5 -202.5 q-65.5 -101 -158.5 -206 l-96 82 q90 97 152.5 192.5 q62.5 95.5 103 189.5 q40.5 94 65 216 q24.5 122 36.5 242.5 q12 120.5 20 299.5 l2 134 l-209 0 l0 116 l211 0 l8 389 l123 -2 l-8 -387 l385 0 q0 -291 -13.5 -642.5 q-13.5 -351.5 -27.5 -524.5 q-11 -135 -68 -191.5 q-57 -56.5 -202 -56.5 l-140 0 l-18 117 l133 0 q69 0 104 14.5 q35 14.5 50 46 q15 31.5 22 97.5 q12 117 21.5 416.5 q9.5 299.5 9.5 607.5 l-258 0 ZM383 1552 l684 0 l0 -458 l-684 0 l0 458 ZM342 940 l766 0 l0 -649 l-119 0 l0 536 l-528 0 l0 -540 l-119 0 l0 653 ZM205 -82 q85 46 146 85.5 q61 39.5 124 96.5 q63 57 101.5 117.5 q38.5 60.5 63 144 q24.5 83.5 24.5 181.5 l0 186 l120 0 l0 -203 q0 -107 -29 -202.5 q-29 -95.5 -76.5 -168.5 q-47.5 -73 -117 -138 q-69.5 -65 -140 -111.5 q-70.5 -46.5 -155.5 -89.5 l-61 102 ZM498 1442 l0 -238 l454 0 l0 238 l-454 0 ZM754 215 l71 90 q97 -72 258 -227 l-79 -88 q-149 142 -250 225 Z" /><glyph glyph-name="cid3280" unicode="&#x52fe;" d="M291 877 q178 181 292 367 q114 186 193 401 l119 -37 q-51 -141 -96 -230 l1038 0 q-19 -988 -47 -1259 q-19 -168 -84.5 -231 q-65.5 -63 -226.5 -60 l-330 0 l-21 123 l328 0 q42 -1 71 2.5 q29 3.5 50.5 13.5 q21.5 10 34.5 22.5 q13 12.5 22.5 37 q9.5 24.5 14.5 51 q5 26.5 10 69.5 q32 281 43 1115 l-963 0 q-168 -303 -362 -471 l-86 86 ZM1147 762 l106 63 q71 -113 164 -290.5 q93 -177.5 154 -309.5 l-109 -59 l-76 156 q-372 -53 -913 -95 l-14 125 l80 4 q127 170 237 370.5 q110 200.5 182 381.5 l117 -49 q-72 -174 -173.5 -361.5 q-101.5 -187.5 -201.5 -326.5 q345 31 625 69 q-95 185 -178 322 Z" /><glyph glyph-name="cid3281" unicode="&#x52ff;" d="M723 -94 q145 113 255 232.5 q110 119.5 187 240.5 q77 121 133 265 q56 144 90.5 288.5 q34.5 144.5 61.5 329.5 l-258 0 q-52 -200 -109.5 -349.5 q-57.5 -149.5 -143.5 -290.5 q-86 -141 -205 -263.5 q-119 -122.5 -285 -243.5 l-74 102 q291 213 451 457.5 q160 244.5 239 587.5 l-270 0 q-158 -308 -371 -512 l-88 86 q178 182 290 370.5 q112 188.5 203 438.5 l113 -37 q-46 -132 -92 -230 l1042 0 q-19 -988 -47 -1259 q-19 -168 -84.5 -231 q-65.5 -63 -226.5 -60 l-256 0 l-21 123 l254 0 q42 -1 71 2.5 q29 3.5 50.5 13.5 q21.5 10 34.5 22.5 q13 12.5 22.5 37 q9.5 24.5 14.5 51 q5 26.5 10 69.5 q32 281 43 1115 l-178 0 q-23 -138 -45.5 -246.5 q-22.5 -108.5 -56 -228 q-33.5 -119.5 -74 -217 q-40.5 -97.5 -97.5 -202 q-57 -104.5 -127.5 -196 q-70.5 -91.5 -163.5 -185 q-93 -93.5 -206 -182.5 l-86 101 Z" /><glyph glyph-name="cid3287" unicode="&#x5305;" d="M1292 455 l0 596 l-747 0 l0 -924 q0 -64 10.5 -108 q10.5 -44 37 -79.5 q26.5 -35.5 76.5 -51.5 q50 -16 126 -13 l342 0 q237 0 465.5 20 q228.5 20 361.5 58 l-25 121 q-145 -39 -364.5 -59.5 q-219.5 -20.5 -423.5 -20.5 l-350 0 q-82 0 -106.5 32 q-24.5 32 -24.5 113 l0 316 l622 0 ZM274 975 q134 128 258 312.5 q124 184.5 203 361.5 l111 -41 q-50 -113 -88 -181 l1016 0 q0 -402 -31 -911 q-9 -162 -71 -224.5 q-62 -62.5 -202 -62.5 l-188 0 l-16 119 l188 0 q38 -1 58.5 1.5 q20.5 2.5 42 12 q21.5 9.5 33 30 q11.5 20.5 21 55.5 q9.5 35 15.5 90 q10 103 17.5 344.5 q7.5 241.5 7.5 429.5 l-957 0 q-135 -223 -330 -424 l-88 88 ZM1174 567 l-504 0 l0 371 l504 0 l0 -371 Z" /><glyph glyph-name="cid3302" unicode="&#x5316;" d="M752 469 q176 102 354 236 l0 921 l129 0 l0 -815 q303 262 510 584 l106 -72 q-233 -363 -616 -674 l0 -530 q0 -63 28.5 -102.5 q28.5 -39.5 86.5 -39.5 l102 0 q270 0 483 74 l35 -119 q-88 -32 -236.5 -51.5 q-148.5 -19.5 -258.5 -19.5 l-138 0 q-231 0 -231 239 l0 449 q-149 -108 -287 -184 l-67 104 ZM197 713 q373 413 559 934 l118 -43 q-80 -228 -196 -439 l0 -1362 l-125 0 l0 1153 q-127 -192 -258 -329 l-98 86 Z" /><glyph glyph-name="cid3303" unicode="&#x5317;&#xf963;" d="M1974 41 l31 -117 q-185 -59 -430 -59 l-82 0 q-108 0 -158.5 63.5 q-50.5 63.5 -50.5 171.5 l0 1514 l127 0 l0 -676 q113 63 216.5 138.5 q103.5 75.5 242.5 193.5 l80 -92 q-152 -132 -271.5 -216 q-119.5 -84 -267.5 -163 l0 -686 q0 -131 92 -131 l64 0 q213 0 407 59 ZM358 1092 l488 0 l0 520 l127 0 l0 -1807 l-127 0 l0 484 q-104 -64 -239.5 -132 q-135.5 -68 -244.5 -112 l-47 117 q117 46 267 122 q150 76 264 150 l0 541 l-488 0 l0 117 Z" /><glyph glyph-name="cid3320" unicode="&#x532a;" d="M2097 -143 l-1548 0 l0 1677 l1515 0 l0 -115 l-1394 0 l0 -1446 l1427 0 l0 -116 ZM1477 57 l0 1293 l114 0 l0 -209 l404 0 l0 -111 l-404 0 l0 -233 l342 0 l0 -105 l-342 0 l0 -252 l432 0 l0 -110 l-432 0 l0 -273 l-114 0 ZM1157 57 l0 273 l-412 0 l0 110 l412 0 l0 252 l-332 0 l0 109 l332 0 l0 229 l-387 0 l0 111 l387 0 l0 209 l115 0 l0 -1293 l-115 0 Z" /><glyph glyph-name="cid3324" unicode="&#x532e;" d="M2089 -135 l-1561 0 l0 1677 l1526 0 l0 -110 l-1405 0 l0 -1457 l1440 0 l0 -110 ZM1317 1393 l108 0 l0 -105 l426 0 l0 -323 l-426 0 l0 -103 l576 0 l0 -92 l-1262 0 l0 92 l578 0 l0 103 l-428 0 l0 323 l428 0 l0 105 ZM901 274 l0 404 l944 0 l0 -399 l-112 0 l0 301 l-719 0 l0 -306 l-113 0 ZM1425 530 l0 -79 q0 -69 -21 -125.5 q-21 -56.5 -64 -98.5 q-43 -42 -95.5 -73.5 q-52.5 -31.5 -127.5 -56 q-75 -24.5 -147.5 -40.5 q-72.5 -16 -166.5 -32 l-29 104 q108 15 185.5 31.5 q77.5 16.5 148 42.5 q70.5 26 113.5 60 q43 34 68 82.5 q25 48.5 24 111.5 l0 73 l112 0 ZM1937 16 q-317 154 -493 220 l39 92 q293 -111 504 -219 l-50 -93 ZM1739 1053 l0 145 l-314 0 l0 -145 l314 0 ZM1004 1198 l0 -145 l313 0 l0 145 l-313 0 Z" /><glyph glyph-name="cid3335" unicode="&#x533a;" d="M2111 -125 l-1501 0 l0 1663 l1458 0 l0 -117 l-1329 0 l0 -1431 l1372 0 l0 -115 ZM1872 127 q-191 223 -416 477 q-215 -260 -538 -502 l-80 107 q321 225 536 487 q-245 267 -434 459 l88 88 l422 -448 q174 235 307 528 l111 -53 q-156 -331 -334 -568 q206 -222 436 -485 l-98 -90 Z" /><glyph glyph-name="cid3336" unicode="&#x533b;" d="M862 180 q217 77 345.5 180.5 q128.5 103.5 183.5 262.5 l-486 0 l0 112 l512 0 q10 46 13 88 q9 144 12 221 l-281 0 q-79 -139 -155 -237 l-101 70 q170 199 269 473 l108 -41 q-32 -91 -63 -154 l780 0 l0 -111 l-432 0 q-4 -163 -11 -251 l-6 -58 l543 0 l0 -112 l-567 0 l-15 -43 q111 -72 328 -217.5 q217 -145.5 285 -194.5 l-78 -109 q-57 47 -260 188.5 q-203 141.5 -326 221.5 q-150 -257 -547 -401 l-51 112 ZM2142 -121 l-1474 0 l0 1641 l1425 0 l0 -115 l-1298 0 l0 -1411 l1347 0 l0 -115 Z" /><glyph glyph-name="cid3341" unicode="&#x5341;" d="M1118 -205 l0 1028 l-733 0 l0 121 l733 0 l0 688 l129 0 l0 -688 l740 0 l0 -121 l-740 0 l0 -1028 l-129 0 Z" /><glyph glyph-name="cid3343" unicode="&#x5343;" d="M1102 -209 l0 922 l-778 0 l0 116 l778 0 l0 531 q-392 -32 -606 -37 l-11 119 q292 9 669.5 42 q377.5 33 631.5 72 l24 -116 q-251 -40 -587 -70 l0 -541 l764 0 l0 -116 l-764 0 l0 -922 l-121 0 Z" /><glyph glyph-name="cid3347" unicode="&#x5347;" d="M436 1380 q245 42 419.5 84.5 q174.5 42.5 387.5 112.5 l43 -113 q-222 -75 -358 -110 l0 -518 l520 0 l0 784 l127 0 l0 -784 l414 0 l0 -117 l-414 0 l0 -924 l-127 0 l0 924 l-522 0 q-14 -307 -120.5 -523.5 q-106.5 -216.5 -348.5 -402.5 l-84 105 q227 170 322 363.5 q95 193.5 106 457.5 l-469 0 l0 117 l471 0 l0 487 q-151 -33 -342 -63 l-25 120 Z" /><glyph glyph-name="cid3348" unicode="&#x5348;" d="M1169 -203 l0 725 l-796 0 l0 119 l796 0 l0 598 l-426 0 q-123 -215 -278 -381 l-90 84 q149 168 242 328 q93 160 176 368 l116 -34 q-50 -138 -104 -246 l1085 0 l0 -119 l-598 0 l0 -598 l709 0 l0 -119 l-709 0 l0 -725 l-123 0 Z" /><glyph glyph-name="cid335" unicode="&#x534a;" d="M1989 354 l-770 0 l0 -559 l-125 0 l0 559 l-770 0 l0 115 l770 0 l0 358 l-668 0 l0 115 l668 0 l0 696 l125 0 l0 -696 l667 0 l0 -115 l-667 0 l0 -358 l770 0 l0 -115 ZM1378 1116 q106 103 173 197.5 q67 94.5 124 212.5 l107 -58 q-53 -109 -133 -225.5 q-80 -116.5 -176 -206.5 l-95 80 ZM793 1032 q-100 187 -275 410 l100 71 q140 -173 287 -413 l-112 -68 Z" /><glyph glyph-name="cid3354" unicode="&#x534f;" d="M813 1321 l350 0 q4 254 4 317 l119 0 q0 -59 -4 -317 l451 0 q-17 -854 -43 -1208 q-4 -41 -7 -64.5 q-3 -23.5 -11.5 -59 q-8.5 -35.5 -20.5 -56.5 q-12 -21 -33.5 -45.5 q-21.5 -24.5 -50.5 -37.5 q-29 -13 -72 -22.5 q-43 -9.5 -98 -9.5 l-160 0 l-20 116 l161 0 q49 -1 82.5 9 q33.5 10 51.5 21 q18 11 30 43 q12 32 15 50.5 q3 18.5 9 68.5 q0 2 0.5 3.5 q0.5 1.5 0.5 3.5 q31 494 37 1071 l-324 0 q0 -24 -1 -57.5 q-1 -33.5 -1 -42.5 q-9 -456 -120 -768.5 q-111 -312.5 -367 -550.5 l-93 84 q240 226 346 513 q106 287 115 724 q0 6 1 39 q1 33 1 59 l-348 0 l0 117 ZM436 1634 l119 0 l0 -553 l190 0 l0 -112 l-190 0 l0 -1172 l-119 0 l0 1172 l-190 0 l0 112 l190 0 l0 553 ZM1004 952 q-29 -151 -84.5 -327.5 q-55.5 -176.5 -114.5 -298.5 l-109 49 q62 133 114.5 294.5 q52.5 161.5 78.5 305.5 l115 -23 ZM1892 287 q-59 308 -151 643 l110 31 q112 -419 150 -644 l-109 -30 Z" /><glyph glyph-name="cid3358" unicode="&#x5353;" d="M1976 170 l-792 0 l0 -375 l-119 0 l0 375 l-795 0 l0 115 l795 0 l0 215 l-545 0 l0 684 l527 0 l0 456 l118 0 l0 -182 l686 0 l0 -110 l-686 0 l0 -164 l566 0 l0 -684 l-547 0 l0 -215 l792 0 l0 -115 ZM639 612 l973 0 l0 179 l-973 0 l0 -179 ZM639 1073 l0 -176 l973 0 l0 176 l-973 0 Z" /><glyph glyph-name="cid336" unicode="&#x5355;" d="M1092 -207 l0 395 l-773 0 l0 117 l773 0 l0 232 l-570 0 l0 821 l768 0 q97 114 197 287 l106 -58 q-73 -114 -166 -229 l353 0 l0 -821 l-568 0 l0 -232 l770 0 l0 -117 l-770 0 l0 -395 l-120 0 ZM643 1243 l0 -248 l449 0 l0 248 l-449 0 ZM1659 1243 l-447 0 l0 -248 l447 0 l0 248 ZM643 883 l0 -232 l449 0 l0 232 l-449 0 ZM1212 651 l447 0 l0 232 l-447 0 l0 -232 ZM913 1360 q-70 99 -182 215 l86 72 q79 -78 189 -215 l-93 -72 Z" /><glyph glyph-name="cid3360" unicode="&#x5356;" d="M453 1118 l688 0 l0 213 l-555 0 l0 111 l555 0 l0 196 l112 0 l0 -196 l557 0 l0 -111 l-557 0 l0 -213 l680 0 l0 -110 q-12 -55 -51 -154 q-39 -99 -72 -156 l-112 35 q80 159 108 273 l-1353 0 l0 112 ZM430 293 l0 115 l770 0 q31 115 31 251 l0 289 l125 0 l0 -289 q0 -126 -27 -251 l629 0 l0 -115 l-668 0 q-38 -93 -102 -166.5 q-64 -73.5 -140 -124.5 q-76 -51 -180.5 -91.5 q-104.5 -40.5 -206 -66 q-101.5 -25.5 -235.5 -49.5 l-33 119 q328 57 508 146 q180 89 256 233 l-727 0 ZM1323 133 l61 107 q292 -129 615 -336 l-62 -109 q-11 7 -75.5 46.5 q-64.5 39.5 -79 48 q-14.5 8.5 -70 42 q-55.5 33.5 -77.5 45.5 q-22 12 -70.5 39 q-48.5 27 -80.5 42.5 q-32 15.5 -75.5 36 q-43.5 20.5 -85.5 38.5 ZM905 449 q-23 15 -74 46.5 q-51 31.5 -78.5 48.5 q-27.5 17 -68.5 41.5 q-41 24.5 -76 43.5 q-35 19 -69 35 l53 96 q230 -120 375 -217 l-62 -94 ZM1049 666 q-21 14 -69 45 q-48 31 -69.5 45 q-21.5 14 -59 37 q-37.5 23 -71.5 42 q-34 19 -73 39 l53 95 q138 -69 348 -211 l-59 -92 Z" /><glyph glyph-name="cid3361" unicode="&#x5357;" d="M324 1423 l770 0 l0 217 l118 0 l0 -217 l770 0 l0 -114 l-770 0 l0 -219 l652 0 l0 -1033 q0 -59 -8 -96.5 q-8 -37.5 -31.5 -69 q-23.5 -31.5 -68.5 -47 q-45 -15.5 -116 -16.5 l-210 0 l-19 111 l209 0 q43 0 68 6.5 q25 6.5 37 25 q12 18.5 15 39.5 q3 21 3 60 l0 903 l-1184 0 l0 -1176 l-119 0 l0 1293 l654 0 l0 219 l-770 0 l0 114 ZM645 362 l449 0 l0 199 l-379 0 l0 109 l246 0 q-34 62 -152 213 l88 63 q119 -154 162 -215 l-94 -61 l264 0 q115 166 164 280 l106 -47 q-71 -134 -139 -233 l233 0 l0 -109 l-379 0 l0 -199 l451 0 l0 -108 l-451 0 l0 -408 l-120 0 l0 408 l-449 0 l0 108 Z" /><glyph glyph-name="cid3364" unicode="&#x535a;" d="M1298 1638 l115 0 l0 -229 l307 0 q-78 75 -174 143 l66 78 q107 -77 188 -149 l-67 -72 l211 0 l0 -111 l-531 0 l0 -133 l459 0 l0 -714 l-115 0 l0 137 l-344 0 l0 -119 l-115 0 l0 119 l-342 0 l0 -137 l-114 0 l0 714 l456 0 l0 133 l-530 0 l0 111 l530 0 l0 229 ZM940 156 l66 90 l-281 0 l0 110 l879 0 l0 125 l118 0 l0 -125 l265 0 l0 -110 l-265 0 l0 -164 q0 -69 -8.5 -112.5 q-8.5 -43.5 -32.5 -78.5 q-24 -35 -71 -50 q-47 -15 -121 -15 l-197 0 l-22 115 l196 0 q40 0 65.5 6 q25.5 6 40.5 15 q15 9 22 29.5 q7 20.5 8.5 39 q1.5 18.5 1.5 53.5 l0 162 l-598 0 q41 -28 129.5 -95.5 q88.5 -67.5 119.5 -89.5 l-75 -90 q-20 15 -68.5 54.5 q-48.5 39.5 -91.5 73 q-43 33.5 -80 57.5 ZM242 1128 l204 0 l0 508 l119 0 l0 -508 l197 0 l0 -114 l-197 0 l0 -1211 l-119 0 l0 1211 l-204 0 l0 114 ZM1413 823 l0 -133 l344 0 l0 133 l-344 0 ZM1757 1059 l-344 0 l0 -133 l344 0 l0 133 ZM956 1059 l0 -133 l342 0 l0 133 l-342 0 ZM956 823 l0 -133 l342 0 l0 133 l-342 0 Z" /><glyph glyph-name="cid337" unicode="&#x5360;" d="M1239 1645 l125 0 l0 -324 l817 0 l0 -115 l-817 0 l0 -397 l633 0 l0 -940 l-1252 0 l0 940 l494 0 l0 836 ZM1874 -14 l0 710 l-1006 0 l0 -710 l1006 0 Z" /><glyph glyph-name="cid3370" unicode="&#x5361;" d="M1051 1642 l125 0 l0 -294 l659 0 l0 -115 l-659 0 l0 -338 l821 0 l0 -117 l-834 0 l0 -983 l-125 0 l0 983 l-669 0 l0 117 l682 0 l0 747 ZM1864 109 q-280 181 -607 356 l58 104 q347 -181 608 -348 l-59 -112 Z" /><glyph glyph-name="cid338" unicode="&#x536b;" d="M446 1513 l1377 0 q-11 -526 -27 -802 q-4 -91 -29.5 -142.5 q-25.5 -51.5 -93 -79.5 q-67.5 -28 -188.5 -28 l-211 0 l-17 125 l199 0 q41 0 61.5 0.5 q20.5 0.5 47.5 3.5 q27 3 39 9.5 q12 6.5 26.5 17.5 q14.5 11 21 29 q6.5 18 11.5 42.5 q5 24.5 8 59.5 q8 105 14.5 335 q6.5 230 6.5 314 l-613 0 l0 -1377 l910 0 l0 -118 l-1633 0 l0 118 l598 0 l0 1377 l-508 0 l0 116 Z" /><glyph glyph-name="cid3384" unicode="&#x5370;" d="M1247 1487 l682 0 l0 -1098 q0 -138 -48 -195 q-48 -57 -173 -57 l-197 0 l-20 117 l188 0 q73 0 100 28 q27 28 27 105 l0 985 l-434 0 l0 -1573 l-125 0 l0 1688 ZM356 168 l103 27 l0 1261 q347 60 610 148 l43 -125 q-246 -88 -528 -131 l0 -435 l506 0 l0 -116 l-506 0 l0 -566 q266 83 489 181 l39 -115 q-346 -148 -719 -246 l-37 117 Z" /><glyph glyph-name="cid3387" unicode="&#x5373;" d="M852 477 l104 66 q169 -276 256 -473 l-102 -60 q-65 133 -84 168 q-112 -64 -299 -152.5 q-187 -88.5 -295 -131.5 l-51 114 l76 31 l0 1495 l676 0 l0 -897 l-555 0 l0 -543 q217 98 387 195 q-54 94 -113 188 ZM1331 1516 l594 0 l0 -1174 q0 -68 -11.5 -110 q-11.5 -42 -39 -66 q-27.5 -24 -66 -32.5 q-38.5 -8.5 -100.5 -8.5 l-152 0 l-20 115 l158 0 q67 0 90.5 21 q23.5 21 23.5 93 l0 1047 l-356 0 l0 -1606 l-121 0 l0 1721 ZM578 750 l440 0 l0 280 l-440 0 l0 -280 ZM578 1421 l0 -278 l440 0 l0 278 l-440 0 Z" /><glyph glyph-name="cid3388" unicode="&#x5374;" d="M823 844 l404 0 l0 -115 l-457 0 q-45 -133 -117 -283 q-72 -150 -155 -276 q229 11 510 47 q-78 166 -160 311 l104 56 q152 -265 283 -570 l-109 -49 l-65 144 q-370 -52 -785 -70 l-14 123 q59 0 90 2 q192 295 291 565 l-346 0 l0 115 l412 0 l0 360 l-334 0 l0 113 l334 0 l0 321 l114 0 l0 -321 l328 0 l0 -113 l-328 0 l0 -360 ZM1303 1487 l602 0 l0 -1168 q3 -133 -44.5 -179 q-47.5 -46 -177.5 -46 l-133 0 l-20 117 l141 0 q67 0 93.5 21 q26.5 21 23.5 92 l0 1048 l-371 0 l0 -1577 l-114 0 l0 1692 Z" /><glyph glyph-name="cid3390" unicode="&#x5377;" d="M1806 1128 l-704 0 q-30 -104 -74 -194 l914 0 l0 -113 l-527 0 q210 -257 574 -403 l-56 -111 q-224 94 -395 225 l0 -190 q-1 -109 -49.5 -154 q-48.5 -45 -151.5 -45 l-284 0 l-15 117 l246 0 q69 0 99 18 q30 18 30 84 l0 121 l-639 0 l0 -387 q0 -133 111 -133 l235 0 q138 0 340 17 q202 17 355 55 l24 -119 q-290 -70 -706 -70 l-252 0 q-116 -3 -173 54 q-57 57 -57 157 l0 453 q-133 -94 -342 -191 l-59 113 q200 88 336 182.5 q136 94.5 225 206.5 l-516 0 l0 113 l594 0 q52 88 86 194 l-557 0 l0 113 l590 0 q40 163 65 406 l125 -13 q-33 -240 -68 -393 l189 0 q128 153 225 340 l105 -57 q-69 -128 -191 -283 l348 0 l0 -113 ZM1460 598 q-108 96 -194 223 l-301 0 q-82 -124 -201 -223 l696 0 ZM567 1501 q61 -64 96.5 -107 q35.5 -43 96.5 -126 l96 75 q-71 90 -107.5 132.5 q-36.5 42.5 -95.5 101.5 l-86 -76 Z" /><glyph glyph-name="cid3391" unicode="&#x5378;" d="M336 969 l467 0 l0 338 l-201 0 q-65 -137 -151 -258 l-99 65 q84 116 152 260 q68 144 98 266 l111 -28 q-27 -104 -62 -191 l578 0 l0 -114 l-307 0 l0 -338 l366 0 l0 -115 l-366 0 l0 -252 l321 0 l0 -113 l-321 0 l0 -337 q249 44 350 65 l26 -123 q-344 -69 -948 -151 l-18 116 q10 1 160 23 l0 582 l116 0 l0 -564 l195 31 l0 723 l-467 0 l0 115 ZM1380 1495 l562 0 l0 -1133 q0 -139 -48.5 -201.5 q-48.5 -62.5 -169.5 -62.5 l-135 0 l-18 117 l100 0 q85 0 119.5 27 q34.5 27 34.5 106 l0 1032 l-328 0 l0 -1583 l-117 0 l0 1698 Z" /><glyph glyph-name="cid3400" unicode="&#x5382;" d="M401 -209 l-102 66 q115 192 161.5 392 q46.5 200 49.5 480 l0 752 l1442 0 l0 -119 l-1317 0 l0 -651 q-5 -284 -55.5 -506.5 q-50.5 -222.5 -178.5 -413.5 Z" /><glyph glyph-name="cid3403" unicode="&#x5385;" d="M193 -147 q69 104 111 212 q42 108 59.5 249 q17.5 141 21.5 225.5 q4 84.5 5 269.5 q1 60 1 90 l0 637 l1530 0 l0 -117 l-1403 0 l0 -508 q0 -105 -0.5 -163 q-0.5 -58 -3 -152 q-2.5 -94 -8.5 -152.5 q-6 -58.5 -16 -139.5 q-10 -81 -26.5 -141 q-16.5 -60 -39 -128.5 q-22.5 -68.5 -54 -129 q-31.5 -60.5 -71.5 -118.5 l-106 66 ZM862 -57 l217 0 q86 0 118 35 q32 35 32 102 l0 901 l-600 0 l0 115 l1261 0 l0 -115 l-538 0 l0 -905 q0 -127 -53.5 -185.5 q-53.5 -58.5 -186.5 -62.5 l-229 0 l-21 115 Z" /><glyph glyph-name="cid3404" unicode="&#x5386;" d="M739 870 l0 115 l408 0 q8 164 8 328 l123 0 q0 -40 -6 -328 l555 0 q-6 -257 -21.5 -557.5 q-15.5 -300.5 -27.5 -384.5 q-7 -55 -19.5 -91 q-12.5 -36 -41 -66.5 q-28.5 -30.5 -80 -45 q-51.5 -14.5 -128.5 -14.5 l-260 0 l-22 117 l268 0 q80 0 117.5 25 q37.5 25 46.5 95 q10 78 25 360.5 q15 282.5 16 446.5 l-434 0 q-6 -140 -23 -252.5 q-17 -112.5 -56.5 -233.5 q-39.5 -121 -101 -220.5 q-61.5 -99.5 -160 -197.5 q-98.5 -98 -231.5 -181 l-69 106 q121 72 210.5 159 q89.5 87 145.5 176.5 q56 89.5 91.5 199 q35.5 109.5 50 213 q14.5 103.5 18.5 231.5 l-402 0 ZM279 -147 q44 65 78 139 q34 74 56 139 q22 65 38 151.5 q16 86.5 24 147 q8 60.5 13 158.5 q5 98 6 152 q1 54 2 159 l0 610 l1468 0 l0 -116 l-1343 0 l0 -482 q1 -135 -2.5 -239 q-3.5 -104 -17.5 -234 q-14 -130 -38.5 -234.5 q-24.5 -104.5 -69.5 -215 q-45 -110.5 -108 -201.5 l-106 66 Z" /><glyph glyph-name="cid3409" unicode="&#x538b;" d="M1171 1309 l119 0 l0 -461 l494 0 l0 -115 l-494 0 l0 -729 l627 0 l0 -108 l-1352 0 l0 108 l606 0 l0 729 l-471 0 l0 115 l471 0 l0 461 ZM233 -129 q135 204 185 441.5 q50 237.5 47 576.5 l0 637 l1415 0 l0 -115 l-1294 0 l0 -510 q0 -365 -54.5 -627.5 q-54.5 -262.5 -189.5 -476.5 l-109 74 ZM1657 115 q-66 158 -199 397 l105 55 q133 -246 204 -401 l-110 -51 Z" /><glyph glyph-name="cid341" unicode="&#x538c;" d="M1341 1327 l0 -426 q0 -3 -1 -9 q-1 -6 -1 -9 l566 0 l0 -115 l-543 0 q63 -260 226.5 -486.5 q163.5 -226.5 396.5 -377.5 l-72 -109 q-221 145 -383 351.5 q-162 206.5 -236 463.5 q-66 -241 -225.5 -447.5 q-159.5 -206.5 -409.5 -361.5 l-75 105 q260 156 420 379 q160 223 200 483 l-495 0 l0 115 l505 0 q0 2 1.5 7.5 q1.5 5.5 1.5 8.5 l0 428 l124 0 ZM279 -127 q67 107 110 219.5 q43 112.5 64.5 247 q21.5 134.5 28.5 263.5 q7 129 7 315 l0 595 l1455 0 l0 -116 l-1330 0 l0 -467 q-3 -148 -7.5 -243.5 q-4.5 -95.5 -13.5 -208.5 q-9 -113 -24.5 -193 q-15.5 -80 -40 -167.5 q-24.5 -87.5 -61 -163.5 q-36.5 -76 -86.5 -151 l-102 70 ZM1731 948 q-103 103 -246 221 l67 86 q176 -142 254 -225 l-75 -82 Z" /><glyph glyph-name="cid3427" unicode="&#x539f;" d="M752 1196 l366 0 q43 115 70 215 l-621 0 l0 -700 q-11 -333 -63.5 -544.5 q-52.5 -211.5 -175.5 -373.5 l-99 64 q114 168 164.5 371 q50.5 203 50.5 501 l0 797 l1473 0 l0 -115 l-608 0 q-28 -103 -66 -215 l539 0 l0 -698 l-443 0 l0 -465 q6 -210 -163 -213 l-201 0 l-23 117 l195 0 q41 0 55.5 25.5 q14.5 25.5 14.5 78.5 l0 457 l-465 0 l0 698 ZM870 608 l793 0 l0 187 l-793 0 l0 -187 ZM870 1085 l0 -182 l793 0 l0 182 l-793 0 ZM561 -23 q127 95 219.5 187 q92.5 92 177.5 209 l95 -78 q-65 -98 -180.5 -214.5 q-115.5 -116.5 -227.5 -195.5 l-84 92 ZM1874 -113 q-169 206 -379 398 l82 86 q219 -194 393 -400 l-96 -84 Z" /><glyph glyph-name="cid3455" unicode="&#x53bb;" d="M555 1333 l571 0 l0 307 l125 0 l0 -307 l557 0 l0 -114 l-557 0 l0 -431 l731 0 l0 -114 l-817 0 q-139 -229 -235.5 -374.5 q-96.5 -145.5 -206.5 -272.5 q453 12 897 53 q-126 162 -299 375 l94 77 q263 -310 520 -667 l-102 -76 l-127 176 q-244 -26 -622.5 -47 q-378.5 -21 -643.5 -24 l-4 129 l111 0 q142 156 247.5 306.5 q105.5 150.5 217.5 344.5 l-631 0 l0 114 l745 0 l0 431 l-571 0 l0 114 Z" /><glyph glyph-name="cid3461" unicode="&#x53c2;" d="M233 504 q360 148 558 375 l-480 0 l0 112 l568 0 q46 63 108 174 l117 -45 q-48 -87 -76 -129 l881 0 l0 -112 l-475 0 q206 -239 551 -371 l-58 -109 q-207 84 -359.5 202 q-152.5 118 -271.5 278 l-346 0 q-117 -151 -275 -267 q-158 -116 -392 -217 l-50 109 ZM440 1270 q84 0 127 2 q239 182 430 379 l99 -82 q-122 -115 -340 -293 q452 18 678 49 q-59 49 -152 119 l72 84 q94 -66 219 -169.5 q125 -103.5 221 -195.5 l-84 -88 q-65 65 -160 150 q-164 -25 -507 -46 q-343 -21 -594 -24 l-9 115 ZM401 -94 q370 64 664 162 q294 98 604 264 l64 -109 q-314 -177 -615 -278 q-301 -101 -686 -156 l-31 117 ZM512 205 q273 53 498.5 138 q225.5 85 457.5 218 l68 -92 q-440 -274 -993 -381 l-31 117 ZM641 524 q204 44 350.5 96 q146.5 52 298.5 138 l60 -96 q-159 -89 -314.5 -145.5 q-155.5 -56.5 -361.5 -104.5 l-33 112 Z" /><glyph glyph-name="cid3467" unicode="&#x53c8;" d="M477 1491 l1223 0 l0 -117 q-86 -309 -194.5 -540.5 q-108.5 -231.5 -266.5 -417.5 q283 -286 758 -492 l-62 -123 q-498 223 -786 514 q-285 -285 -791 -510 l-63 121 q488 218 762 492 q-149 177 -257 394 q-108 217 -204 509 l117 43 q90 -273 192.5 -478 q102.5 -205 241.5 -370 q143 170 240.5 377 q97.5 207 177.5 481 l-1088 0 l0 117 Z" /><glyph glyph-name="cid3468" unicode="&#x53c9;" d="M426 1497 l1331 0 l0 -123 q-89 -309 -217 -552.5 q-128 -243.5 -309 -438.5 q288 -269 762 -483 l-56 -117 q-492 224 -796 510 q-305 -291 -805 -506 l-57 113 q470 206 772 485 q-170 181 -293.5 403 q-123.5 222 -216.5 504 l114 41 q173 -530 486 -860 q173 184 290.5 406 q117.5 222 198.5 501 l-1204 0 l0 117 ZM1192 840 q-86 165 -223 372 l100 58 q108 -156 225 -371 l-102 -59 Z" /><glyph glyph-name="cid3469" unicode="&#x53ca;" d="M395 1520 l1272 0 l0 -111 l-250 -401 l389 0 l-2 -123 q-154 -389 -387 -625 q239 -211 561 -350 l-61 -115 q-349 159 -590 381 q-228 -197 -643 -387 l-63 115 q383 164 616 358 q-273 283 -418 672 q-2 -6 -2 -16 q-39 -332 -152 -587.5 q-113 -255.5 -331 -492.5 l-92 84 q212 222 312.5 459 q100.5 237 139.5 561 q30 254 37 463 l-336 0 l0 115 ZM856 1405 l-14 -213 q163 -520 485 -848 q225 222 340 547 l-403 0 l0 110 l252 404 l-660 0 Z" /><glyph glyph-name="cid3470" unicode="&#x53cb;" d="M549 -74 q383 132 625 326 q-202 200 -349 500 q-70 -240 -181.5 -445 q-111.5 -205 -281.5 -409 l-100 84 q232 263 358.5 556 q126.5 293 184.5 711 l-459 0 l0 117 l473 0 q15 130 27 283 l125 -9 q-12 -148 -27 -274 l993 0 l0 -117 l-1007 0 q-19 -130 -56 -309 l842 0 l-2 -115 q-126 -346 -348 -571 q245 -198 592 -330 l-55 -125 q-391 167 -633 367 q-245 -203 -672 -359 l-49 119 ZM926 823 q135 -283 344 -485 q208 203 305 485 l-649 0 Z" /><glyph glyph-name="cid3471" unicode="&#x53cc;" d="M1212 1337 q62 -514 232 -835 q93 171 148 376 q55 205 89 476 l-649 0 l0 116 l783 0 l0 -108 q-49 -331 -116 -562.5 q-67 -231.5 -181 -422.5 q172 -261 458 -467 l-75 -111 q-289 214 -459 463 q-164 -232 -463 -467 l-82 105 q300 220 473 479 q-104 186 -170 411.5 q-66 225.5 -113 526.5 l125 20 ZM319 1118 l101 66 q117 -188 285 -473 q89 253 133 620 l-549 0 l0 115 l680 0 l0 -113 q-62 -463 -183 -762 l215 -368 l-110 -66 l-166 301 q-135 -266 -418 -581 l-94 92 q153 162 258 311.5 q105 149.5 176 308.5 q-178 307 -328 549 Z" /><glyph glyph-name="cid3472" unicode="&#x53cd;" d="M766 868 l119 54 q75 -168 166 -309 q91 -141 217 -263 q228 237 338 574 l-926 0 l0 -97 q0 -324 -71 -571 q-71 -247 -218 -449 l-100 74 q137 177 201.5 402.5 q64.5 225.5 64.5 527.5 l0 664 q306 12 656 43.5 q350 31.5 575 68.5 l24 -119 q-210 -36 -547 -67.5 q-337 -31.5 -585 -40.5 l0 -320 l1059 0 l-2 -114 q-134 -399 -379 -658 q254 -206 614 -344 l-55 -125 q-396 167 -649 383 q-254 -229 -656 -375 l-49 115 q364 126 613 342 q-132 130 -224.5 273 q-92.5 143 -185.5 331 Z" /><glyph glyph-name="cid3476" unicode="&#x53d1;" d="M307 90 q226 211 375.5 451.5 q149.5 240.5 235.5 543.5 l-441 0 l0 111 q87 282 105 363 l118 -21 q-15 -79 -98 -336 l346 0 q46 196 70 436 l121 -8 q-25 -218 -72 -428 l870 0 l0 -117 l-899 0 q-37 -134 -84 -260 l760 0 l0 -112 q-118 -315 -334 -518 q234 -169 568 -269 l-52 -121 q-363 118 -614 304 q-250 -195 -649 -314 l-47 121 q354 100 598 277 q-196 176 -320 428 q-173 -349 -473 -621 l-84 90 ZM942 711 q121 -251 340 -439 q210 187 299 439 l-639 0 ZM1380 1507 q157 -131 269 -258 l84 84 q-100 105 -277 256 l-76 -82 Z" /><glyph glyph-name="cid3481" unicode="&#x53d6;" d="M297 1522 l842 0 l0 -111 l-131 0 l0 -1042 l159 34 l25 -114 q-147 -34 -184 -41 l0 -449 l-117 0 l0 424 q-217 -42 -610 -106 l-19 121 q16 3 71 10.5 q55 7.5 85 13.5 l0 1149 l-121 0 l0 111 ZM1329 1266 q59 -426 209 -746 q157 339 197 809 l-570 0 l0 113 l697 0 l0 -113 q-59 -563 -254 -946 q155 -274 389 -496 l-88 -96 q-225 208 -375 461 q-154 -252 -395 -457 l-86 92 q252 215 411 492 q-180 357 -262 864 l127 23 ZM535 1010 l0 -303 l356 0 l0 303 l-356 0 ZM535 1411 l0 -291 l356 0 l0 291 l-356 0 ZM535 283 l356 63 l0 252 l-356 0 l0 -315 Z" /><glyph glyph-name="cid3482" unicode="&#x53d7;" d="M672 715 l1022 0 l0 -119 q-136 -262 -363 -434 q255 -155 649 -238 l-38 -123 q-435 96 -719 285 q-289 -179 -766 -285 l-39 119 q428 93 696 248 q-162 127 -338 344 l94 80 q95 -116 178.5 -202.5 q83.5 -86.5 174.5 -153.5 q208 149 333 366 l-884 0 l0 113 ZM444 631 l0 397 l996 0 q124 147 237 350 l111 -59 q-104 -174 -201 -291 l371 0 l0 -397 l-119 0 l0 282 l-1278 0 l0 -282 l-117 0 ZM1858 1581 l16 -108 q-218 -37 -672.5 -69 q-454.5 -32 -714.5 -28 l-4 111 q291 4 707.5 29.5 q416.5 25.5 667.5 64.5 ZM1206 1057 q-66 141 -137 256 l105 57 q80 -139 141 -258 l-109 -55 ZM788 1030 q-60 109 -157 234 l98 67 q78 -108 162 -233 l-103 -68 Z" /><glyph glyph-name="cid3483" unicode="&#x53d8;" d="M592 674 l1108 0 l0 -109 q-167 -265 -393 -424 q274 -137 678 -200 l-35 -123 q-452 74 -762 250 q-297 -169 -760 -252 l-35 121 q402 72 674 208 q-186 129 -360 336 l88 78 l-203 0 l0 115 ZM422 1417 l702 0 l0 223 l117 0 l0 -223 l705 0 l0 -110 l-508 0 l0 -527 l-115 0 l0 527 l-283 0 l0 -527 l-114 0 l0 527 l-504 0 l0 110 ZM795 559 q178 -214 389 -348 q220 135 368 348 l-757 0 ZM385 815 q130 106 208 188.5 q78 82.5 161 208.5 l98 -71 q-154 -232 -383 -416 l-84 90 ZM1890 750 q-35 42 -70.5 80 q-35.5 38 -60 63.5 q-24.5 25.5 -64 62 q-39.5 36.5 -57 52 q-17.5 15.5 -66.5 58 q-49 42.5 -67 58.5 l78 86 q224 -178 397 -376 l-90 -84 Z" /><glyph glyph-name="cid3491" unicode="&#x53e0;" d="M1987 -123 l-1676 0 l0 100 l312 0 l0 543 l1052 0 l0 -543 l312 0 l0 -100 ZM1792 1159 q-218 46 -578 111 q-274 -70 -690 -107 l-18 90 q276 21 479 58 q-34 6 -342 53 l25 86 q277 -40 551 -88 q158 40 307 108 l-994 0 l0 93 l1192 0 l0 -90 q-154 -87 -321 -146 q148 -27 409 -80 l-20 -88 ZM383 408 l0 292 l1530 0 l0 -292 l-117 0 l0 196 l-1296 0 l0 -196 l-117 0 ZM1907 727 q-53 21 -355 123 q-144 -55 -383 -100 l-24 90 q165 30 260 59 l-168 53 l31 82 l282 -88 q124 51 193 109 l-553 0 l0 88 l700 0 l0 -82 q-89 -89 -213 -154 q58 -18 265 -86 l-35 -94 ZM1069 754 q-100 37 -299 104 q-155 -64 -391 -115 l-25 88 q139 29 277 70 q-48 15 -185 53 l33 84 q256 -72 297 -84 q97 41 172 101 l-528 0 l0 88 l680 0 l0 -78 q-85 -82 -205 -147 q74 -24 215 -74 l-41 -90 ZM741 76 l0 -99 l815 0 l0 99 l-815 0 ZM741 430 l0 -94 l815 0 l0 94 l-815 0 ZM741 252 l0 -92 l815 0 l0 92 l-815 0 Z" /><glyph glyph-name="cid3494" unicode="&#x53e3;" d="M2007 -66 l-1352 0 l0 1498 l1352 0 l0 -1498 ZM1882 51 l0 1262 l-1106 0 l0 -1262 l1106 0 Z" /><glyph glyph-name="cid3495" unicode="&#x53e4;" d="M1085 1638 l127 0 l0 -358 l781 0 l0 -117 l-781 0 l0 -413 l539 0 l0 -883 l-1192 0 l0 883 l526 0 l0 413 l-774 0 l0 117 l774 0 l0 358 ZM1626 -16 l0 649 l-940 0 l0 -649 l940 0 Z" /><glyph glyph-name="cid3496" unicode="&#x53e5;&#xf906;" d="M635 985 l776 0 l0 -698 l-776 0 l0 698 ZM344 973 q156 156 265.5 319 q109.5 163 201.5 363 l111 -49 q-45 -107 -105 -215 l1065 0 q-24 -1113 -33 -1291 q-8 -151 -69.5 -213 q-61.5 -62 -206.5 -59 l-354 0 l-25 121 l365 0 q36 0 57 1.5 q21 1.5 40.5 8 q19.5 6.5 29.5 17 q10 10.5 18.5 31 q8.5 20.5 12 47 q3.5 26.5 5.5 67.5 q21 377 31 1155 l-1005 0 q-122 -192 -316 -395 l-88 92 ZM754 872 l0 -473 l536 0 l0 473 l-536 0 Z" /><glyph glyph-name="cid3497" unicode="&#x53e6;" d="M1757 1526 l0 -639 l-1200 0 l0 639 l1200 0 ZM406 625 l530 0 l16 217 l127 -8 q-8 -135 -14 -209 l752 0 q-21 -415 -39 -584 q-12 -115 -70 -160 q-58 -45 -203 -45 l-270 0 l-18 121 l264 0 q96 0 129.5 21.5 q33.5 21.5 42.5 91.5 q23 183 30 438 l-634 0 q-19 -108 -60 -198.5 q-41 -90.5 -115.5 -181.5 q-74.5 -91 -195.5 -174 q-121 -83 -289 -157 l-61 111 q147 64 255.5 136.5 q108.5 72.5 175.5 149.5 q67 77 105 152.5 q38 75.5 56 161.5 l-514 0 l0 117 ZM1634 999 l0 414 l-954 0 l0 -414 l954 0 Z" /><glyph glyph-name="cid3501" unicode="&#x53ea;" d="M1731 612 l-1141 0 l0 893 l1141 0 l0 -893 ZM1610 727 l0 662 l-901 0 l0 -662 l901 0 ZM975 424 q-96 -171 -250.5 -335.5 q-154.5 -164.5 -302.5 -260.5 l-86 102 q159 108 302 259 q143 151 232 311 l105 -76 ZM1849 -201 q-265 351 -503 604 l96 86 q116 -126 265 -303.5 q149 -177.5 247 -302.5 l-105 -84 Z" /><glyph glyph-name="cid3502" unicode="&#x53eb;" d="M504 1434 l557 0 l0 -1239 l-557 0 l0 1239 ZM1845 1638 l125 0 l0 -1841 l-125 0 l0 631 q-299 -100 -612 -176 l-33 117 l111 28 l0 1090 l123 0 l0 -1057 q278 80 411 127 l0 1081 ZM629 305 l309 0 l0 1018 l-309 0 l0 -1018 Z" /><glyph glyph-name="cid3503" unicode="&#x53ec;" d="M559 -133 l0 760 l1210 0 l0 -760 l-1210 0 ZM684 -18 l961 0 l0 530 l-961 0 l0 -530 ZM434 1399 l0 114 l1413 0 q-16 -280 -41 -485 q-8 -66 -22 -109 q-14 -43 -42.5 -78.5 q-28.5 -35.5 -77 -50.5 q-48.5 -15 -120.5 -14 l-250 0 l-20 119 l264 0 q43 1 70 10.5 q27 9.5 40.5 30.5 q13.5 21 19 40 q5.5 19 11.5 53 q1 4 1.5 7 q0.5 3 0.5 6 q26 192 33 357 l-667 0 q-21 -119 -62 -215 q-41 -96 -114 -185 q-73 -89 -184.5 -165.5 q-111.5 -76.5 -266.5 -145.5 l-60 111 q184 82 299 170.5 q115 88.5 175.5 190.5 q60.5 102 85.5 239 l-486 0 Z" /><glyph glyph-name="cid3506" unicode="&#x53ef;" d="M1274 1108 l0 -815 l-701 0 l0 815 l701 0 ZM319 1497 l1661 0 l0 -113 l-258 0 l0 -1314 q-1 -63 -10.5 -104.5 q-9.5 -41.5 -35 -73.5 q-25.5 -32 -72 -47.5 q-46.5 -15.5 -117.5 -16.5 l-248 0 l-22 115 l253 0 q81 1 104 32 q23 31 23 103 l0 1306 l-1278 0 l0 113 ZM692 995 l0 -589 l461 0 l0 589 l-461 0 Z" /><glyph glyph-name="cid3507" unicode="&#x53f0;" d="M1784 625 l0 -760 l-1190 0 l0 760 l1190 0 ZM1663 -18 l0 530 l-948 0 l0 -530 l948 0 ZM1888 739 q-102 128 -137 170 q-429 -55 -1329 -80 l-8 123 l110 0 q135 124 290.5 324 q155.5 200 272.5 393 l119 -67 q-278 -417 -497 -644 q615 19 952 56 q-141 159 -283 301 l82 80 q217 -205 527 -574 l-99 -82 Z" /><glyph glyph-name="cid3509" unicode="&#x53f2;" d="M539 545 l96 69 q138 -193 295 -315 q110 146 127 369 l-588 0 l0 692 l596 0 l4 278 l125 0 q-2 -124 -2 -278 l573 0 l0 -692 l-581 0 q-23 -261 -152 -441 q166 -103 387.5 -169.5 q221.5 -66.5 528.5 -104.5 l-31 -125 q-332 48 -562 120.5 q-230 72.5 -403 186.5 q-208 -208 -653 -336 l-49 113 q407 124 598 299 q-152 121 -309 334 ZM594 1241 l0 -457 l469 0 q0 10 1 175.5 q1 165.5 1 281.5 l-471 0 ZM1640 784 l0 457 l-450 0 l0 -442 l0 -15 l450 0 Z" /><glyph glyph-name="cid3510" unicode="&#x53f3;" d="M1739 764 l0 -899 l-1086 0 l0 739 q-182 -224 -364 -366 l-84 98 q455 380 680 885 l-592 0 l0 116 l639 0 q58 153 94 314 l119 -25 q-40 -172 -84 -289 l864 0 l0 -116 l-909 0 q-95 -233 -246 -457 l969 0 ZM1616 -18 l0 665 l-838 0 l0 -665 l838 0 Z" /><glyph glyph-name="cid3513" unicode="&#x53f6;" d="M975 1425 l0 -1286 l-524 0 l0 1286 l524 0 ZM1493 1636 l123 0 l0 -671 l450 0 l0 -117 l-450 0 l0 -1045 l-123 0 l0 1045 l-455 0 l0 117 l455 0 l0 671 ZM563 1313 l0 -1059 l297 0 l0 1059 l-297 0 Z" /><glyph glyph-name="cid3514" unicode="&#x53f7;" d="M1712 1047 l-1137 0 l0 507 l1137 0 l0 -507 ZM283 840 l1704 0 l0 -115 l-1196 0 l-50 -250 l996 0 q-6 -206 -23 -377 q-7 -70 -23.5 -112.5 q-16.5 -42.5 -54.5 -74.5 q-38 -32 -104 -45 q-66 -13 -170 -13 l-365 0 l-20 118 l383 0 q72 0 111 5.5 q39 5.5 64 24.5 q25 19 33.5 46.5 q8.5 27.5 14.5 81.5 q14 138 14 231 l-1007 0 l74 365 l-381 0 l0 115 ZM1595 1157 l0 289 l-903 0 l0 -289 l903 0 Z" /><glyph glyph-name="cid3515" unicode="&#x53f8;" d="M1475 844 l0 -666 l-840 0 l0 666 l840 0 ZM530 1513 l1412 0 q0 -1064 -13 -1423 q-6 -149 -65.5 -205.5 q-59.5 -56.5 -223.5 -56.5 l-239 0 l-25 113 l258 0 q58 0 94.5 11.5 q36.5 11.5 53 37.5 q16.5 26 21 49.5 q4.5 23.5 5.5 64.5 q17 497 13 1301 l-1289 0 l-2 108 ZM1362 289 l0 446 l-612 0 l0 -446 l612 0 ZM1645 1065 l-1178 0 l0 111 l1178 0 l0 -111 Z" /><glyph glyph-name="cid3526" unicode="&#x5403;" d="M934 1415 l0 -1276 l-492 0 l0 1276 l492 0 ZM1901 799 q-363 -342 -512.5 -506 q-149.5 -164 -149.5 -227 q0 -44 37 -67.5 q37 -23.5 104 -23.5 l207 0 q263 0 496 86 l35 -116 q-97 -38 -239 -62 q-142 -24 -284 -24 l-229 0 q-248 0 -248 194 q0 111 121 251.5 q121 140.5 492 496.5 l-590 0 l0 117 l760 0 l0 -119 ZM563 1303 l0 -1049 l250 0 l0 1049 l-250 0 ZM971 1012 q229 278 358 626 l113 -43 q-42 -108 -109 -239 l701 0 l0 -117 l-762 0 q-105 -180 -203 -301 l-98 74 Z" /><glyph glyph-name="cid3527" unicode="&#x5404;" d="M623 -152 l0 721 l1087 0 l0 -721 l-1087 0 ZM356 657 q421 101 697 246 q-201 137 -336 309 q-102 -105 -217 -198 l-82 90 q155 119 274.5 264 q119.5 145 194.5 281 l106 -50 q-41 -81 -80 -137 l781 0 l0 -106 q-97 -152 -194.5 -262 q-97.5 -110 -215.5 -195 q256 -135 690 -246 l-43 -116 q-442 106 -757 288 q-140 -83 -327 -151 q-187 -68 -454 -137 l-37 120 ZM745 -39 l842 0 l0 498 l-842 0 l0 -498 ZM834 1352 l-39 -52 q155 -195 370 -331 q245 154 381 383 l-712 0 Z" /><glyph glyph-name="cid3531" unicode="&#x5408;" d="M1688 -139 l-1156 0 l0 747 l1156 0 l0 -747 ZM1565 -25 l0 519 l-908 0 l0 -519 l908 0 ZM1933 827 q-252 123 -469 304.5 q-217 181.5 -352 386.5 q-136 -198 -340 -378 q-204 -180 -473 -323 l-61 115 q514 262 813 715 l123 0 q131 -213 348 -396.5 q217 -183.5 471 -304.5 l-60 -119 ZM651 973 l908 0 l0 -111 l-908 0 l0 111 Z" /><glyph glyph-name="cid3532" unicode="&#x5409;" d="M1778 549 l0 -686 l-1162 0 l0 686 l1162 0 ZM1653 -25 l0 461 l-914 0 l0 -461 l914 0 ZM1137 1640 l120 0 l0 -303 l721 0 l0 -114 l-721 0 l0 -330 l607 0 l0 -117 l-1340 0 l0 117 l613 0 l0 330 l-727 0 l0 114 l727 0 l0 303 Z" /><glyph glyph-name="cid3533" unicode="&#x540a;" d="M569 694 l637 0 l0 250 l-506 0 l0 574 l1141 0 l0 -574 l-508 0 l0 -250 l619 0 l0 -473 q0 -122 -51.5 -174.5 q-51.5 -52.5 -167.5 -52.5 l-181 0 l-22 121 l192 0 q32 0 51.5 4.5 q19.5 4.5 31 11 q11.5 6.5 16.5 24 q5 17.5 6.5 34 q1.5 16.5 1.5 51.5 l0 338 l-496 0 l0 -781 l-127 0 l0 781 l-514 0 l0 -607 l-123 0 l0 723 ZM1718 1059 l0 344 l-895 0 l0 -344 l895 0 Z" /><glyph glyph-name="cid3535" unicode="&#x540c;" d="M565 1520 l1417 0 l0 -1448 q1 -143 -50.5 -193.5 q-51.5 -50.5 -186.5 -50.5 l-225 0 l-21 113 l232 0 q87 0 110 22.5 q23 22.5 23 112.5 l0 1331 l-1178 0 l0 -1614 l-121 0 l0 1727 ZM926 846 l676 0 l0 -625 l-676 0 l0 625 ZM1042 735 l0 -405 l447 0 l0 405 l-447 0 ZM821 1178 l899 0 l0 -109 l-899 0 l0 109 Z" /><glyph glyph-name="cid3536" unicode="&#x540d;" d="M348 987 q220 133 389.5 304.5 q169.5 171.5 278.5 357.5 l102 -54 q-56 -101 -121 -186 l770 0 l0 -109 q-246 -404 -790 -667 l805 0 l0 -768 l-1096 0 l0 645 q-170 -62 -389 -119 l-35 119 q420 103 748 276 q-88 91 -258 224 l79 84 q181 -150 285 -248 q367 214 498 452 l-707 0 q-202 -227 -489 -409 l-70 98 ZM805 520 l0 -543 l858 0 l0 543 l-858 0 Z" /><glyph glyph-name="cid3537" unicode="&#x540e;" d="M772 649 l1002 0 l0 -782 l-1002 0 l0 782 ZM1804 1440 q-214 -36 -570 -62 q-356 -26 -624 -26 l0 -279 l1329 0 l0 -117 l-1329 0 l0 -149 q0 -332 -62.5 -567 q-62.5 -235 -205.5 -433 l-109 74 q135 175 192.5 389 q57.5 214 57.5 521 l0 675 q300 0 683 27.5 q383 27.5 614 65.5 l24 -119 ZM897 537 l0 -557 l756 0 l0 557 l-756 0 Z" /><glyph glyph-name="cid3539" unicode="&#x5410;" d="M954 1419 l0 -1335 l-487 0 l0 1335 l487 0 ZM2003 893 l-395 0 l0 -887 l475 0 l0 -117 l-1088 0 l0 117 l488 0 l0 887 l-404 0 l0 115 l404 0 l0 630 l125 0 l0 -630 l395 0 l0 -115 ZM584 1305 l0 -1104 l254 0 l0 1104 l-254 0 Z" /><glyph glyph-name="cid3540" unicode="&#x5411;" d="M1864 80 l0 1171 l-1157 0 l0 -1454 l-121 0 l0 1569 l467 0 q58 96 118 285 l117 -33 q-37 -129 -100 -252 l797 0 l0 -1294 q0 -128 -57.5 -186 q-57.5 -58 -182.5 -60 l-201 0 l-20 117 l196 0 q78 0 111 29 q33 29 33 108 ZM952 958 l643 0 l0 -735 l-643 0 l0 735 ZM1067 848 l0 -514 l414 0 l0 514 l-414 0 Z" /><glyph glyph-name="cid3546" unicode="&#x5417;" d="M418 1434 l489 0 l0 -1299 l-489 0 l0 1299 ZM1067 1536 l786 0 l-71 -750 l196 0 q-8 -370 -41 -716 q-8 -69 -22.5 -111.5 q-14.5 -42.5 -46 -74.5 q-31.5 -32 -83.5 -45 q-52 -13 -134 -13 l-301 0 l-19 119 l293 0 q57 0 88.5 4.5 q31.5 4.5 52.5 20 q21 15.5 29 39.5 q8 24 14 69 q13 104 24.5 278 q11.5 174 14.5 316 l-721 0 l60 588 l125 -9 l-47 -465 l391 0 l61 633 l-649 0 l0 117 ZM539 246 l249 0 l0 1077 l-249 0 l0 -1077 ZM995 393 l719 0 l0 -114 l-719 0 l0 114 Z" /><glyph glyph-name="cid3553" unicode="&#x541e;" d="M592 -150 l0 701 l1085 0 l0 -701 l-1085 0 ZM1931 424 q-229 98 -408.5 237 q-179.5 139 -281.5 312 l-223 0 q-100 -151 -260.5 -279.5 q-160.5 -128.5 -405.5 -261.5 l-61 113 q393 190 579 428 l-505 0 l0 110 l581 0 q87 150 121 328 l-557 0 l0 111 l1249 0 l0 -111 l-569 0 q-37 -180 -109 -328 l828 0 l0 -110 l-533 0 q204 -272 604 -436 l-49 -113 ZM715 -35 l839 0 l0 471 l-839 0 l0 -471 Z" /><glyph glyph-name="cid3554" unicode="&#x541f;" d="M860 1446 l0 -1407 l-467 0 l0 1407 l467 0 ZM512 1333 l0 -1181 l227 0 l0 1181 l-227 0 ZM1536 1636 q80 -200 231 -410.5 q151 -210.5 316 -336.5 l-76 -101 q-153 121 -296 317.5 q-143 196.5 -234 387.5 q-214 -477 -533 -705 l-78 93 q181 136 309 316.5 q128 180.5 236 438.5 l125 0 ZM1004 524 l755 0 q-46 -166 -144 -343.5 q-98 -177.5 -233 -327.5 l101 -74 q125 128 242 342.5 q117 214.5 165 419.5 l0 98 l-886 0 l0 -115 ZM1309 1042 q133 -157 245 -335 l103 65 q-107 165 -256 346 l-92 -76 Z" /><glyph glyph-name="cid3561" unicode="&#x5426;" d="M569 537 l1162 0 l0 -680 l-1162 0 l0 680 ZM1610 -29 l0 451 l-920 0 l0 -451 l920 0 ZM1931 1382 l-626 0 q-97 -128 -209 -231 l121 0 l0 -535 l-121 0 l0 533 q-276 -257 -725 -444 l-52 112 q293 118 500 264 q207 146 334 301 l-778 0 l0 115 l1556 0 l0 -115 ZM1931 700 q-300 186 -651 349 l55 102 q409 -195 650 -336 l-54 -115 Z" /><glyph glyph-name="cid3562" unicode="&#x5427;" d="M1948 662 l-787 0 l0 -494 q0 -87 30 -130.5 q30 -43.5 99 -43.5 l207 0 q143 0 292.5 19 q149.5 19 260.5 53 l33 -113 q-98 -35 -261.5 -55.5 q-163.5 -20.5 -326.5 -20.5 l-205 0 q-141 0 -196.5 66.5 q-55.5 66.5 -55.5 210.5 l0 1357 l910 0 l0 -849 ZM889 1458 l0 -1315 l-479 0 l0 1315 l479 0 ZM528 1343 l0 -1085 l240 0 l0 1085 l-240 0 ZM1823 1395 l-273 0 l0 -619 l273 0 l0 619 ZM1161 1395 l0 -619 l271 0 l0 619 l-271 0 Z" /><glyph glyph-name="cid3566" unicode="&#x542b;" d="M1151 541 q81 62 161.5 141 q80.5 79 131.5 149 l-907 0 l0 113 l1058 0 l0 -106 q-70 -106 -161 -203.5 q-91 -97.5 -185 -167.5 l434 0 l0 -619 l-1169 0 l0 619 l707 0 l-70 74 ZM641 -37 l915 0 l0 393 l-915 0 l0 -393 ZM1929 893 q-240 111 -466 286.5 q-226 175.5 -361 344.5 q-144 -178 -357 -344 q-213 -166 -471 -285 l-57 111 q521 232 819 636 l127 0 q132 -182 351 -352.5 q219 -170.5 475 -283.5 l-60 -113 ZM1151 993 q-104 144 -184 221 l84 72 q90 -96 192 -223 l-92 -70 Z" /><glyph glyph-name="cid3567" unicode="&#x542c;" d="M459 1452 l485 0 l0 -1257 l-485 0 l0 1257 ZM1970 1464 q-142 -39 -356 -73.5 q-214 -34.5 -348 -44.5 l0 -422 l786 0 l0 -117 l-280 0 l0 -1004 l-123 0 l0 1004 l-383 0 l0 -14 q1 -144 -9.5 -262.5 q-10.5 -118.5 -40 -250 q-29.5 -131.5 -90 -252.5 q-60.5 -121 -151.5 -225 l-96 82 q80 90 135 195 q55 105 83.5 223 q28.5 118 40 234.5 q11.5 116.5 11.5 259.5 l0 653 q202 20 420.5 54.5 q218.5 34.5 367.5 72.5 l33 -113 ZM580 305 l245 0 l0 1036 l-245 0 l0 -1036 Z" /><glyph glyph-name="cid3570" unicode="&#x542f;" d="M1165 1638 l119 0 l0 -211 l574 0 l0 -567 l-1196 0 l0 -14 q-3 -362 -65 -606 q-62 -244 -198 -437 l-104 70 q128 183 184.5 407 q56.5 224 59.5 539 l0 608 l626 0 l0 211 ZM793 -143 l0 727 l1036 0 l0 -727 l-1036 0 ZM909 -27 l801 0 l0 496 l-801 0 l0 -496 ZM662 1311 l0 -334 l1079 0 l0 334 l-1079 0 Z" /><glyph glyph-name="cid3579" unicode="&#x5438;" d="M961 1526 l884 0 l0 -111 l-159 -426 l258 0 l0 -117 q-78 -369 -271 -620 q177 -198 404 -340 l-80 -117 q-240 172 -406 361 q-183 -192 -483 -359 l-68 97 q297 167 473 358 q-195 251 -284 543 q-78 -612 -412 -994 l-94 80 q352 366 403 1114 q12 141 23 414 l-188 0 l0 117 ZM868 1485 l0 -1331 l-471 0 l0 1331 l471 0 ZM1272 1409 q-1 -29 -3.5 -78 q-2.5 -49 -7 -116 q-4.5 -67 -6.5 -107 q83 -429 338 -758 q162 215 224 522 l-261 0 l0 105 l158 432 l-442 0 ZM516 1372 l0 -1106 l234 0 l0 1106 l-234 0 Z" /><glyph glyph-name="cid3580" unicode="&#x5439;" d="M930 1444 l0 -1331 l-479 0 l0 1331 l479 0 ZM2005 -209 q-60 48 -106 90 q-46 42 -109.5 111 q-63.5 69 -111 138.5 q-47.5 69.5 -94 165.5 q-46.5 96 -75.5 200 q-125 -436 -567 -705 l-76 103 q69 44 124.5 84.5 q55.5 40.5 115.5 94.5 q60 54 105.5 109 q45.5 55 88.5 127 q43 72 71 150.5 q28 78.5 45.5 176.5 q17.5 98 19.5 208 l0 215 l123 0 l0 -219 q0 -12 -1.5 -33 q-1.5 -21 -1.5 -31 q66 -529 533 -889 l-84 -96 ZM571 1333 l0 -1108 l240 0 l0 1108 l-240 0 ZM1421 1622 q-31 -150 -69 -272 l659 0 l0 -107 q-49 -231 -162 -459 l-112 45 q108 202 149 408 l-571 0 q-87 -257 -207 -442 l-109 59 q201 334 304 791 l118 -23 Z" /><glyph glyph-name="cid3585" unicode="&#x543e;" d="M514 1178 l328 0 l49 231 l-455 0 l0 115 l1462 0 l0 -115 l-874 0 l-49 -231 l696 0 l-12 -406 l317 0 l0 -117 l-1624 0 l0 117 l404 0 l63 293 l-305 0 l0 113 ZM582 457 l1183 0 l0 -609 l-1183 0 l0 609 ZM705 -37 l937 0 l0 381 l-937 0 l0 -381 ZM1540 1065 l-588 0 l-61 -293 l641 0 l8 293 Z" /><glyph glyph-name="cid3597" unicode="&#x544a;" d="M623 -154 l0 699 l1204 0 l0 -699 l-1204 0 ZM451 1028 q210 254 323 537 l107 -47 q-53 -123 -99 -209 l398 0 l0 331 l118 0 l0 -331 l584 0 l0 -113 l-584 0 l0 -348 l711 0 l0 -113 l-1583 0 l0 113 l754 0 l0 348 l-461 0 q-73 -119 -180 -244 l-88 76 ZM1710 -37 l0 469 l-969 0 l0 -469 l969 0 Z" /><glyph glyph-name="cid3610" unicode="&#x5458;" d="M561 1540 l1114 0 l0 -479 l-1114 0 l0 479 ZM481 881 l1270 0 l0 -668 l-127 0 l0 553 l-1016 0 l0 -553 l-127 0 l0 668 ZM680 1430 l0 -259 l876 0 l0 259 l-876 0 ZM285 -195 l-35 119 q414 74 612 226.5 q198 152.5 201 369.5 l0 152 l121 0 l0 -158 q2 -260 -216 -440.5 q-218 -180.5 -683 -268.5 ZM1950 -94 l-66 -115 q-340 207 -717 371 l60 110 q364 -158 723 -366 Z" /><glyph glyph-name="cid362" unicode="&#x5462;" d="M1972 1024 l-762 0 l0 -197 q-10 -692 -245 -1026 l-109 64 q124 176 179.5 408.5 q55.5 232.5 58.5 547.5 l0 697 l878 0 l0 -494 ZM463 1460 l465 0 l0 -1239 l-465 0 l0 1239 ZM1380 952 l119 0 l0 -446 q280 118 459 264 l67 -98 q-84 -69 -234.5 -153 q-150.5 -84 -291.5 -144 l0 -271 q0 -76 18 -102.5 q18 -26.5 82 -26.5 l111 0 q149 0 332 58 l33 -115 q-184 -57 -361 -57 l-149 0 q-103 0 -144 53 q-41 53 -41 178 l0 860 ZM582 332 l227 0 l0 1018 l-227 0 l0 -1018 ZM1210 1407 l0 -270 l648 0 l0 270 l-648 0 Z" /><glyph glyph-name="cid3625" unicode="&#x5468;" d="M1395 -57 l219 0 q72 0 95.5 26.5 q23.5 26.5 23.5 106.5 l0 1366 l-1119 0 l0 -547 q0 -144 -2.5 -238 q-2.5 -94 -10 -203.5 q-7.5 -109.5 -23 -188.5 q-15.5 -79 -41.5 -163.5 q-26 -84.5 -65.5 -158.5 q-39.5 -74 -94.5 -146 l-103 72 q51 70 87.5 137.5 q36.5 67.5 61 145.5 q24.5 78 39 152 q14.5 74 21.5 180.5 q7 106.5 8.5 206 q1.5 99.5 0.5 251.5 l0 612 l1366 0 l0 -1509 q0 -123 -53 -170 q-53 -47 -187 -47 l-201 0 l-22 115 ZM809 598 l711 0 l0 -502 l-711 0 l0 502 ZM1628 760 l-926 0 l0 112 l402 0 l0 195 l-316 0 l0 115 l316 0 l0 184 l121 0 l0 -184 l315 0 l0 -115 l-315 0 l0 -195 l403 0 l0 -112 ZM928 487 l0 -280 l475 0 l0 280 l-475 0 Z" /><glyph glyph-name="cid3635" unicode="&#x5473;" d="M893 1436 l0 -1297 l-492 0 l0 1297 l492 0 ZM836 66 q185 142 327 321.5 q142 179.5 213 364.5 l-405 0 l0 114 l448 0 l0 369 l-364 0 l0 115 l364 0 l0 292 l119 0 l0 -292 l401 0 l0 -115 l-401 0 l0 -369 l496 0 l0 -114 l-463 0 q79 -187 208.5 -353 q129.5 -166 323.5 -327 l-86 -101 q-324 281 -479 625 l0 -795 l-119 0 l0 799 q-71 -170 -199.5 -336 q-128.5 -166 -299.5 -299 l-84 101 ZM524 1323 l0 -1069 l248 0 l0 1069 l-248 0 Z" /><glyph glyph-name="cid3642" unicode="&#x547b;" d="M1440 1636 l119 0 l0 -276 l417 0 l0 -1116 l-417 0 l0 -459 l-119 0 l0 459 l-414 0 l0 1116 l414 0 l0 276 ZM893 1427 l0 -1298 l-467 0 l0 1298 l467 0 ZM545 1315 l0 -1071 l229 0 l0 1071 l-229 0 ZM1858 358 l0 406 l-299 0 l0 -406 l299 0 ZM1145 764 l0 -406 l295 0 l0 406 l-295 0 ZM1858 1247 l-299 0 l0 -375 l299 0 l0 375 ZM1145 1247 l0 -375 l295 0 l0 375 l-295 0 Z" /><glyph glyph-name="cid3643" unicode="&#x547c;" d="M872 1427 l0 -1298 l-458 0 l0 1298 l458 0 ZM1135 -43 l178 0 q78 0 104.5 26.5 q26.5 26.5 26.5 104.5 l0 430 l-500 0 l0 115 l500 0 l0 731 q-251 -23 -430 -29 l-6 115 q226 6 506 35.5 q280 29.5 436 62.5 l28 -114 q-160 -35 -413 -60 l0 -741 l485 0 l0 -115 l-485 0 l0 -436 q0 -139 -52 -191.5 q-52 -52.5 -180 -52.5 l-178 0 l-20 119 ZM528 1317 l0 -1075 l232 0 l0 1075 l-232 0 ZM1667 799 q120 177 221 450 l109 -47 q-30 -86 -94.5 -221.5 q-64.5 -135.5 -128.5 -239.5 l-107 58 ZM1004 1184 l104 55 q45 -81 113 -218 q68 -137 102 -218 l-109 -53 q-38 93 -102 226 q-64 133 -108 208 Z" /><glyph glyph-name="cid3644" unicode="&#x547d;" d="M442 811 l541 0 l0 -739 l-541 0 l0 739 ZM1184 821 l575 0 l0 -522 q0 -74 -6 -115.5 q-6 -41.5 -26.5 -73 q-20.5 -31.5 -58 -42.5 q-37.5 -11 -101.5 -11 l-154 0 l-20 115 l133 0 q31 0 48 0.5 q17 0.5 31 7 q14 6.5 19.5 10.5 q5.5 4 9.5 22 q4 18 4 31 q0 13 0 46 l0 418 l-335 0 l0 -912 l-119 0 l0 1026 ZM1939 932 q-535 210 -833 588 q-140 -179 -340 -321.5 q-200 -142.5 -498 -264.5 l-51 106 q591 241 825 598 l123 0 q139 -198 339.5 -339.5 q200.5 -141.5 484.5 -247.5 l-50 -119 ZM559 696 l0 -510 l305 0 l0 510 l-305 0 ZM643 1100 l922 0 l0 -113 l-922 0 l0 113 Z" /><glyph glyph-name="cid3659" unicode="&#x548c;" d="M1219 1425 l624 0 l0 -1445 l-624 0 l0 1445 ZM999 330 q-110 234 -229 420 l0 -947 l-121 0 l0 932 q-132 -335 -364 -614 l-92 84 q283 344 423 725 l-366 0 l0 117 l399 0 l0 342 q-228 -35 -352 -48 l-23 115 q181 19 400 56 q219 37 373 79 l30 -114 q-151 -40 -307 -68 l0 -362 l365 0 l0 -117 l-365 0 l0 -146 l82 52 q94 -149 256 -451 l-109 -55 ZM1339 92 l387 0 l0 1219 l-387 0 l0 -1219 Z" /><glyph glyph-name="cid3689" unicode="&#x54ac;" d="M451 1434 l450 0 l0 -1274 l-450 0 l0 1274 ZM1190 758 l110 41 q81 -249 209 -430 q132 181 191 428 l115 -35 q-79 -285 -232 -492 q195 -233 500 -370 l-62 -111 q-317 153 -516 389 q-183 -203 -544 -389 l-66 105 q345 169 537 378 q-150 209 -242 486 ZM565 270 l221 0 l0 1053 l-221 0 l0 -1053 ZM1454 1636 l115 0 l0 -282 l469 0 l0 -115 l-1047 0 l0 115 l463 0 l0 282 ZM950 760 q118 106 203 205 q85 99 162 225 l96 -66 q-61 -117 -153 -222 q-92 -105 -222 -226 l-86 84 ZM1591 1120 l90 74 q214 -234 355 -426 l-94 -78 q-104 155 -351 430 Z" /><glyph glyph-name="cid3707" unicode="&#x54c0;" d="M250 236 q224 76 389 171 q165 95 289 230 l-361 0 l0 512 l1096 0 l0 -512 l-416 0 q89 -186 203 -320 q195 139 322 273 l88 -90 q-166 -159 -330 -269 q177 -168 450 -264 l-51 -119 q-136 51 -248.5 117.5 q-112.5 66.5 -194.5 137.5 q-82 71 -153 161.5 q-71 90.5 -120.5 176.5 q-49.5 86 -100.5 196 l-25 0 q-103 -132 -239 -238 l0 -434 q238 57 395 123 l39 -113 q-121 -49 -306.5 -96.5 q-185.5 -47.5 -346.5 -73.5 l-25 113 q67 11 119 21 l0 374 q-189 -119 -424 -196 l-49 119 ZM686 1038 l0 -290 l858 0 l0 290 l-858 0 ZM1055 1634 l125 0 l0 -209 l751 0 l0 -110 l-1628 0 l0 110 l752 0 l0 209 Z" /><glyph glyph-name="cid3708" unicode="&#x54c1;" d="M1761 924 l-1075 0 l0 630 l1075 0 l0 -630 ZM467 705 l655 0 l0 -842 l-655 0 l0 842 ZM1327 705 l653 0 l0 -842 l-653 0 l0 842 ZM1645 1038 l0 406 l-842 0 l0 -406 l842 0 ZM1442 -23 l420 0 l0 615 l-420 0 l0 -615 ZM588 -23 l420 0 l0 615 l-420 0 l0 -615 Z" /><glyph glyph-name="cid3715" unicode="&#x54c8;" d="M885 1444 l0 -1331 l-455 0 l0 1331 l455 0 ZM1092 592 l806 0 l0 -735 l-806 0 l0 735 ZM1778 -29 l0 506 l-566 0 l0 -506 l566 0 ZM551 1333 l0 -1110 l215 0 l0 1110 l-215 0 ZM1552 1636 q180 -437 533 -753 l-88 -92 q-176 163 -304.5 345 q-128.5 182 -197.5 365 q-62 -179 -192 -364.5 q-130 -185.5 -324 -341.5 l-80 88 q372 311 533 753 l120 0 ZM1184 963 l604 0 l0 -115 l-604 0 l0 115 Z" /><glyph glyph-name="cid372" unicode="&#x54cd;" d="M868 1411 l0 -1313 l-450 0 l0 1313 l450 0 ZM1868 59 l0 1221 l-735 0 l0 -1483 l-115 0 l0 1594 l305 0 q49 125 80 258 l121 -25 q-22 -88 -80 -233 l538 0 l0 -1340 q0 -69 -13.5 -113 q-13.5 -44 -44.5 -68.5 q-31 -24.5 -73 -33.5 q-42 -9 -108 -10 l-148 0 l-20 111 l143 0 q81 0 102 8 q42 15 47 86 q1 13 1 28 ZM1284 1010 l430 0 l0 -721 l-430 0 l0 721 ZM530 1300 l0 -1093 l224 0 l0 1093 l-224 0 ZM1395 897 l0 -496 l209 0 l0 496 l-209 0 Z" /><glyph glyph-name="cid3726" unicode="&#x54d4;" d="M825 1417 l0 -1308 l-432 0 l0 1308 l432 0 ZM911 406 l494 0 l0 225 l119 0 l0 -225 l538 0 l0 -113 l-538 0 l0 -498 l-119 0 l0 498 l-494 0 l0 113 ZM512 1305 l0 -1084 l195 0 l0 1084 l-195 0 ZM2040 850 l26 -111 q-133 -43 -272 -43 l-70 0 q-104 0 -148 53.5 q-44 53.5 -44 157.5 l0 731 l119 0 l0 -391 q183 78 321 176 l64 -100 q-182 -112 -385 -203 l0 -202 q0 -109 82 -109 l53 0 q107 0 254 41 ZM936 760 q35 11 72 26 l0 852 l118 0 l0 -348 l277 0 l0 -110 l-277 0 l0 -344 q157 70 269 133 l55 -97 q-225 -137 -473 -219 l-41 107 Z" /><glyph glyph-name="cid3742" unicode="&#x54e5;" d="M1221 -61 l211 0 q102 0 133.5 32.5 q31.5 32.5 31.5 114.5 l0 549 l-1261 0 l0 113 l1655 0 l0 -113 l-265 0 l0 -567 q0 -133 -59 -191.5 q-59 -58.5 -213 -58.5 l-215 0 l-18 121 ZM557 494 l776 0 l0 -416 l-776 0 l0 416 ZM565 1276 l764 0 l0 -383 l-764 0 l0 383 ZM387 1526 l1563 0 l0 -111 l-232 0 l0 -598 l-125 0 l0 598 l-1206 0 l0 111 ZM676 385 l0 -201 l538 0 l0 201 l-538 0 ZM680 1169 l0 -170 l532 0 l0 170 l-532 0 Z" /><glyph glyph-name="cid3743" unicode="&#x54e6;" d="M2032 799 q-111 -271 -242 -453 q44 -119 117 -224 q73 -105 196 -228 l-82 -91 q-224 200 -319 433 q-133 -155 -324 -289 l-73 96 q218 146 354 317 q-40 133 -70 345 q-16 104 -26 245 l-291 0 l0 -387 q116 48 211 99 l51 -101 q-106 -62 -262 -125 l0 -330 q0 -72 -7 -115 q-7 -43 -28 -77.5 q-21 -34.5 -61.5 -49.5 q-40.5 -15 -106.5 -16 l-147 0 l-23 119 l150 0 q69 1 86.5 31.5 q17.5 30.5 17.5 130.5 l0 262 q-136 -51 -229 -76 l-39 109 q163 51 268 92 l0 434 l-262 0 l0 115 l262 0 l0 301 q-86 -20 -195 -35 l-18 109 q218 28 485 116 l35 -102 q-89 -33 -188 -59 l0 -330 l282 0 q-12 199 -12 571 l119 0 q-5 -283 12 -571 l383 0 l0 -115 l-375 0 q8 -109 25 -225 q20 -147 43 -238 q79 125 180 359 l103 -47 ZM842 1444 l0 -1297 l-432 0 l0 1297 l432 0 ZM528 1333 l0 -1071 l197 0 l0 1071 l-197 0 ZM1894 1155 q-113 203 -198 307 l92 64 q127 -165 201 -307 l-95 -64 Z" /><glyph glyph-name="cid3746" unicode="&#x54e9;" d="M2064 -127 l-1157 0 l0 115 l520 0 l0 293 l-430 0 l0 108 l430 0 l0 246 l-395 0 l0 881 l905 0 l0 -881 l-395 0 l0 -246 l430 0 l0 -108 l-430 0 l0 -293 l522 0 l0 -115 ZM866 1489 l0 -1333 l-460 0 l0 1333 l460 0 ZM526 1378 l0 -1110 l219 0 l0 1110 l-219 0 ZM1542 748 l281 0 l0 280 l-281 0 l0 -280 ZM1149 1028 l0 -280 l278 0 l0 280 l-278 0 ZM1823 1407 l-281 0 l0 -268 l281 0 l0 268 ZM1149 1407 l0 -268 l278 0 l0 268 l-278 0 Z" /></font>
</defs>
</svg>
